<svg xmlns="http://www.w3.org/2000/svg" viewBox="0 0 16 16"><path d="M13 10.47a2.7 2.7 0 01-1-2.07V7.06a3.9 3.9 0 00-3.5-3.81V2.08a.5.5 0 00-1 0v1.17A3.9 3.9 0 004 7.06V8.4a2.68 2.68 0 01-1 2.07 1.34 1.34 0 00-.49 1 1.36 1.36 0 001.38 1.34h1.86a2.32 2.32 0 004.5 0h1.88a1.36 1.36 0 001.37-1.31 1.32 1.32 0 00-.5-1.03zm-5 3.11a1.32 1.32 0 01-1.2-.74h2.4a1.32 1.32 0 01-1.2.74zm4.13-1.74H3.88a.36.36 0 01-.38-.34.33.33 0 01.12-.25A3.65 3.65 0 005 8.4V7.06A2.94 2.94 0 018 4.2a2.94 2.94 0 013 2.86V8.4a3.66 3.66 0 001.37 2.84.32.32 0 01.13.26.36.36 0 01-.37.34z"/></svg>