<svg xmlns="http://www.w3.org/2000/svg" viewBox="0 0 16 16"><path d="M13.81 13.5h-.9V2a.5.5 0 00-.5-.5H3.59a.5.5 0 00-.5.5v11.5h-.9a.5.5 0 000 1h11.62a.5.5 0 100-1zm-6.25 0v-1.43h.93v1.43zm1.93 0v-1.93a.5.5 0 00-.5-.5H7.06a.51.51 0 00-.5.5v1.93H4.09v-11h7.82v11zm1.13-7.95H8.81a.5.5 0 00-.5.5v1.86a.5.5 0 00.5.5h1.81a.5.5 0 00.5-.5V6.05a.5.5 0 00-.5-.5zm-.5 1.86h-.81v-.86h.81zM7.19 5.55H5.38a.5.5 0 00-.5.5v1.86a.5.5 0 00.5.5h1.81a.5.5 0 00.5-.5V6.05a.5.5 0 00-.5-.5zm-.5 1.86h-.81v-.86h.81z"/></svg>