<svg xmlns="http://www.w3.org/2000/svg" viewBox="0 0 16 16"><path d="M14.546 4.723l-1.662-1.987a.465.465 0 00-.35-.179H5.251v-.06a.513.513 0 00-.138-.351A.455.455 0 004.782 2h-2.98a.439.439 0 00-.333.144.494.494 0 00-.136.353v3.16c0 .132.05.259.138.352a.455.455 0 00.33.146h2.98a.462.462 0 00.33-.148.52.52 0 00.14-.35v-.112h.25v7.461H4.25a.455.455 0 00-.332.146.513.513 0 00-.137.351c0 .132.05.258.137.351a.455.455 0 00.332.146h8.364a.455.455 0 00.332-.146.513.513 0 00.137-.351.512.512 0 00-.137-.351.455.455 0 00-.332-.146H8.33l-.075-.1V5.546h2.961v1.498c0 .131.05.258.137.351a.456.456 0 00.332.146.996.996 0 01.574.188c.17.122.302.294.38.495.077.201.096.422.056.635-.041.213-.14.408-.286.562a1.02 1.02 0 01-.53.299.982.982 0 01-.599-.064 1.053 1.053 0 01-.464-.405 1.149 1.149 0 01-.175-.61.513.513 0 00-.137-.352.456.456 0 00-.331-.146.455.455 0 00-.332.146.513.513 0 00-.137.351c0 .395.103.782.299 1.116.196.335.478.605.812.778a1.882 1.882 0 002.09-.233 2.1 2.1 0 00.642-.94 2.22 2.22 0 00.073-1.157 2.142 2.142 0 00-.517-1.023 1.956 1.956 0 00-.95-.575v-1.06h2.043a.45.45 0 00.256-.078.49.49 0 00.175-.213.517.517 0 00-.081-.53zm-10.233.438H2.27V2.994h2.043v2.167zm2.143.384h.918v7.461h-.918V5.545zm-.469-1H5.25v-.981h7.072l.83.98H5.988z"/></svg>