<svg xmlns="http://www.w3.org/2000/svg" viewBox="0 0 16 16"><path d="M13.76 11.26l-1.52-1.53.57-.57A.83.83 0 0013 8.4a.78.78 0 00-.53-.57L7 6a.8.8 0 00-1 1l1.83 5.5a.79.79 0 001.32.31l.58-.57 1.52 1.52a.82.82 0 00.57.24.76.76 0 00.57-.24l1.37-1.37a.79.79 0 000-1.13zM11.82 13l-2.09-2.1L8.65 12 7 7l5 1.66-1.12 1.07 2.1 2.1zM6.21 5.07V2.48a.48.48 0 111 0v2.59a.48.48 0 11-1 0zm-2.84-1a.48.48 0 01.68-.68L5.88 5.2a.48.48 0 010 .68.49.49 0 01-.34.12.51.51 0 01-.34-.14zM5 7.16H2.48a.48.48 0 110-1H5a.48.48 0 110 1zm.87.33a.48.48 0 010 .68L4.05 10a.49.49 0 01-.34.14.51.51 0 01-.34-.14.5.5 0 010-.68L5.2 7.49a.48.48 0 01.68 0zm1.62-1.61a.48.48 0 010-.68l1.83-1.83a.48.48 0 01.68.68L8.17 5.88a.51.51 0 01-.34.12.49.49 0 01-.34-.12z"/></svg>