<svg xmlns="http://www.w3.org/2000/svg" viewBox="0 0 16 16"><path d="M2.55 3.68h3.91a1.65 1.65 0 003.08 0h3.91a.53.53 0 00.55-.52.54.54 0 00-.55-.53H9.54a1.65 1.65 0 00-3.08 0H2.55a.54.54 0 00-.55.53.53.53 0 00.55.52zM8 2.63a.54.54 0 01.55.53.55.55 0 01-1.1 0A.54.54 0 018 2.63zm5.45 4.92H12a1.63 1.63 0 00-1.54-1.06 1.65 1.65 0 00-1.53 1.06H2.55a.53.53 0 100 1.06h6.39a1.65 1.65 0 003.07 0h1.44a.53.53 0 100-1.06zm-3 1a.54.54 0 01-.54-.53.53.53 0 01.54-.52.54.54 0 01.55.52.54.54 0 01-.53.58zm3 3.88H7a1.65 1.65 0 00-3.08 0H2.55A.53.53 0 002 13a.54.54 0 00.55.53h1.37a1.65 1.65 0 003.08 0h6.45A.54.54 0 0014 13a.53.53 0 00-.55-.52zm-8 1a.54.54 0 01-.53-.43.53.53 0 01.54-.52A.54.54 0 016 13a.54.54 0 01-.54.53z"/></svg>