<svg xmlns="http://www.w3.org/2000/svg" viewBox="0 0 16 16"><path d="M13.92 5.82L12 3.15a.36.36 0 00-.5-.09l-1.23.82H8.63a.22.22 0 00-.11 0l-1.24.37L6 3.91l-1.25-.85a.36.36 0 00-.5.09L2.08 6a.4.4 0 000 .53l1.11 1 1 1.35a1 1 0 00.09 1.28 1 1 0 00.45.27 1 1 0 00.27.7 1 1 0 00.55.28 1 1 0 00.27.58.93.93 0 00.68.3 1 1 0 00.25.46.92.92 0 00.68.29 1 1 0 00.68-.29 1 1 0 001.29-.07 1 1 0 00.31-.68.86.86 0 00.55-.28 1 1 0 00.27-.58.91.91 0 00.56-.28 1 1 0 00.27-.58 1 1 0 00.55-.28 1 1 0 00.17-1.17l.7-1.54 1.09-1a.39.39 0 00.05-.47zm-.81.18l-.59.54-1.63-2.18.69-.46zM9.33 7.8a.39.39 0 00-.27.11.4.4 0 000 .54L10.55 10a.24.24 0 010 .31.19.19 0 01-.28 0l-1-1.06A.39.39 0 009 9.18a.39.39 0 00-.27.11.4.4 0 000 .54l1 1.06a.24.24 0 010 .32.21.21 0 01-.29 0l-.54-.57a.36.36 0 00-.27-.12.39.39 0 00-.27.11.41.41 0 00-.11.25 1.08 1.08 0 00-.25-.12 1 1 0 00-.25-.76.94.94 0 00-.57-.3 1 1 0 00-.25-.56.93.93 0 00-.68-.32h-.08a1 1 0 00-.29-.46.87.87 0 00-.61-.24.89.89 0 00-.53.15L4 7.24 6 4.7l.41.12-.8 1.47a1 1 0 00-.09.71 1 1 0 00.45.6h.07a.2.2 0 00.08 0 1 1 0 00.57 0 1 1 0 00.58-.48l.53-1 .87.06L11.36 9a.22.22 0 010 .32.19.19 0 01-.3 0L9.6 7.91a.39.39 0 00-.27-.11zm-.68 3.69l.25.26a.22.22 0 010 .32.19.19 0 01-.28 0 .14.14 0 010-.06 1 1 0 000-.43.29.29 0 00.03-.09zM4.83 9.57a.24.24 0 010-.32l.3-.31a.2.2 0 01.13 0A.17.17 0 015.4 9a.24.24 0 010 .32l-.27.28a.21.21 0 01-.3-.03zm.72.66l.54-.57a.22.22 0 01.15-.06.11.11 0 01.08 0 .23.23 0 01.12.23.27.27 0 01-.07.14l-.53.56a.21.21 0 01-.29 0 .25.25 0 01-.06-.16.23.23 0 01.06-.14zm.82.86l.54-.57a.2.2 0 01.15-.06.19.19 0 01.1 0 .23.23 0 01.1.23.27.27 0 01-.07.13l-.53.56a.21.21 0 01-.29 0 .24.24 0 010-.32zm.93.76l.3-.31h.13a.27.27 0 01.16.08.26.26 0 010 .31l-.27.29a.22.22 0 01-.29 0 .24.24 0 01-.03-.37zm1.8-6.16a.33.33 0 00-.22-.09l-1.26-.1a.37.37 0 00-.33.2l-.67 1.19A.19.19 0 016.5 7a.18.18 0 01-.16 0 .21.21 0 01-.09-.13.2.2 0 010-.17l.85-1.57 1.58-.48h1.48L12 7.14l-.5 1.09zM5.31 4.35L3.48 6.68l-.59-.53L4.63 3.9z"/></svg>