<svg xmlns="http://www.w3.org/2000/svg" viewBox="0 0 16 16"><path d="M8 1.6a6.5 6.5 0 106.5 6.5A6.51 6.51 0 008 1.6zm0 12.19a5.69 5.69 0 115.69-5.69A5.69 5.69 0 018 13.79zM8.68 7a.94.94 0 01.07.41v4.13l-.33.06a3.25 3.25 0 01-.44 0 2.33 2.33 0 01-.4 0 .68.68 0 01-.3-.12.54.54 0 01-.19-.25.94.94 0 01-.09-.37V6.73l.33-.06a3.42 3.42 0 01.44 0 2.54 2.54 0 01.41 0 .81.81 0 01.3.13.52.52 0 01.2.2zm-.11-2.37a.92.92 0 01.26.65.91.91 0 01-.94.92.9.9 0 01-.69-.27.89.89 0 01-.26-.65.92.92 0 01.26-.65 1 1 0 011.37 0z"/></svg>