<svg xmlns="http://www.w3.org/2000/svg" viewBox="0 0 16 16"><path d="M12.25 2.05h-8.5A1.75 1.75 0 002 3.8v8.51a1.52 1.52 0 00.06.42A1.72 1.72 0 003.32 14a2 2 0 00.42.05h8.51A1.75 1.75 0 0014 12.31V3.8a1.76 1.76 0 00-1.75-1.75zm0 5.85l1-1v.95h-1zm1-2.11L11.08 7.9H9.89l3.3-3.3zM2.81 3.8a.94.94 0 01.94-.93h.67L2.81 4.48zm0 1.82l2.76-2.75h1.19L2.81 6.81zm0 2.38l5.1-5.09h1.18L2.81 9.15zm0 2.34l7.43-7.43h1.19l-8.62 8.58zm.64 2.89a1 1 0 01-.59-.6l9.68-9.68a1 1 0 01.6.59L8.74 7.9h-.89v.89zm1.11.05L7.85 10v1.18l-2.11 2.06zm2.33 0l1-1v1h-1zm6.3-2.78V12.46a1 1 0 01-.84.81H8.66V8.71h4.53v1.75z"/></svg>