<svg viewBox="0 0 16 16"><path d="M10.75 10.59a.5.5 0 01-.5.5H8.93a.5.5 0 010-1h1.32a.5.5 0 01.5.5zm-3.86-.84l-.62.62-.17-.16a.48.48 0 00-.7 0 .5.5 0 000 .71l.51.51a.51.51 0 00.36.15.49.49 0 00.35-.15l1-1a.51.51 0 000-.71.5.5 0 00-.73.03zm3.36-2.41H8.93a.5.5 0 00-.5.5.5.5 0 00.5.5h1.32a.5.5 0 00.5-.5.5.5 0 00-.5-.5zM6.89 7l-.62.62-.17-.16a.49.49 0 00-.7.7l.51.52a.51.51 0 00.36.15.49.49 0 00.35-.15l1-1a.5.5 0 000-.7.5.5 0 00-.73.02zm5.89-3.22v9.9a.51.51 0 01-.5.5H3.72a.51.51 0 01-.5-.5v-9.9a.5.5 0 01.5-.5H5.5v-.13a.5.5 0 01.5-.5h.76A1.35 1.35 0 018 1.82a1.32 1.32 0 011.23.83H10a.5.5 0 01.5.5v.13h1.78a.5.5 0 01.5.5zM6.5 4.4h3v-.75h-.66a.5.5 0 01-.5-.5.36.36 0 00-.34-.33.33.33 0 00-.34.33.5.5 0 01-.5.5H6.5zm5.28-.12H10.5v.62a.5.5 0 01-.5.5H6a.5.5 0 01-.5-.5v-.62H4.22v8.9h7.56z"/></svg>