<svg xmlns="http://www.w3.org/2000/svg" viewBox="0 0 16 16"><path d="M11.88 14.39a.42.42 0 01-.21-.06L8.2 12.25a.41.41 0 00-.4 0l-3.47 2.08a.39.39 0 01-.45 0 .4.4 0 01-.15-.42l.89-4a.39.39 0 00-.12-.38l-3-2.67a.41.41 0 01.23-.71l4-.36a.38.38 0 00.27-.2l1.6-3.73a.4.4 0 01.4-.25.4.4 0 01.37.25L10 5.59a.38.38 0 00.31.23l4 .36a.41.41 0 01.34.28.4.4 0 01-.11.43L11.5 9.57a.37.37 0 00-.12.37l.9 4a.42.42 0 01-.16.42.43.43 0 01-.24.03zm-3.88-3a1.19 1.19 0 01.61.17l2.66 1.59-.68-3A1.17 1.17 0 0111 9l2.3-2.09-3.09-.28a1.19 1.19 0 01-1-.73L8 3.05 6.78 5.9a1.18 1.18 0 01-1 .72L2.7 6.9 5 9a1.19 1.19 0 01.37 1.17l-.68 3 2.66-1.59a1.22 1.22 0 01.65-.19z"/></svg>