<svg xmlns="http://www.w3.org/2000/svg" viewBox="0 0 16 16"><path d="M11 14.5a7.34 7.34 0 01-2.91-.68.5.5 0 01-.27-.66.51.51 0 01.66-.26 6.35 6.35 0 002.52.6 3.14 3.14 0 002.28-.83.82.82 0 00.22-.61.84.84 0 00-.27-.59 3.85 3.85 0 00-1.44-1 1 1 0 00-1.12.35l-.69.69a1.09 1.09 0 01-1.3.17 11.69 11.69 0 01-2.42-1.87 12.05 12.05 0 01-1.94-2.49A1.09 1.09 0 014.49 6l.69-.69a1 1 0 00.35-1.12 3.85 3.85 0 00-1-1.44.82.82 0 00-.59-.27.83.83 0 00-.62.23A3.14 3.14 0 002.5 5a8.67 8.67 0 002.79 5.71 12.24 12.24 0 001.13 1 .5.5 0 01-.61.79 12.85 12.85 0 01-1.23-1.06A9.7 9.7 0 011.5 5a4.06 4.06 0 011.13-3A1.84 1.84 0 014 1.5a1.89 1.89 0 011.28.57 4.7 4.7 0 011.21 1.86A2.06 2.06 0 015.9 6l-.7.7A8.35 8.35 0 006.9 9a10.67 10.67 0 002.27 1.78l.8-.7a2 2 0 012.1-.6 4.7 4.7 0 011.86 1.23 1.88 1.88 0 01.07 2.65 4.14 4.14 0 01-3 1.14z"/></svg>