<svg xmlns="http://www.w3.org/2000/svg" viewBox="0 0 40 40"><path d="M30.13 26.09c0 4.85-4.69 8-10.6 8-4.33 0-7.8-1.46-9-3.47a3.85 3.85 0 01-.53-3.19 2.64 2.64 0 014.21-1c1.18 1 .59 2.48.87 3.5.55 2.13 2.17 2.68 4.41 2.68 2.92 0 4.69-2.4 4.69-6.34s-1.81-6.58-6.74-6.58v-1.44c3.63-.43 5.09-2.24 5.09-6.18 0-2.68-.83-4.81-3.31-4.89a2.45 2.45 0 00-2.84 2.64c.08 1.73 0 2.84-.91 3.47a2.84 2.84 0 01-4.21-.91 3.86 3.86 0 01.51-3.19c1.26-2 3.82-3.47 7.6-3.47 4.57 0 8.79 2.09 8.79 6.35 0 3-2.09 5.51-5.71 6.69 4.92.83 7.68 3.24 7.68 7.33z"/></svg>