<svg xmlns="http://www.w3.org/2000/svg" viewBox="0 0 40 40"><path d="M30.63 27c-.52 4.24-4.69 7.3-10.63 7.3-5.6 0-11.31-2.86-10.63-8.21.43-3.61 3-5.24 6.46-6.07-4.8-2.34-5.75-5.35-4.76-9 .99-3.65 4.84-5.3 8.93-5.3 4.72 0 9.08 2.26 9.2 6.07.08 3.53-1.95 5.63-5.36 6.62 4.09 1.59 7.34 3.97 6.79 8.59zm-5.08 1c0-3.09-3-5.07-7.77-6.86a6 6 0 00-3.1 5c-.4 4.4 2.42 6.66 5.59 6.66s5.28-1.8 5.28-4.8zm-3.69-10.58A6.33 6.33 0 0024.28 12c0-2.78-1.31-4.8-4.28-4.8-2.78 0-4.6 1.55-4.6 4.32 0 2.77 2.89 4.28 6.46 5.9z"/></svg>