<svg xmlns="http://www.w3.org/2000/svg" viewBox="0 0 40 40"><path d="M31.87 25a6.32 6.32 0 01-2.47-5v-3.09A9.09 9.09 0 0021 8.12V5.3a1 1 0 00-2 0v2.82a9.09 9.09 0 00-8.4 8.79V20a6.35 6.35 0 01-2.49 5A2.91 2.91 0 007 27.27a3 3 0 003.1 3h4.65a5.42 5.42 0 0010.5 0h4.65a3 3 0 003.1-3A2.9 2.9 0 0031.87 25zM20 32.3a3.34 3.34 0 01-3.16-2.07h6.32A3.34 3.34 0 0120 32.3zm9.9-4.07H10.1a1 1 0 01-1.1-1 .91.91 0 01.35-.7A8.31 8.31 0 0012.6 20v-3.09a7.15 7.15 0 017.4-6.84 7.15 7.15 0 017.4 6.84V20a8.31 8.31 0 003.23 6.53.9.9 0 01.37.71 1 1 0 01-1.1.99z"/></svg>