<svg xmlns="http://www.w3.org/2000/svg" viewBox="0 0 40 40"><path d="M34 33h-2.82V6a1 1 0 00-1-1H9.82a1 1 0 00-1 1v27H6a1 1 0 000 2h28a1 1 0 000-2zm-15.86 0v-4H22v4zM24 33v-5a1 1 0 00-1-1h-5.86a1 1 0 00-1 1v5h-5.32V7h18.36v26zm2.84-23.83h-5a1 1 0 00-1 1v5a1 1 0 001 1h5a1 1 0 001-1v-5a1 1 0 00-1-1zm-1 5h-3v-3h3zm-7.52-5h-5a1 1 0 00-1 1v5a1 1 0 001 1h5a1 1 0 001-1v-5a1 1 0 00-1-1zm-1 5h-3v-3h3zm9.52 3.13h-5a1 1 0 00-1 1v5a1 1 0 001 1h5a1 1 0 001-1v-5a1 1 0 00-1-1zm-1 5h-3v-3h3zm-7.52-5h-5a1 1 0 00-1 1v5a1 1 0 001 1h5a1 1 0 001-1v-5a1 1 0 00-1-1zm-1 5h-3v-3h3z"/></svg>