<svg xmlns="http://www.w3.org/2000/svg" viewBox="0 0 24 24"><path d="M21.818 7.085l-2.492-2.982a.738.738 0 00-.236-.192.697.697 0 00-.289-.076H7.875v-.09a.77.77 0 00-.206-.527A.683.683 0 007.173 3h-4.47a.659.659 0 00-.27.054.692.692 0 00-.23.161.775.775 0 00-.203.53v4.742c0 .197.074.387.206.527s.31.218.497.218h4.47a.693.693 0 00.494-.221.779.779 0 00.208-.524v-.17h.375V19.51H6.376a.683.683 0 00-.497.218.769.769 0 00-.206.528c0 .197.074.387.206.527s.31.218.497.218h12.547a.683.683 0 00.497-.218.769.769 0 00.206-.527.769.769 0 00-.206-.527.683.683 0 00-.497-.219h-6.428l-.112-.149V8.318h4.441v2.246a.77.77 0 00.206.527c.132.14.31.218.497.218.307.002.607.1.861.283.255.183.453.441.57.743.116.301.145.633.084.952-.061.32-.21.613-.428.842a1.53 1.53 0 01-.797.45c-.301.062-.613.029-.897-.097a1.58 1.58 0 01-.697-.607 1.722 1.722 0 01-.261-.916.769.769 0 00-.206-.527.683.683 0 00-.497-.218.683.683 0 00-.497.218.769.769 0 00-.206.527 3.293 3.293 0 00.449 1.674 3.04 3.04 0 001.217 1.167c.501.26 1.06.364 1.615.303a2.88 2.88 0 001.521-.653 3.15 3.15 0 00.962-1.41c.19-.556.228-1.158.11-1.736a3.214 3.214 0 00-.776-1.534 2.934 2.934 0 00-1.424-.862v-1.59h3.064c.136 0 .27-.04.384-.117a.734.734 0 00.262-.32.777.777 0 00-.122-.796zM6.47 7.741H3.406v-3.25H6.47v3.25zm3.214.577h1.377v11.191H9.684V8.318zM8.98 6.817H7.875V5.346h10.608l1.246 1.47H8.98z"/></svg>