<svg xmlns="http://www.w3.org/2000/svg" viewBox="0 0 40 40"><path d="M36.364 11.809l-4.154-4.97a1.229 1.229 0 00-.394-.32 1.162 1.162 0 00-.48-.127h-18.21v-.15c0-.329-.124-.645-.343-.878A1.138 1.138 0 0011.954 5h-7.45a1.098 1.098 0 00-.45.09 1.153 1.153 0 00-.382.27c-.11.115-.195.253-.254.404a1.291 1.291 0 00-.084.479v7.901c0 .33.123.646.343.879.22.233.517.364.828.364h7.45c.309-.005.604-.137.823-.369.219-.232.343-.546.348-.874v-.281h.624v18.652h-3.123c-.31 0-.609.131-.828.364-.22.233-.343.55-.343.879 0 .33.123.645.343.878.22.233.517.364.828.364h20.911c.31 0 .609-.13.829-.364.22-.233.343-.549.343-.878 0-.33-.124-.646-.343-.879a1.138 1.138 0 00-.829-.364H20.825l-.188-.248V13.863h7.403v3.743c0 .33.123.646.343.879.22.233.518.364.828.364a2.49 2.49 0 011.436.471c.425.304.755.735.948 1.238.194.503.243 1.055.141 1.587a2.803 2.803 0 01-.713 1.404 2.55 2.55 0 01-1.327.748 2.455 2.455 0 01-1.496-.16 2.633 2.633 0 01-1.16-1.012 2.871 2.871 0 01-.437-1.526c0-.33-.123-.646-.343-.879a1.138 1.138 0 00-.828-.364c-.31 0-.609.131-.828.364-.22.233-.343.55-.343.879a5.489 5.489 0 00.747 2.79 5.067 5.067 0 002.029 1.944 4.704 4.704 0 002.692.505 4.799 4.799 0 002.535-1.088 5.25 5.25 0 001.603-2.35c.316-.927.38-1.93.183-2.894a5.355 5.355 0 00-1.293-2.555 4.889 4.889 0 00-2.374-1.438v-2.65h5.107c.226.002.449-.066.64-.195.191-.13.343-.315.437-.534.091-.218.12-.46.085-.695a1.258 1.258 0 00-.288-.63zm-25.581 1.093H5.676V7.485h5.107v5.417zm5.357.96h2.295v18.653H16.14V13.863zm-1.172-2.5h-1.842V8.91h17.678l2.077 2.451H14.968z"/></svg>