<svg xmlns="http://www.w3.org/2000/svg" viewBox="0 0 40 40"><path d="M35.43 28.85l-4.29-4.29 1.72-1.72a1.94 1.94 0 00-.76-3.22l-14.85-5a1.94 1.94 0 00-2.45 2.46L19.75 32a1.93 1.93 0 003.21.76L24.68 31 29 35.31a1.94 1.94 0 001.38.57 1.9 1.9 0 001.37-.57l3.71-3.71a1.94 1.94 0 00-.03-2.75zm-5.08 4.82L24.68 28l-3 3-4.74-14.18 14.19 4.73-3 3 5.67 5.66zM16.44 13a1.07 1.07 0 001.07-1V5a1.07 1.07 0 00-2.14 0v7a1.07 1.07 0 001.07 1zM9.15 7.52A1.07 1.07 0 107.64 9l5 5a1.07 1.07 0 00.76.31 1.07 1.07 0 00.75-1.82zm3.85 8.8a1.06 1.06 0 00-1.06-1.07H5.07a1.07 1.07 0 000 2.14h6.85A1.06 1.06 0 0013 16.32zm-.41 2.34l-4.95 4.95a1.07 1.07 0 00.76 1.82 1.05 1.05 0 00.75-.31l4.95-4.95a1.07 1.07 0 10-1.51-1.51zm6.95-4.37a1.05 1.05 0 00.75-.31l4.95-5a1.06 1.06 0 000-1.51 1.08 1.08 0 00-1.51 0l-4.95 5a1.07 1.07 0 00.76 1.82z"/></svg>