<svg xmlns="http://www.w3.org/2000/svg" viewBox="0 0 40 40"><path d="M8 12.48h8.83a3.29 3.29 0 006.34 0H32a1 1 0 000-2.07h-8.83a3.29 3.29 0 00-6.34 0H8a1 1 0 000 2.07zm12-2.42a1.38 1.38 0 11-1.34 1.38A1.36 1.36 0 0120 10.06zM32 19h-3.13a3.29 3.29 0 00-6.34 0H8a1 1 0 000 2h14.53a3.29 3.29 0 006.34 0H32a1 1 0 000-2zm-6.3 2.41A1.38 1.38 0 1127 20a1.36 1.36 0 01-1.3 1.38zm6.3 6.12H17.52a3.29 3.29 0 00-6.34 0H8a1 1 0 000 2.06h3.18a3.29 3.29 0 006.34 0H32a1 1 0 000-2.06zm-17.65 2.41a1.38 1.38 0 111.34-1.38 1.36 1.36 0 01-1.34 1.38z"/></svg>