<svg xmlns="http://www.w3.org/2000/svg" viewBox="0 0 40 40"><path d="M35.82 14.86l-5.28-6.44a.89.89 0 00-1.14-.19l-3.34 2h-4.38a.7.7 0 00-.23 0l-3.38.91-3.47-.89-3.44-2.02A.9.9 0 0010 8.4l-5.8 6.8a.79.79 0 00-.2.6.82.82 0 00.31.56l3 2.43 2.61 3.32a2.22 2.22 0 00.2 3 2.45 2.45 0 001.23.62.41.41 0 000 .11 2.22 2.22 0 00.72 1.63 2.46 2.46 0 001.5.66 2.22 2.22 0 00.7 1.44 2.48 2.48 0 001.85.66 2.24 2.24 0 00.67 1.16 2.52 2.52 0 003.42 0l.18-.17a2.59 2.59 0 003.36-.06 2.21 2.21 0 00.71-1.42 2.57 2.57 0 001.54-.62 2.29 2.29 0 00.7-1.43 2.42 2.42 0 001.49-.69 2.23 2.23 0 00.71-1.42 2.54 2.54 0 001.51-.58 2.24 2.24 0 00.4-2.77l1.91-3.77 3-2.41a.8.8 0 00.1-1.19zm-1.88.4l-1.79 1.45-4.56-5.45L29.66 10zM23 20a.8.8 0 00-.26.59.83.83 0 00.25.59l3.94 3.74v.05h.1a.6.6 0 01.18.43.61.61 0 01-.2.45.76.76 0 01-1 0l-2.72-2.55a.89.89 0 00-1.21 0 .81.81 0 000 1.18L24.7 27l.06.06a.65.65 0 01.2.46.61.61 0 01-.2.45.74.74 0 01-1 0l-1.46-1.42a.89.89 0 00-.61-.24.88.88 0 00-.61.23.83.83 0 00-.26.59.62.62 0 000 .23l-.23-.17a2.76 2.76 0 00-.77-.33 2.25 2.25 0 00-.6-1.86 2.48 2.48 0 00-1.56-.71 2.18 2.18 0 00-.66-1.37 2.48 2.48 0 00-1.72-.71H15a2.33 2.33 0 00-.76-1.15 2.41 2.41 0 00-1.55-.55 2.49 2.49 0 00-1.41.43l-2.2-2.67L14.56 12l1.35.35L13.7 16a2.22 2.22 0 00-.23 1.76 2.31 2.31 0 001.15 1.38l.12.06a2.52 2.52 0 00.29.12 2.57 2.57 0 001.43 0 2.4 2.4 0 001.46-1.08l1.47-2.44 2.52.17 7.29 6.85a.67.67 0 01.2.46.65.65 0 01-.2.45.76.76 0 01-1.05 0l-4-3.77A.89.89 0 0023 20zm-.22 9.62a.61.61 0 01-.2.45.74.74 0 01-1 0h-.06a1.34 1.34 0 00.07-.18 2.13 2.13 0 00.09-1 2.09 2.09 0 00-.25-.74l1.07 1a.46.46 0 00.07.07.61.61 0 01.18.35zm-11.4-6.5l.75-.71h.06a.67.67 0 01.38-.15h.08a.67.67 0 01.5.21.58.58 0 01.18.43.66.66 0 01-.22.48l-.73.69a.75.75 0 01-1 0 .65.65 0 01-.2-.46.61.61 0 01.17-.54zm1.94 2.36l1.46-1.38a.78.78 0 01.51-.19.8.8 0 01.3.06.63.63 0 01.38.67.72.72 0 01-.21.39l-1.44 1.35a.76.76 0 01-1 0 .61.61 0 010-.9zm2.21 2.09L17 26.15a.71.71 0 01.5-.19.69.69 0 01.35.08.62.62 0 01.33.65.7.7 0 01-.2.39l-1.48 1.35a.76.76 0 01-1 0 .62.62 0 010-.91zM18 29.35l.75-.71h.06a.68.68 0 01.31-.14h.08v-.3l.06.25a.67.67 0 01.5.2l.05.05a.64.64 0 01-.08.87l-.73.69a.74.74 0 01-1 0 .61.61 0 010-.9zm4.9-14.73h-.06a1 1 0 00-.49-.19L19 14.16h-.06a.88.88 0 00-.75.41l-1.73 2.89a.65.65 0 01-.43.3.73.73 0 01-.54-.06.59.59 0 01-.32-.39.58.58 0 01.06-.48l2.27-3.77 4.34-1.18h4.06L31 18l-1.46 2.88zm-.18 14.32zm2.21-2.08zM13 11.25l-5.13 5.82-1.8-1.45L10.88 10z"/></svg>