<svg xmlns="http://www.w3.org/2000/svg" viewBox="0 0 40 40"><path d="M31.33 4H8.66A4.66 4.66 0 004 8.65v22.69a4 4 0 00.16 1.14 4.61 4.61 0 003.35 3.36 4.28 4.28 0 001.14.16h22.68A4.67 4.67 0 0036 31.34V8.65A4.67 4.67 0 0031.33 4zm0 15.58l2.5-2.58v2.55zm2.5-5.58l-5.61 5.61H25l8.79-8.79zM6.17 8.65a2.49 2.49 0 012.49-2.48h1.79l-4.28 4.29zm0 4.87l7.36-7.35h3.16L6.17 16.68zm0 6.24L19.75 6.17h3.16L6.17 22.92zm0 6.24L26 6.17h3.17l-23 23zm1.7 7.69a2.53 2.53 0 01-1.58-1.58L32.1 6.29a2.55 2.55 0 011.6 1.57L22 19.58h-2.41V22zm3 .14l8.77-8.78v3.15L14 33.83zm6.21 0l2.56-2.56v2.56H17zm16.8-7.41v4.92a1.55 1.55 0 010 .31 2.53 2.53 0 01-2.22 2.17h-9.9V21.76h12.07v4.66z"/></svg>