<svg xmlns="http://www.w3.org/2000/svg" viewBox="0 0 40 40"><path d="M27.49 36a18.56 18.56 0 01-7.18-1.67 1 1 0 01-.52-1.33 1 1 0 011.31-.52A16.68 16.68 0 0027.49 34a8.13 8.13 0 005.9-2.14 2.45 2.45 0 00.61-1.71 2.4 2.4 0 00-.75-1.67 9.72 9.72 0 00-3.71-2.55 2.85 2.85 0 00-3 .93l-1.71 1.69a2.45 2.45 0 01-2.93.39 28.52 28.52 0 01-6-4.64l-.17-.16a28.61 28.61 0 01-4.64-6 2.45 2.45 0 01.39-2.93l1.73-1.74a2.85 2.85 0 00.93-3 9.72 9.72 0 00-2.55-3.71A2.44 2.44 0 009.85 6a2.35 2.35 0 00-1.72.63A8.08 8.08 0 006 12.51c0 4.65 2.66 10 7.05 14.44a29.09 29.09 0 002.84 2.47 1 1 0 01.19 1.4 1 1 0 01-1.41.19 33.14 33.14 0 01-3-2.64C6.88 23.61 4 17.68 4 12.52a10 10 0 012.76-7.35 4.46 4.46 0 016.2.19A11.57 11.57 0 0116 9.9a4.8 4.8 0 01-1.42 5l-1.74 1.75a.45.45 0 00-.07.54 26.06 26.06 0 004.31 5.58l.16.16a26.86 26.86 0 005.59 4.32.45.45 0 00.54-.07l1.73-1.73h.05a4.78 4.78 0 015-1.39 11.46 11.46 0 014.54 3 4.4 4.4 0 011.36 3 4.47 4.47 0 01-1.16 3.15 10 10 0 01-7.4 2.79z"/></svg>