<svg xmlns="http://www.w3.org/2000/svg" viewBox="0 0 40 40"><path d="M14.096 31.375c-.445.361-.91.375-1.396.042-.486-.334-.646-.778-.48-1.334l2.21-7.25-5.584-4c-.472-.36-.618-.812-.438-1.354.18-.541.549-.812 1.104-.812h7l2.209-7.459a1.16 1.16 0 01.458-.646c.222-.152.458-.229.708-.229.25 0 .486.077.709.23.222.152.375.368.458.645l2.208 7.459h7c.556 0 .924.27 1.105.812.18.542.034.993-.438 1.354l-5.583 4 2.208 7.25c.167.556.007 1-.48 1.334-.485.333-.95.32-1.395-.042l-5.792-4.417-5.791 4.417z"/></svg>