<svg xmlns="http://www.w3.org/2000/svg" viewBox="0 0 40 40"><path d="M15 35c0 .917.75 1.667 1.667 1.667h6.666c.917 0 1.667-.75 1.667-1.667v-.833H15V35zm5-31.667C13.567 3.333 8.333 8.567 8.333 15c0 3.967 1.984 7.45 5 9.567v3.766c0 .917.75 1.667 1.667 1.667h10c.917 0 1.667-.75 1.667-1.667v-3.766c3.016-2.117 5-5.6 5-9.567 0-6.433-5.234-11.667-11.667-11.667zm4.167 20V27.5h-8.334v-4.167c-3.333-1.666-5-5-5-8.333 0-4.876 3.334-9.167 9.167-9.167S29.167 10.4 29.167 15c0 3.333-1.667 6.667-5 8.333z"/></svg>