<svg xmlns="http://www.w3.org/2000/svg" viewBox="0 0 40 40"><path d="M19.74 4.92h-.68a15 15 0 000 29.94H20a15 15 0 10-.26-30zm-5.42 3.31a16.29 16.29 0 00-2.05 4.46H9.21a13 13 0 015.11-4.46zM8.1 14.69h3.67a26.68 26.68 0 00-.48 4.23H7a12.78 12.78 0 011.1-4.23zm0 10.54A12.67 12.67 0 017 20.92h4.25a25.33 25.33 0 00.5 4.31zm1.12 2h3a16.06 16.06 0 002 4.39 13.19 13.19 0 01-4.97-4.39zM19 32.86c-1.88-.38-3.56-2.54-4.6-5.63H19zm0-7.63h-5.16a24.16 24.16 0 01-.55-4.31H19zm0-6.31h-5.71a23.27 23.27 0 01.54-4.23H19zm0-6.23h-4.62C15.42 9.56 17.1 7.37 19 7zm14 6.23h-5.1a26.68 26.68 0 00-.48-4.23h4.48a12.78 12.78 0 011.1 4.23zm-2.17-6.23h-3.91a15.3 15.3 0 00-2.42-5 13 13 0 016.29 5zM21 7.26c1.56.76 2.92 2.75 3.81 5.43H21zm0 7.43h4.36a23.27 23.27 0 01.54 4.23H21zm0 6.23h4.9a24.16 24.16 0 01-.55 4.31H21zm0 11.66v-5.35h3.79c-.89 2.64-2.24 4.6-3.79 5.35zm3.5-.46a15.29 15.29 0 002.4-4.89h3.85a13.05 13.05 0 01-6.25 4.89zm7.37-6.89H27.4a25.33 25.33 0 00.5-4.31H33a12.67 12.67 0 01-1.13 4.31z"/></svg>