<svg xmlns="http://www.w3.org/2000/svg" viewBox="0 0 24 24"><path d="M18.94 16.14c0 3.32-3.21 5.48-7.26 5.48-3 0-5.35-1-6.18-2.37a2.68 2.68 0 01-.33-2.19 1.81 1.81 0 012.89-.67c.81.7.41 1.7.6 2.4.37 1.46 1.48 1.84 3 1.84 2 0 3.21-1.65 3.21-4.35 0-2.7-1.24-4.51-4.61-4.51v-1c2.48-.29 3.48-1.54 3.48-4.23 0-1.84-.57-3.3-2.27-3.35A1.67 1.67 0 009.55 5c0 1.18 0 1.94-.62 2.37A2 2 0 016 6.75a2.6 2.6 0 01.35-2.18C7.25 3.19 9 2.19 11.6 2.19c3.13 0 6 1.43 6 4.35 0 2.05-1.43 3.77-3.92 4.58 3.37.57 5.26 2.24 5.26 5.02z"/></svg>