<svg viewBox="0 0 24 24"><path d="M23.07 12.75c0 2.81-5.7 4.32-11.07 4.32S.93 15.56.93 12.75c0-.79.49-1.95 2.79-2.93A.61.61 0 114.2 11c-1.28.55-2 1.22-2 1.8 0 1.3 3.74 3.1 9.84 3.1s9.84-1.8 9.84-3.1c0-.48-.53-1-1.46-1.52a.62.62 0 01-.26-.83.61.61 0 01.83-.26c1.71.87 2.08 1.88 2.08 2.56zM7.76 11.54a.58.58 0 01-.44-.17.84.84 0 01-.23-.53v-.08L6 10.9v.1a1.65 1.65 0 00.57 1.12 1.8 1.8 0 001.24.43A1.81 1.81 0 009.08 12a1.63 1.63 0 00.53-1.24 1.35 1.35 0 00-.28-.86 1.32 1.32 0 00-.6-.41 1.27 1.27 0 00.65-1.09A1.38 1.38 0 009 7.49 1.68 1.68 0 007.73 7a1.79 1.79 0 00-.81.18 1.36 1.36 0 00-.58.47 2.21 2.21 0 00-.34.78v.08l1.09.19v-.08a.74.74 0 01.2-.48.51.51 0 01.42-.14.45.45 0 01.36.14.5.5 0 01.14.37.55.55 0 01-.21.42.76.76 0 01-.53.16h-.09l-.14 1h.11c.42-.11.68-.1.89.13a.79.79 0 01.18.55.84.84 0 01-.19.59.61.61 0 01-.47.18zm2.86.35a3.32 3.32 0 01-.53-2.09 3.39 3.39 0 01.55-2.14A1.84 1.84 0 0112.1 7a1.55 1.55 0 011 .36 1.65 1.65 0 01.53 1v.08l-1.13.13V8.5a.65.65 0 00-.17-.4A.45.45 0 0012 8a.58.58 0 00-.48.26 1.93 1.93 0 00-.24.94 1.23 1.23 0 01.84-.31 1.51 1.51 0 011.14.5 1.82 1.82 0 01.48 1.3 1.86 1.86 0 01-.5 1.35 1.82 1.82 0 01-2.65-.13zm.76-1.3a1.06 1.06 0 00.21.71.57.57 0 00.46.24.5.5 0 00.4-.19 1 1 0 00.17-.67 1.09 1.09 0 00-.18-.7.56.56 0 00-.88 0 .9.9 0 00-.18.61zm3.29 1.32a3.58 3.58 0 01-.49-2.15 3.55 3.55 0 01.54-2.2 1.66 1.66 0 012.51 0 3.52 3.52 0 01.53 2.2 3.63 3.63 0 01-.53 2.2 1.53 1.53 0 01-1.26.56 1.57 1.57 0 01-1.3-.61zm.73-2.14a5.66 5.66 0 00.09 1.23.8.8 0 00.21.42.41.41 0 00.55 0 .64.64 0 00.2-.38 5.5 5.5 0 00.1-1.29 5.77 5.77 0 00-.09-1.26.85.85 0 00-.21-.42A.4.4 0 0016 8a.39.39 0 00-.27.1.64.64 0 00-.2.38 5.6 5.6 0 00-.13 1.29zM18.64 9a1.23 1.23 0 010-1.74 1.22 1.22 0 01.87-.35 1.18 1.18 0 01.86.36 1.15 1.15 0 01.36.86 1.19 1.19 0 01-.36.87 1.22 1.22 0 01-1.73 0zm.36-.85a.49.49 0 00.14.34.48.48 0 00.34.13.44.44 0 00.33-.13.45.45 0 00.19-.34.48.48 0 00-.47-.47.48.48 0 00-.48.47z"/></svg>