<svg xmlns="http://www.w3.org/2000/svg" viewBox="0 0 24 24"><path d="M21.85 9.77l-9.54-6a.62.62 0 00-.62 0l-9.54 6-.08.06a.57.57 0 00-.11.16v.05a.45.45 0 000 .16v3.53a.6.6 0 00.59.59.59.59 0 00.59-.59v-2.55l2.82 1.28v5.9c0 1.83 5.11 1.92 6.13 1.92s6.13-.09 6.13-1.92v-5.53l3.69-2.05a.58.58 0 000-1zM12 19.11a11.57 11.57 0 01-4.85-.75A11.34 11.34 0 0112 17.6a11.34 11.34 0 014.85.76 11.57 11.57 0 01-4.85.75zm5-2a16 16 0 00-5-.68 16 16 0 00-5 .68v-5.35c.31-.3 2-.84 5-.84s4.65.54 5 .84zm1.1-5.61C17.77 9.84 13 9.75 12 9.75s-5.24.08-6 1.48l-2.3-1.05L12 5l8.38 5.23z"/></svg>