<svg xmlns="http://www.w3.org/2000/svg" viewBox="0 0 24 24"><path d="M20 16.05a4.6 4.6 0 01-1.64-3.52V10.3A6.37 6.37 0 0012.75 4V2a.75.75 0 00-1.5 0v2a6.37 6.37 0 00-5.6 6.31v2.23A4.6 4.6 0 014 16.06a2.15 2.15 0 001.4 3.78h3a3.66 3.66 0 007.16 0h3a2.15 2.15 0 002.15-2.15 2.18 2.18 0 00-.71-1.64zm-8 5.2a2.15 2.15 0 01-2-1.41h4a2.15 2.15 0 01-2 1.41zm6.6-2.91H5.4A.65.65 0 015 17.2a6.07 6.07 0 002.18-4.67V10.3a4.85 4.85 0 019.7 0v2.23A6.11 6.11 0 0019 17.2a.64.64 0 01.23.49.65.65 0 01-.63.65z"/></svg>