<svg xmlns="http://www.w3.org/2000/svg" viewBox="0 0 24 24"><path d="M15.86 12.19h-2.63a.75.75 0 00-.75.75v2.62a.75.75 0 00.75.75h2.63a.75.75 0 00.75-.75v-2.62a.75.75 0 00-.75-.75zm-.75 2.62H14v-1.12h1.13zm-4.3-2.62H8.19a.74.74 0 00-.75.75v2.62a.74.74 0 00.75.75h2.62a.75.75 0 00.75-.75v-2.62a.75.75 0 00-.75-.75zm-.75 2.62H8.94v-1.12h1.12zm5.8-8.26h-2.63a.75.75 0 00-.75.75v2.62a.75.75 0 00.75.75h2.63a.75.75 0 00.75-.75V7.3a.75.75 0 00-.75-.75zm-.75 2.62H14V8.05h1.13zm-4.3-2.62H8.19a.74.74 0 00-.75.75v2.62a.74.74 0 00.75.75h2.62a.75.75 0 00.75-.75V7.3a.75.75 0 00-.75-.75zm-.75 2.62H8.94V8.05h1.12zm5.8 3h-2.63a.75.75 0 00-.75.75v2.62a.75.75 0 00.75.75h2.63a.75.75 0 00.75-.75v-2.6a.75.75 0 00-.75-.75zm-.75 2.62H14v-1.1h1.13zm.75-8.26h-2.63a.75.75 0 00-.75.75v2.64a.75.75 0 00.75.75h2.63a.75.75 0 00.75-.75V7.3a.75.75 0 00-.75-.75zm-.75 2.62H14v-1.1h1.13zm-4.3 3H8.19a.74.74 0 00-.75.75v2.62a.74.74 0 00.75.75h2.62a.75.75 0 00.75-.75v-2.58a.75.75 0 00-.75-.75zm-.75 2.62H8.94v-1.08h1.12zm.75-8.26H8.19a.74.74 0 00-.75.75v2.66a.74.74 0 00.75.75h2.62a.75.75 0 00.75-.75V7.3a.75.75 0 00-.75-.75zm-.75 2.62H8.94V8.05h1.12zm.75-2.62H8.19a.74.74 0 00-.75.75v2.66a.74.74 0 00.75.75h2.62a.75.75 0 00.75-.75V7.3a.75.75 0 00-.75-.75zm-.75 2.62H8.94V8.05h1.12zm.75 3H8.19a.74.74 0 00-.75.75v2.62a.74.74 0 00.75.75h2.62a.75.75 0 00.75-.75v-2.56a.75.75 0 00-.75-.75zm-.75 2.62H8.94v-1.06h1.12zm5.8-8.26h-2.63a.75.75 0 00-.75.75v2.68a.75.75 0 00.75.75h2.63a.75.75 0 00.75-.75V7.3a.75.75 0 00-.75-.75zm-.75 2.62H14V8.05h1.13zm.75 3h-2.63a.75.75 0 00-.75.75v2.62a.75.75 0 00.75.75h2.63a.75.75 0 00.75-.75v-2.54a.75.75 0 00-.75-.75zm-.75 2.62H14v-1.04h1.13zm.75-2.62h-2.63a.75.75 0 00-.75.75v2.62a.75.75 0 00.75.75h2.63a.75.75 0 00.75-.75v-2.54a.75.75 0 00-.75-.75zm-.75 2.62H14v-1.04h1.13zm.75-8.26h-2.63a.75.75 0 00-.75.75v2.7a.75.75 0 00.75.75h2.63a.75.75 0 00.75-.75V7.3a.75.75 0 00-.75-.75zm-.75 2.62H14V8.05h1.13zm-4.3 3H8.19a.74.74 0 00-.75.75v2.62a.74.74 0 00.75.75h2.62a.75.75 0 00.75-.75v-2.52a.75.75 0 00-.75-.75zm-.75 2.62H8.94v-1.02h1.12zm.75-8.26H8.19a.74.74 0 00-.75.75v2.72a.74.74 0 00.75.75h2.62a.75.75 0 00.75-.75V7.3a.75.75 0 00-.75-.75zm-.75 2.62H8.94V8.05h1.12zM20.4 19.66h-1.12V3.6a.74.74 0 00-.75-.75H5.46a.75.75 0 00-.75.75v16.06H3.59a.75.75 0 000 1.5H20.4a.75.75 0 000-1.5zm-2.62 0H6.21V4.35h11.57zm-4.55-3.35h2.63a.75.75 0 00.75-.75v-2.62a.75.75 0 00-.75-.75h-2.63a.75.75 0 00-.75.75v2.62a.75.75 0 00.75.75zm.77-2.62h1.13v1.12H14zm-.75-3h2.63a.75.75 0 00.75-.75V7.3a.75.75 0 00-.75-.75h-2.65a.75.75 0 00-.75.75v2.62a.75.75 0 00.75.75zM14 8.05h1.13v1.12H14zm-5.81 8.26h2.62a.75.75 0 00.75-.75v-2.62a.75.75 0 00-.75-.75H8.19a.74.74 0 00-.75.75v2.62a.74.74 0 00.75.75zm.75-2.62h1.12v1.12H8.94zm-.75-3h2.62a.75.75 0 00.75-.75V7.3a.75.75 0 00-.75-.75H8.19a.74.74 0 00-.75.75v2.62a.74.74 0 00.75.75zm.75-2.62h1.12v1.1H8.94zm1.87-1.5H8.19a.74.74 0 00-.75.75v2.6a.74.74 0 00.75.75h2.62a.75.75 0 00.75-.75V7.3a.75.75 0 00-.75-.75zm-.75 2.62H8.94V8.05h1.12zm.75 3H8.19a.74.74 0 00-.75.75v2.62a.74.74 0 00.75.75h2.62a.75.75 0 00.75-.75v-2.62a.75.75 0 00-.75-.75zm-.75 2.62H8.94v-1.12h1.12zm5.8-8.26h-2.63a.75.75 0 00-.75.75v2.62a.75.75 0 00.75.75h2.63a.75.75 0 00.75-.75V7.3a.75.75 0 00-.75-.75zm-.75 2.62H14V8.05h1.13zm.75 3h-2.63a.75.75 0 00-.75.75v2.62a.75.75 0 00.75.75h2.63a.75.75 0 00.75-.75v-2.6a.75.75 0 00-.75-.75zm-.75 2.62H14v-1.1h1.13zm.75-2.62h-2.63a.75.75 0 00-.75.75v2.62a.75.75 0 00.75.75h2.63a.75.75 0 00.75-.75v-2.6a.75.75 0 00-.75-.75zm-.75 2.62H14v-1.1h1.13zm.75-8.26h-2.63a.75.75 0 00-.75.75v2.64a.75.75 0 00.75.75h2.63a.75.75 0 00.75-.75V7.3a.75.75 0 00-.75-.75zm-.75 2.62H14v-1.1h1.13zm-4.3 3H8.19a.74.74 0 00-.75.75v2.62a.74.74 0 00.75.75h2.62a.75.75 0 00.75-.75v-2.58a.75.75 0 00-.75-.75zm-.75 2.62H8.94v-1.08h1.12zm.75-8.26H8.19a.74.74 0 00-.75.75v2.66a.74.74 0 00.75.75h2.62a.75.75 0 00.75-.75V7.3a.75.75 0 00-.75-.75zm-.75 2.62H8.94V8.05h1.12z"/></svg>