<svg xmlns="http://www.w3.org/2000/svg" viewBox="0 0 24 24"><path d="M20.65 16.86l-2.29-2.29.86-.85a1.23 1.23 0 00.32-1.14 1.2 1.2 0 00-.79-.87L10.52 9a1.23 1.23 0 00-1.24.29A1.19 1.19 0 009 10.5l2.74 8.23a1.18 1.18 0 00.87.79 1.2 1.2 0 001.14-.32l.85-.86 2.29 2.28a1.18 1.18 0 00.85.36 1.24 1.24 0 00.86-.35l2.06-2.06a1.21 1.21 0 00-.01-1.71zm-2.92 2.57l-3.14-3.14L13 17.9l-2.46-7.4 7.38 2.5-1.61 1.61 3.14 3.14zM9.3 7.58V3.71A.73.73 0 0110 3a.73.73 0 01.72.73v3.85a.73.73 0 01-.72.73.73.73 0 01-.7-.73zM5.06 6.07a.72.72 0 011-1l2.77 2.71A.73.73 0 018.31 9a.73.73 0 01-.51-.21zm2.46 4.66h-3.8A.72.72 0 013 10a.73.73 0 01.72-.73h3.8a.73.73 0 01.73.73.73.73 0 01-.73.73zm1.31.48a.74.74 0 010 1L6.08 15a.72.72 0 01-1 0 .72.72 0 010-1l2.72-2.79a.74.74 0 011.03 0zm2.4-2.4a.74.74 0 010-1L14 5a.73.73 0 011 1l-2.74 2.81a.75.75 0 01-.52.21.73.73 0 01-.51-.21z"/></svg>