<svg xmlns="http://www.w3.org/2000/svg" viewBox="0 0 24 24"><path d="M2.77 6.35h6.79a2.55 2.55 0 004.88 0h6.79a.77.77 0 000-1.54h-6.79a2.55 2.55 0 00-4.88 0H2.77a.77.77 0 100 1.54zM12 4.55a1 1 0 11-1 1 1 1 0 011-1zm9.23 6.68h-2.41a2.54 2.54 0 00-4.87 0H2.77a.77.77 0 000 1.54H14a2.54 2.54 0 004.87 0h2.41a.77.77 0 100-1.54zM16.39 13a1 1 0 010-2.08 1 1 0 010 2.08zm4.84 4.61H10.09a2.54 2.54 0 00-4.87 0H2.77a.77.77 0 000 1.54h2.45a2.54 2.54 0 004.87 0h11.14a.77.77 0 100-1.54zM7.66 19.46a1 1 0 111-1 1 1 0 01-1 1z"/></svg>