<svg xmlns="http://www.w3.org/2000/svg" viewBox="0 0 24 24"><path d="M21.12 8.92l-3-3.74a.53.53 0 00-.69-.12L15.6 6.22h-2.43a.39.39 0 00-.15 0l-1.87.53-1.93-.5L7.3 5.06a.54.54 0 00-.69.11L3.34 9.12a.5.5 0 00.07.71l1.68 1.41 1.46 1.9a1.35 1.35 0 00.12 1.8 1.45 1.45 0 00.68.36 1.32 1.32 0 00.41 1 1.35 1.35 0 00.83.39 1.33 1.33 0 00.4.83 1.37 1.37 0 001 .4 1.25 1.25 0 00.37.66 1.4 1.4 0 001 .4 1.38 1.38 0 001-.4l.07-.07a1.46 1.46 0 001.91-.06 1.33 1.33 0 00.4-.82 1.46 1.46 0 00.84-.39 1.4 1.4 0 00.41-.82 1.43 1.43 0 00.83-.39 1.4 1.4 0 00.41-.82 1.44 1.44 0 00.84-.4 1.34 1.34 0 00.23-1.62L19.39 11 21 9.62a.5.5 0 00.12-.7zM20 9.16L19 10l-2.5-3.11 1.09-.67zm-6.12 2.71a.51.51 0 000 .73l2.25 2.22a.33.33 0 010 .48.36.36 0 01-.49 0l-1.54-1.48a.53.53 0 00-.74 0 .5.5 0 000 .72l1.5 1.46a.33.33 0 010 .48.32.32 0 01-.25.1.35.35 0 01-.25-.1l-.82-.81a.54.54 0 00-.37-.15.51.51 0 00-.37.15.48.48 0 00-.15.36h-.05a1.4 1.4 0 00-.41-.19A1.35 1.35 0 0011 14.4a1.37 1.37 0 00-.36-.8 1.45 1.45 0 00-1-.43h-.21a1.27 1.27 0 00-.43-.65 1.38 1.38 0 00-.89-.33 1.53 1.53 0 00-.81.23l-1.14-1.5 3-3.61.68.18-1.18 2.1a1.35 1.35 0 00.53 1.86l.1.05.14.05a1.38 1.38 0 00.83 0 1.4 1.4 0 00.84-.64l.81-1.4 1.37.1 4.06 4a.34.34 0 010 .49.38.38 0 01-.52 0l-2.22-2.22a.53.53 0 00-.74-.01zM13.2 17a2.5 2.5 0 00-.07-.26l.45.44a.33.33 0 010 .48.35.35 0 01-.5 0v-.1a1.36 1.36 0 00.12-.56zm-5.78-2.8a.34.34 0 010-.49l.44-.43a.44.44 0 01.23-.08.33.33 0 01.25.11.35.35 0 010 .49l-.41.4a.31.31 0 01-.24.1.31.31 0 01-.27-.09zm1.08.88l.82-.79a.35.35 0 01.25-.1h.15a.34.34 0 01.19.35.33.33 0 01-.11.21l-.8.79a.37.37 0 01-.5 0 .33.33 0 01-.1-.24.37.37 0 01.1-.21zm1.24 1.22l.81-.8a.36.36 0 01.43 0 .32.32 0 01.16.34.35.35 0 01-.14.16l-.81.79a.38.38 0 01-.49 0 .36.36 0 01-.11-.25.32.32 0 01.15-.23zm1.4 1.06l.45-.43a.33.33 0 01.16-.07h.07a.38.38 0 01.27.13.35.35 0 010 .47l-.41.4a.37.37 0 01-.5 0 .36.36 0 01-.04-.49zm2.74-8.59a.5.5 0 00-.29-.12l-1.93-.15a.53.53 0 00-.46.26l-1 1.67a.34.34 0 01-.21.16.32.32 0 01-.27 0 .36.36 0 01-.17-.21.35.35 0 010-.26l1.26-2.17 2.4-.68h2.27l2.84 3.52-.79 1.61zM8.22 6.85l-2.79 3.32-.95-.8 2.65-3.2z"/></svg>