<svg xmlns="http://www.w3.org/2000/svg" viewBox="0 0 24 24"><path d="M18.37 3H5.62A2.62 2.62 0 003 5.62v12.76a2.3 2.3 0 00.09.64A2.58 2.58 0 005 20.91a2.23 2.23 0 00.63.09h12.74A2.62 2.62 0 0021 18.38V5.62A2.62 2.62 0 0018.37 3zm0 8.77l1.44-1.44v1.44zm1.44-3.16l-3.16 3.16h-1.81l4.94-4.95zm-15.56-3a1.41 1.41 0 011.4-1.4h1L4.22 6.63zm0 2.74l4.11-4.13h1.78l-5.92 5.92zm0 3.51l7.64-7.65h1.78l-9.45 9.43zm0 3.5L15.37 4.22h1.77L4.22 17.15zm1 4.33a1.43 1.43 0 01-.89-.89L18.81 4.29a1.39 1.39 0 01.89.88l-6.59 6.6h-1.34v1.33zm1.66.08l4.93-4.94v1.77l-3.23 3.18zm3.49 0l1.44-1.44v1.44h-1.51zm9.45-4.17v2.94a1.42 1.42 0 01-1.26 1.22H13V13h6.79v2.62z"/></svg>