<svg xmlns="http://www.w3.org/2000/svg" viewBox="0 0 24 24"><path d="M21.75 18a2.83 2.83 0 01-.75 2 6.19 6.19 0 01-4.52 1.71 11.31 11.31 0 01-4.36-1 .75.75 0 11.59-1.37 9.87 9.87 0 003.78.89A4.76 4.76 0 0019.93 19a1.33 1.33 0 00.32-.91 1.3 1.3 0 00-.4-.9 5.82 5.82 0 00-2.17-1.5 1.55 1.55 0 00-1.67.53l-1 1a1.62 1.62 0 01-1.93.26 17.24 17.24 0 01-3.64-2.81l-.1-.09A17.58 17.58 0 016.48 11a1.6 1.6 0 01.26-2l1-1a1.54 1.54 0 00.56-1.68 5.82 5.82 0 00-1.5-2.17 1.29 1.29 0 00-.89-.4 1.24 1.24 0 00-.91.34A4.67 4.67 0 003.75 7.5c0 2.76 1.58 6 4.19 8.56a17.49 17.49 0 001.68 1.47.74.74 0 01.14 1 .75.75 0 01-1 .14 18.16 18.16 0 01-1.83-1.59C4 14.24 2.26 10.65 2.25 7.51A6.16 6.16 0 014 3a2.8 2.8 0 013.93.11A7 7 0 019.74 5.9 3.06 3.06 0 018.85 9l-1 1.05a.12.12 0 000 .14 15.18 15.18 0 002.56 3.32l.1.1a15.68 15.68 0 003.31 2.56.12.12 0 00.15 0l1-1a3 3 0 013.11-.86 7 7 0 012.79 1.86 2.8 2.8 0 01.88 1.83z"/></svg>