<svg xmlns="http://www.w3.org/2000/svg" viewBox="0 0 24 24"><path d="M21 12.17V7.85A4.77 4.77 0 0020.05 5l.1-.1-1.06-1.06-.1.1A4.81 4.81 0 0016.15 3h-8.3A4.85 4.85 0 003 7.85v8.3A4.77 4.77 0 004 19l-.14.14 1.01 1.06.13-.14a4.81 4.81 0 002.85.94h8.3A4.85 4.85 0 0021 16.15v-4zM7.85 4.5h2.46l-5.8 5.81V7.85A3.35 3.35 0 017.85 4.5zM4.51 16.15v-3.72l7.92-7.93h3.72a3.28 3.28 0 011.77.5L5 17.92a3.33 3.33 0 01-.49-1.77zM6.08 19L19 6.08a3.33 3.33 0 01.51 1.77v3.72l-7.94 7.93H7.85a3.28 3.28 0 01-1.77-.5zm13.41-2.83a3.35 3.35 0 01-3.34 3.35h-2.46l5.8-5.81z"/></svg>