<svg xmlns="http://www.w3.org/2000/svg" viewBox="0 0 24 24"><path d="M17.69 21.37a.68.68 0 01-.31-.08l-5.09-3.05a.55.55 0 00-.58 0l-5.09 3a.61.61 0 01-.66 0 .62.62 0 01-.23-.62l1.32-5.8a.57.57 0 00-.18-.55l-4.47-3.9a.59.59 0 01-.17-.63.61.61 0 01.51-.41l5.91-.53a.56.56 0 00.47-.34L11.45 3a.6.6 0 01.55-.37.6.6 0 01.55.36l2.33 5.47a.56.56 0 00.47.34l5.91.54a.58.58 0 01.51.4.61.61 0 01-.17.64l-4.47 3.92a.55.55 0 00-.18.54l1.32 5.8a.61.61 0 01-.23.62.66.66 0 01-.35.11zM12 17a1.72 1.72 0 01.9.25l3.9 2.33-1-4.45a1.76 1.76 0 01.55-1.7l3.43-3-4.54-.43a1.71 1.71 0 01-1.45-1.06L12 4.74l-1.79 4.19A1.73 1.73 0 018.76 10l-4.53.41 3.43 3a1.76 1.76 0 01.55 1.7l-1 4.45 3.9-2.33A1.72 1.72 0 0112 17z"/></svg>