<svg xmlns="http://www.w3.org/2000/svg" viewBox="0 0 24 24"><path d="M12 20.75h-.55a8.75 8.75 0 010-17.46 2.68 2.68 0 01.4 0A8.75 8.75 0 1112 20.75zm-3.23-5.29c.54 2 1.51 3.33 2.48 3.69v-3.69zm4 0v3.45a6.25 6.25 0 002-3.45zm3.57 0a10.27 10.27 0 01-1.26 3.11 7.28 7.28 0 003.31-3.11zm-10.69 0a7.38 7.38 0 002.63 2.75 10.71 10.71 0 01-1-2.75zm11-1.5H19A7.25 7.25 0 0019 10h-2.41a17.68 17.68 0 01.11 2 15.51 15.51 0 01-.12 2zm-3.83 0h2.32a13.53 13.53 0 00.13-2 13.53 13.53 0 00-.13-2h-2.39zM8.47 14h2.78v-4H8.47a13.79 13.79 0 000 3.92zM5 14h2a16.07 16.07 0 010-4H5a7.25 7.25 0 000 4zm11.3-5.42h2.05a7.23 7.23 0 00-3.31-3.11 10.16 10.16 0 011.28 3.07zm-3.57 0h2a6.21 6.21 0 00-2-3.45zm-4 0h2.48V4.85c-.93.36-1.9 1.71-2.44 3.69zm-3.14 0h1.63a10.71 10.71 0 011-2.75 7.38 7.38 0 00-2.59 2.71z"/></svg>