<svg xmlns="http://www.w3.org/2000/svg" viewBox="0 0 40 40"><path d="M20 30.38c-8.74 0-18-2.47-18-7 0-1.29.78-3.18 4.54-4.77a1 1 0 01.78 1.84c-2.08.88-3.32 2-3.32 2.93 0 2.11 6.09 5 16 5s16-2.93 16-5c0-.79-.86-1.69-2.37-2.48a1 1 0 11.93-1.77c2.87 1.45 3.44 3.09 3.44 4.21 0 4.57-9.26 7.04-18 7.04zm-5.32-12.33a2 2 0 001.05-1.76 2.15 2.15 0 00-.64-1.51 2.68 2.68 0 00-2-.82 3.23 3.23 0 00-1.33.28 2.34 2.34 0 00-.94.78 3.51 3.51 0 00-.5 1.29v.12l1.77.31v-.14a1.33 1.33 0 01.32-.78.89.89 0 01.64-.25.77.77 0 01.59.22.8.8 0 01.23.6.88.88 0 01-.31.72 1.26 1.26 0 01-.87.26h-.18L12.25 19l.18-.05c.69-.19 1.11-.16 1.45.2a1.29 1.29 0 01.3.9 1.37 1.37 0 01-.32 1 1 1 0 01-.76.35 1 1 0 01-.73-.29 1.4 1.4 0 01-.37-.86v-.15l-1.85.22v.13a2.74 2.74 0 00.93 1.83 2.94 2.94 0 002 .7 3 3 0 002.14-.83 2.71 2.71 0 00.86-2 2.19 2.19 0 00-.46-1.41 2.15 2.15 0 00-.94-.69zm7.43-.22a3 3 0 01.77 2.17 3.06 3.06 0 01-.81 2.2 3 3 0 01-4.31-.22 5.3 5.3 0 01-.87-3.39 5.45 5.45 0 01.9-3.49 3 3 0 012.37-1.1 2.56 2.56 0 011.7.58 2.67 2.67 0 01.86 1.67v.13l-1.85.2v-.12a1.06 1.06 0 00-.27-.65.73.73 0 00-.55-.2 1 1 0 00-.79.42 3.3 3.3 0 00-.4 1.54 2 2 0 011.39-.57 2.49 2.49 0 011.86.83zm-1.39 1a.93.93 0 00-.73-.35.92.92 0 00-.71.33 1.57 1.57 0 00-.29 1 1.75 1.75 0 00.34 1.19 1 1 0 00.74.39.84.84 0 00.67-.31A1.74 1.74 0 0021 20a1.82 1.82 0 00-.28-1.18zm7.8-3.92a5.79 5.79 0 01.87 3.58 5.9 5.9 0 01-.87 3.58 2.49 2.49 0 01-2.05.92 2.6 2.6 0 01-2.12-1 5.87 5.87 0 01-.79-3.51 5.8 5.8 0 01.87-3.57 2.45 2.45 0 012-.93 2.48 2.48 0 012.09.92zm-1.11 3.58a10.08 10.08 0 00-.14-2.05 1.36 1.36 0 00-.35-.69.71.71 0 00-.9 0 1.16 1.16 0 00-.32.62 9.25 9.25 0 00-.17 2.12 9.09 9.09 0 00.15 2 1.37 1.37 0 00.34.69.72.72 0 00.91 0 1.23 1.23 0 00.32-.62 9.36 9.36 0 00.16-2.08zm6.81-2.63a2 2 0 01-2 2 2 2 0 112-2zm-1.45-.55a.76.76 0 10.23.55.74.74 0 00-.23-.56z"/></svg>