<svg viewBox="0 0 24 24"><path d="M20.5 11.64a2.18 2.18 0 00-1.71-.58 5.81 5.81 0 00-2.86-4.69L16.45 4a.58.58 0 00-.71-.69 2.56 2.56 0 01-1.66-.08 2.17 2.17 0 00-1.69-.46 1.85 1.85 0 00-1.22.8.59.59 0 000 .56l1 2.25a8.64 8.64 0 00-1.27.91.57.57 0 000 .82.57.57 0 00.82 0 6.86 6.86 0 011.25-.87 3.3 3.3 0 001.27.27 3.2 3.2 0 001.05-.19 4.61 4.61 0 012.4 4.11v.15a4 4 0 00-.81 1l-1.4.85a1.59 1.59 0 00-1.14-.43h-1.63a2 2 0 00-1.47-.85H9.92a4.62 4.62 0 00-3.55 1.93 1.26 1.26 0 00-1.57.17l-1.11 1.1a1.25 1.25 0 000 1.77l3.81 3.81a1.24 1.24 0 001.77 0l1.12-1.12a1.25 1.25 0 00.1-1.65h4.86a.65.65 0 00.38-.13c.83-.71 2.79-2.39 3-2.72s1.57-2.51 1.83-3a.58.58 0 00-.06-.67zm-5.74-5.38a2 2 0 01-1.4-.09l-1-2.2a.79.79 0 01.23-.09 1 1 0 01.79.24 2.71 2.71 0 001.75.41zM9.56 19l-1.11 1.11a.11.11 0 01-.13 0L4.51 16.3a.11.11 0 010-.13l1.12-1.12a.09.09 0 01.12 0l3.81 3.81a.09.09 0 010 .14zm8.29-4.39c-.17.2-1.48 1.35-2.72 2.4H10a.61.61 0 00-.3.08l-.16.1-2.32-2.32a3.59 3.59 0 012.7-1.58h1.32c.21 0 .53.34.67.57a.56.56 0 00.5.28h1.93a.44.44 0 010 .87h-3.43a.58.58 0 00-.58.58.59.59 0 00.58.59h3.43a1.6 1.6 0 001.6-1.6v-.11l1.63-1a.64.64 0 00.2-.2c.37-.64.76-1 1.15-1.06a.84.84 0 01.39 0c-.6 1.01-1.31 2.22-1.46 2.39zM8.71 7.07V3.28a.59.59 0 011.17 0v3.79a.59.59 0 11-1.17 0zM3.9 9.7V3.92a.59.59 0 011.17 0V9.7a.59.59 0 11-1.17 0zm2.56 1.52V5.36a.59.59 0 01.59-.59.58.58 0 01.58.59v5.86a.58.58 0 01-.58.58.59.59 0 01-.59-.58z"/></svg>