<svg viewBox="0 0 40 40"><path d="M20 3.92a16 16 0 1016 16 16 16 0 00-16-16zm0 30a14 14 0 1114-14 14 14 0 01-14 14zm1.68-16.62a2.66 2.66 0 01.16 1v10.19l-.81.14a6.59 6.59 0 01-1.09.09 5.8 5.8 0 01-1-.08 1.65 1.65 0 01-.74-.3 1.36 1.36 0 01-.46-.61 2.62 2.62 0 01-.17-1V16.54l.82-.14a7.73 7.73 0 011.08-.08 5.9 5.9 0 011 .07 1.7 1.7 0 01.74.3 1.5 1.5 0 01.47.61zm-.27-5.91A2.23 2.23 0 0122 13a2.19 2.19 0 01-.63 1.6 2.25 2.25 0 01-1.69.65 2.25 2.25 0 01-1.68-.66 2.2 2.2 0 01-.64-1.6 2.24 2.24 0 01.64-1.6 2.52 2.52 0 013.38 0z"/></svg>