<svg viewBox="0 0 40 40"><path d="M26.13 19a1 1 0 01-1 1h-3.54a1 1 0 010-2h3.54a1 1 0 011 1zm-8-2l-1.9 1.9-.68-.67a1 1 0 10-1.41 1.41l1.4 1.36a1 1 0 00.71.3A1 1 0 0017 21l2.61-2.61a1 1 0 000-1.41 1 1 0 00-1.46.02zm7 7.56h-3.54a1 1 0 000 2h3.54a1 1 0 000-2zm-7-1l-1.9 1.91-.68-.68a1 1 0 00-1.41 1.41l1.38 1.39a1 1 0 00.71.29 1.05 1.05 0 00.71-.29L19.57 25a1 1 0 000-1.41 1 1 0 00-1.42-.05zM32.45 8.61v26.52a1 1 0 01-1 1H8.55a1 1 0 01-1-1V8.61a1 1 0 011-1h5.09v-.67a1 1 0 011-1h2.27A3.22 3.22 0 0120 3.72a3.22 3.22 0 013.06 2.22h2.27a1 1 0 011 1v.69h5.09a1 1 0 011.03.98zm-16.81 2h8.72V7.94h-2.11a1 1 0 01-1-1A1.23 1.23 0 0020 5.72a1.22 1.22 0 00-1.22 1.22 1 1 0 01-1 1h-2.14zm14.81-1h-4.09v2a1 1 0 01-1 1H14.64a1 1 0 01-1-1v-2H9.55v24.52h20.9z"/></svg>