<svg xmlns="http://www.w3.org/2000/svg" viewBox="0 0 24 24"><path d="M16.14 15.91a.75.75 0 01-.75.75h-2a.75.75 0 010-1.5h2a.74.74 0 01.75.75zm-5.81-1.27l-.94.94-.25-.25a.75.75 0 10-1.06 1.06l.78.78a.73.73 0 00.53.22.74.74 0 00.53-.22l1.47-1.47a.75.75 0 00-1.06-1.06zM13.4 11a.75.75 0 000 1.5h2a.75.75 0 000-1.5zm-3.07-.52l-.94.94-.25-.25a.75.75 0 00-1.06 1.06l.78.78a.73.73 0 00.53.22.74.74 0 00.53-.23l1.47-1.47a.75.75 0 00-1.06-1.06zm8.87-4.85v14.93a.75.75 0 01-.75.75H5.55a.75.75 0 01-.75-.75V5.63a.76.76 0 01.75-.75h2.68v-.2A.76.76 0 019 3.93h1.15A2 2 0 0112 2.69a2 2 0 011.85 1.24H15a.76.76 0 01.75.75v.2h2.68a.76.76 0 01.77.75zm-9.47.94h4.54V5.43h-1a.74.74 0 01-.75-.75.52.52 0 00-.52-.49.5.5 0 00-.52.49.74.74 0 01-.75.75h-1zm8-.19h-1.96v.94a.75.75 0 01-.75.75H9a.75.75 0 01-.75-.75v-.94H6.3v13.43h11.4z"/></svg>