<svg viewBox="0 0 40 40"><path d="M32.77 23.94V17a3.48 3.48 0 10-3.32-5.92l-6-3.7a3.17 3.17 0 00.13-.88 3.49 3.49 0 00-7 0 3.58 3.58 0 00.12.87l-6.13 3.72A3.48 3.48 0 107.23 17v7a3.48 3.48 0 103.35 5.89l6.11 3.63a3.35 3.35 0 00-.12.85 3.49 3.49 0 007 0 3.43 3.43 0 00-.12-.86l6-3.61a3.48 3.48 0 103.34-5.9zm-4.49 3.33a3.5 3.5 0 00.12.86l-6 3.6a3.46 3.46 0 00-4.69 0l-6.1-3.63a3.34 3.34 0 00.11-.84 3.48 3.48 0 00-2.49-3.33V17a3.48 3.48 0 002.49-3.33 3.58 3.58 0 00-.12-.87l6.13-3.72a3.43 3.43 0 004.64 0l6 3.7a3.17 3.17 0 00-.13.88A3.48 3.48 0 0030.77 17v7a3.48 3.48 0 00-2.49 3.27zm3.49-15.1a1.49 1.49 0 11-1.49 1.49 1.52 1.52 0 01.18-.7.18.18 0 00.05-.07v-.07a1.5 1.5 0 011.26-.65zM20.06 5a1.47 1.47 0 011.29 2.21v.08A1.49 1.49 0 1120.06 5zM6.75 13.66a1.49 1.49 0 111.48 1.49 1.49 1.49 0 01-1.48-1.49zm1.48 15.1a1.49 1.49 0 111.49-1.49 1.43 1.43 0 01-.2.73v.05a1.48 1.48 0 01-1.29.71zm11.83 7a1.49 1.49 0 111.49-1.48 1.49 1.49 0 01-1.49 1.51zm11.71-7a1.48 1.48 0 01-1.21-.63v-.11a.34.34 0 00-.08-.09 1.46 1.46 0 01-.16-.66 1.49 1.49 0 111.49 1.49zM26 18a4.31 4.31 0 00-4.31-4.3 4.25 4.25 0 00-3.38 1.66 3.68 3.68 0 00-.66-.06A3.78 3.78 0 0014 18a3.94 3.94 0 002 7.32h8A3.94 3.94 0 0026 18zm-1.93 5.37h-8a1.94 1.94 0 01-.76-3.73 1 1 0 00.6-.8 1.79 1.79 0 011.76-1.57 1.69 1.69 0 01.7.15 1 1 0 001.29-.47 2.3 2.3 0 014.36 1 2.31 2.31 0 01-.05.46 1 1 0 00.69 1.16A1.92 1.92 0 0126 21.38a1.94 1.94 0 01-1.93 1.94z"/></svg>