<svg viewBox="0 0 16 16"><path d="M14 12.29a5.22 5.22 0 00-4-2.88 1.49 1.49 0 01-.4-.09 3.78 3.78 0 00.76-.68A3.37 3.37 0 0011 7.22a1.34 1.34 0 00.24-.12A1.8 1.8 0 0012 5.93a.93.93 0 00-.2-.79 1.08 1.08 0 00-.4-.29 4.29 4.29 0 000-1c0-.22-.07-.4-.1-.54.31-.6.26-.81.23-.9a.49.49 0 00-.15-.23 1 1 0 000-.6c-.18-.46-.7-.28-.89-.21a1.36 1.36 0 01-.43.11l-.28-.08A4.77 4.77 0 007 1.24a2.1 2.1 0 00-1.52 1 .94.94 0 00-.09.42A1.93 1.93 0 004.75 4a4.07 4.07 0 00.08 1.11 1 1 0 00-.48 1.08 1.76 1.76 0 00.83 1.12 1.36 1.36 0 00.25.11 3.25 3.25 0 00.73 1.37 3.15 3.15 0 00.38.35.18.18 0 010 .12.69.69 0 01-.54.15 5.22 5.22 0 00-4 2.88.47.47 0 000 .17v2a.43.43 0 00.43.43h11.16a.43.43 0 00.43-.43v-2a.47.47 0 00-.02-.17zm-8-5.7a.37.37 0 00-.21-.06H5.6a.83.83 0 01-.4-.63h.07a.45.45 0 00.41-.13.42.42 0 00.1-.4A4.42 4.42 0 015.61 4 1 1 0 016 3.23.43.43 0 006.24 3a.42.42 0 000-.33v-.1c0-.05.2-.29.93-.47a3.82 3.82 0 012.34.1 2.46 2.46 0 00.44.12 1.32 1.32 0 00.49 0 .43.43 0 00.06.55h.06l-.08.13a.39.39 0 000 .39 2.31 2.31 0 01.11.54 5.12 5.12 0 01-.11 1.26.45.45 0 00.16.41.42.42 0 00.42.06h.1a.89.89 0 01-.36.66h-.07a.41.41 0 00-.32.07.39.39 0 00-.18.27 2.89 2.89 0 01-.52 1.32 3.35 3.35 0 01-.6.53 1.57 1.57 0 01-1.69.05 3.33 3.33 0 01-.63-.49 2.92 2.92 0 01-.59-1.29.44.44 0 00-.2-.19zm7.17 7.46h-1.4V13a.43.43 0 00-.86 0v1.07H5.1V13a.43.43 0 00-.86 0v1.07h-1.4v-1.51a4.33 4.33 0 013.31-2.29 1.42 1.42 0 001.1-.6s0-.08.06-.11a2.52 2.52 0 00.9.17 2.14 2.14 0 00.5-.06 1.39 1.39 0 001.14.6 4.33 4.33 0 013.31 2.29z"/></svg>