<svg width="24" height="24" viewBox="0 0 24 24" fill="none" xmlns="http://www.w3.org/2000/svg">
<path d="M18.6 16.8L18.09 21.52H5.39999V20.31C9.99999 15.85 13.5 12.1 13.82 7.74999C14.01 5.26999 13.31 3.51999 11.39 3.34999C9.93999 3.21999 8.99999 3.99999 9.12999 5.15999C9.25999 6.31999 8.99999 7.10999 8.49999 7.50999C8.27914 7.68057 8.02409 7.80151 7.75223 7.86453C7.48038 7.92756 7.19813 7.93119 6.92474 7.87519C6.65136 7.81918 6.39327 7.70485 6.1681 7.54001C5.94293 7.37516 5.75598 7.16368 5.61999 6.91999C5.52232 6.54908 5.5057 6.16147 5.57127 5.78356C5.63684 5.40565 5.78307 5.04631 5.99999 4.72999C6.99999 3.15999 8.93999 2.35999 11.42 2.35999C14.8 2.35999 18.12 4.02999 18.01 7.74999C17.87 12.05 13.31 15.58 9.17999 18.75H14.42C16.66 18.75 17.52 18.13 17.96 16.81L18.6 16.8Z" fill="#1D1D1B"/>
</svg>
