<svg width="40" height="40" viewBox="0 0 40 40" fill="none" xmlns="http://www.w3.org/2000/svg">
<path d="M29.79 27.15L29.03 34.15H10.21V32.35C17.02 25.74 22.21 20.18 22.7 13.73C22.98 10.05 21.94 7.43997 19.1 7.19997C16.94 6.99997 15.62 8.07997 15.74 9.88997C15.86 11.7 15.57 12.77 14.81 13.37C13.33 14.53 11.01 13.85 10.53 12.49C10.3827 11.9439 10.3528 11.3727 10.4425 10.8142C10.5321 10.2557 10.7392 9.72256 11.05 9.24997C12.49 6.91997 15.42 5.71997 19.1 5.71997C24.1 5.71997 29.03 8.20997 28.87 13.72C28.67 20.09 21.87 25.33 15.77 30.02H23.54C26.87 30.02 28.15 29.1 28.79 27.14L29.79 27.15Z" fill="#1D1D1B"/>
</svg>
