<svg width="24" height="24" viewBox="0 0 24 24" fill="none" xmlns="http://www.w3.org/2000/svg">
<path d="M18.94 16.14C18.94 19.46 15.73 21.62 11.68 21.62C8.68001 21.62 6.33 20.62 5.5 19.25C5.29211 18.9296 5.15512 18.5684 5.0982 18.1907C5.04129 17.813 5.06577 17.4275 5.17 17.06C5.27866 16.7899 5.45088 16.5499 5.67206 16.3606C5.89323 16.1712 6.15683 16.038 6.44048 15.9722C6.72413 15.9064 7.01945 15.9101 7.30139 15.9828C7.58334 16.0556 7.84357 16.1952 8.06001 16.39C8.87001 17.09 8.47 18.09 8.66 18.79C9.03 20.25 10.14 20.63 11.66 20.63C13.66 20.63 14.87 18.98 14.87 16.28C14.87 13.58 13.63 11.77 10.26 11.77V10.77C12.74 10.48 13.74 9.23 13.74 6.54C13.74 4.7 13.17 3.24 11.47 3.19C11.2184 3.15071 10.9612 3.16947 10.718 3.24484C10.4748 3.3202 10.252 3.45018 10.0668 3.62484C9.88151 3.79949 9.73863 4.0142 9.64906 4.25254C9.55949 4.49089 9.52561 4.74656 9.55 5C9.55 6.18 9.55 6.94 8.93001 7.37C8.70253 7.53852 8.44186 7.65683 8.16526 7.7171C7.88865 7.77737 7.60239 7.77823 7.32543 7.71962C7.04846 7.66102 6.78709 7.54428 6.55861 7.37713C6.33012 7.20998 6.13972 6.99622 6 6.75C5.8948 6.38321 5.87162 5.99776 5.93211 5.62101C5.99259 5.24425 6.13527 4.88543 6.35 4.57C7.25 3.19 9.00001 2.19 11.6 2.19C14.73 2.19 17.6 3.62 17.6 6.54C17.6 8.59 16.17 10.31 13.68 11.12C17.05 11.69 18.94 13.36 18.94 16.14Z" fill="#1D1D1B"/>
</svg>
