<svg width="40" height="40" viewBox="0 0 40 40" fill="none" xmlns="http://www.w3.org/2000/svg">
<path d="M30.13 26.09C30.13 30.94 25.44 34.09 19.53 34.09C15.2 34.09 11.73 32.63 10.53 30.62C10.2156 30.1585 10.0054 29.6342 9.91385 29.0833C9.82233 28.5325 9.85173 27.9683 10 27.43C10.1563 27.0351 10.4057 26.6838 10.7268 26.4058C11.0479 26.1278 11.4313 25.9314 11.8445 25.8333C12.2577 25.7351 12.6885 25.7381 13.1003 25.842C13.5121 25.9459 13.8928 26.1476 14.21 26.43C15.39 27.43 14.8 28.91 15.08 29.93C15.63 32.06 17.25 32.61 19.49 32.61C22.41 32.61 24.18 30.21 24.18 26.27C24.18 22.33 22.37 19.69 17.44 19.69V18.25C21.07 17.82 22.53 16.01 22.53 12.07C22.53 9.38997 21.7 7.25997 19.22 7.17997C18.8506 7.11881 18.4721 7.14314 18.1136 7.25108C17.755 7.35902 17.426 7.5477 17.1518 7.80263C16.8775 8.05756 16.6654 8.37195 16.5316 8.72166C16.3978 9.07137 16.3459 9.44709 16.38 9.81997C16.46 11.55 16.38 12.66 15.47 13.29C15.1439 13.5368 14.7683 13.7102 14.3689 13.7985C13.9696 13.8867 13.5559 13.8877 13.1561 13.8013C12.7564 13.7149 12.38 13.5432 12.0527 13.2978C11.7255 13.0525 11.4551 12.7394 11.26 12.38C11.1095 11.843 11.0772 11.2797 11.1652 10.7291C11.2533 10.1784 11.4596 9.65329 11.77 9.18997C13.03 7.18997 15.59 5.71997 19.37 5.71997C23.94 5.71997 28.16 7.80997 28.16 12.07C28.16 15.07 26.07 17.58 22.45 18.76C27.37 19.59 30.13 22 30.13 26.09Z" fill="#1D1D1B"/>
</svg>
