<svg width="24" height="24" viewBox="0 0 24 24" fill="none" xmlns="http://www.w3.org/2000/svg">
<path d="M18.89 15.24C18.89 18.94 15.89 21.58 11.66 21.58C9.14999 21.58 6.65999 20.83 5.57999 19.21C5.3554 18.8935 5.20697 18.5293 5.14625 18.146C5.08554 17.7626 5.1142 17.3705 5.22999 17C5.33864 16.7299 5.51087 16.4899 5.73204 16.3006C5.95322 16.1112 6.21682 15.978 6.50046 15.9122C6.78411 15.8465 7.07944 15.8501 7.36138 15.9228C7.64332 15.9956 7.90355 16.1352 8.11999 16.33C8.92999 16.97 8.52999 18 8.70999 18.73C8.87555 19.3185 9.24783 19.8276 9.7585 20.1638C10.2692 20.4999 10.8839 20.6406 11.49 20.56C13.6 20.56 14.82 18.27 14.87 15.56C14.87 13.02 13.92 10.78 11.49 10.56C10.8155 10.4861 10.1331 10.5696 9.49637 10.8038C8.8596 11.038 8.28579 11.4167 7.81999 11.91L6.73999 11.58L7.49999 2.42001H18V5.20001H8.52999L8.11999 10.35C9.26383 9.67487 10.5719 9.32881 11.9 9.35001C16 9.33001 18.89 11.59 18.89 15.24Z" fill="#1D1D1B"/>
</svg>
