<svg width="40" height="40" viewBox="0 0 40 40" fill="none" xmlns="http://www.w3.org/2000/svg">
<path d="M30.27 24.83C30.27 30.34 25.84 34.28 19.49 34.28C15.75 34.28 12.05 33.15 10.49 30.74C10.1555 30.2746 9.93422 29.7375 9.84395 29.1716C9.75367 28.6056 9.79683 28.0263 9.97001 27.48C10.1326 27.0789 10.3892 26.7228 10.7183 26.4417C11.0473 26.1605 11.4391 25.9626 11.8606 25.8646C12.2821 25.7665 12.7211 25.7713 13.1404 25.8784C13.5597 25.9855 13.9471 26.1918 14.27 26.48C15.48 27.48 14.87 28.97 15.15 30.06C15.68 31.95 17.15 32.79 19.3 32.79C22.43 32.79 24.25 29.37 24.3 25.27C24.3 21.49 22.89 18.15 19.3 17.87C18.2958 17.7589 17.2794 17.8816 16.3305 18.2286C15.3815 18.5755 14.5257 19.1373 13.83 19.87L12.22 19.39L13.29 5.71997H28.9V9.85997H14.82L14.22 17.55C15.9143 16.5159 17.8652 15.9788 19.85 16C26 16 30.27 19.4 30.27 24.83Z" fill="#1D1D1B"/>
</svg>
