<svg width="24" height="24" viewBox="0 0 24 24" fill="none" xmlns="http://www.w3.org/2000/svg">
<path d="M19.22 15.54C19.11 19.29 16.06 21.72 12.22 21.72C11.2587 21.7664 10.2981 21.6158 9.39718 21.2774C8.49625 20.939 7.67401 20.42 6.98098 19.7523C6.28795 19.0845 5.73875 18.2821 5.36713 17.3944C4.99551 16.5067 4.80931 15.5523 4.81997 14.59C4.46997 6.88 8.11997 2.5 12.82 2.29C15.44 2.18 17.6 3.29 18.33 4.63C18.5416 4.98358 18.6704 5.38047 18.7067 5.79092C18.7431 6.20137 18.6861 6.61473 18.54 7C18.4176 7.2344 18.2436 7.43801 18.0312 7.59553C17.8188 7.75305 17.5734 7.86038 17.3136 7.90947C17.0537 7.95855 16.7862 7.9481 16.5309 7.87892C16.2757 7.80973 16.0395 7.6836 15.84 7.51C15.36 7.1 15.17 6.38 15.25 5.13C15.3 4.13 14.44 3.13 12.55 3.33C10.47 3.59 8.90998 5.7 8.46997 11.61C8.93934 10.9224 9.57298 10.3628 10.3134 9.9821C11.0538 9.60141 11.8776 9.41164 12.71 9.43C16.33 9.39 19.3 11.79 19.22 15.54ZM15.38 15.54C15.38 12.79 14.14 10.54 12.01 10.54C9.87997 10.54 8.57997 12.78 8.57997 15.54C8.57997 18.72 9.98997 20.72 12.01 20.72C14.03 20.72 15.38 18.72 15.38 15.54Z" fill="#1D1D1B"/>
</svg>
