<svg width="40" height="40" viewBox="0 0 40 40" fill="none" xmlns="http://www.w3.org/2000/svg">
<path d="M30.6 25.2C30.44 30.71 25.96 34.28 20.29 34.28C14.35 34.28 9.71 30.39 9.43 23.81C8.92 12.47 14.27 6.04997 21.17 5.72997C25.01 5.56997 28.17 7.19997 29.25 9.17997C29.559 9.68613 29.7517 10.2547 29.8139 10.8444C29.8762 11.4342 29.8065 12.0304 29.61 12.59C29.4328 12.9416 29.177 13.2477 28.8623 13.4843C28.5476 13.7209 28.1825 13.8818 27.7955 13.9544C27.4085 14.0269 27.01 14.0092 26.6309 13.9027C26.2519 13.7961 25.9025 13.6036 25.61 13.34C24.89 12.75 24.61 11.68 24.73 9.85997C24.81 8.30997 23.54 6.85997 20.73 7.19997C17.73 7.59997 15.38 10.69 14.73 19.37C15.4197 18.3592 16.3506 17.5363 17.4384 16.9758C18.5262 16.4154 19.7366 16.1349 20.96 16.16C26.36 16.16 30.72 19.69 30.6 25.2ZM25 25.2C25 21.15 23.18 17.86 20.05 17.86C16.92 17.86 15.05 21.15 15.05 25.2C15.05 29.88 17.11 32.81 20.05 32.81C22.99 32.81 25 29.88 25 25.2Z" fill="#1D1D1B"/>
</svg>
