<svg width="24" height="24" viewBox="0 0 24 24" fill="none" xmlns="http://www.w3.org/2000/svg">
<path d="M18.42 2.42001V3.63001C14.7 7.33001 13.59 14.46 13.42 19.5C13.4405 19.7608 13.4077 20.023 13.3236 20.2708C13.2396 20.5185 13.1061 20.7466 12.9312 20.9411C12.7563 21.1356 12.5436 21.2926 12.3062 21.4024C12.0688 21.5123 11.8115 21.5727 11.55 21.58C11.2852 21.6106 11.0168 21.5819 10.7644 21.4961C10.5119 21.4104 10.2817 21.2696 10.0903 21.0839C9.89896 20.8983 9.75121 20.6724 9.65777 20.4227C9.56432 20.173 9.52752 19.9057 9.55002 19.64C9.74002 15.08 12.55 9.30001 15.81 5.20001H9.81002C7.54002 5.20001 6.70002 5.79001 6.27002 7.14001H5.58002L6.09002 2.42001H18.42Z" fill="#1D1D1B"/>
</svg>
