<svg width="24" height="24" viewBox="0 0 24 24" fill="none" xmlns="http://www.w3.org/2000/svg">
<path d="M19.23 16.75C18.88 19.64 16.05 21.75 12 21.75C8.19 21.75 4.3 19.8 4.76 16.16C5.06 13.7 6.81 12.6 9.16 12.03C5.9 10.41 5.25 8.36 5.92 5.85C6.59 3.34 9.22001 2.28 12 2.28C15.21 2.28 18.18 3.82 18.26 6.41C18.26 8.81 16.94 10.25 14.62 10.92C17.4 12 19.61 13.62 19.23 16.75ZM15.78 17.43C15.78 15.32 13.78 13.97 10.49 12.76C9.8737 13.1003 9.35567 13.5939 8.98602 14.193C8.61637 14.7921 8.40764 15.4765 8.38 16.18C8.11 19.18 10.03 20.72 12.19 20.72C14.35 20.72 15.78 19.5 15.78 17.43ZM13.27 10.25C13.8241 9.81349 14.2631 9.24824 14.5489 8.6034C14.8347 7.95856 14.9587 7.25366 14.91 6.55C14.91 4.66 14.02 3.28 12 3.28C11.5935 3.23107 11.1812 3.2719 10.7922 3.39959C10.4032 3.52729 10.0469 3.73874 9.74844 4.01906C9.45 4.29938 9.21668 4.64174 9.0649 5.02202C8.91313 5.40229 8.8466 5.81122 8.87 6.22C8.87 8.11 10.84 9.14 13.27 10.25Z" fill="#1D1D1B"/>
</svg>
