<svg width="40" height="40" viewBox="0 0 40 40" fill="none" xmlns="http://www.w3.org/2000/svg">
<path d="M30.63 27C30.11 31.24 25.94 34.3 20 34.3C14.4 34.3 8.69001 31.44 9.37001 26.09C9.80001 22.48 12.37 20.85 15.83 20.02C11.03 17.68 10.08 14.67 11.07 11.02C12.06 7.36997 15.91 5.71997 20 5.71997C24.72 5.71997 29.08 7.97997 29.2 11.79C29.28 15.32 27.25 17.42 23.84 18.41C27.93 20 31.18 22.38 30.63 27ZM25.55 28C25.55 24.91 22.55 22.93 17.78 21.14C16.8774 21.6371 16.1181 22.3582 15.5751 23.234C15.0322 24.1097 14.7239 25.1105 14.68 26.14C14.28 30.54 17.1 32.8 20.27 32.8C23.44 32.8 25.55 31 25.55 28ZM21.86 17.42C22.6757 16.7832 23.3228 15.9561 23.7447 15.0112C24.1666 14.0663 24.3504 13.0324 24.28 12C24.28 9.21997 22.97 7.19997 20 7.19997C17.22 7.19997 15.4 8.74997 15.4 11.52C15.4 14.29 18.29 15.8 21.86 17.42Z" fill="#1D1D1B"/>
</svg>
