<svg width="24" height="24" viewBox="0 0 24 24" fill="none" xmlns="http://www.w3.org/2000/svg">
<path d="M11.42 21.71C8.80001 21.87 6.48001 20.71 5.75001 19.33C5.53554 18.9854 5.40245 18.5964 5.36086 18.1927C5.31927 17.789 5.37028 17.3811 5.51001 17C5.62964 16.7633 5.80151 16.5568 6.01263 16.3963C6.22375 16.2358 6.4686 16.1253 6.72867 16.0733C6.98875 16.0213 7.25724 16.0291 7.51387 16.0961C7.77049 16.1631 8.00853 16.2875 8.21001 16.46C8.48311 16.7856 8.67823 17.1692 8.78048 17.5817C8.88273 17.9942 8.88941 18.4245 8.80001 18.84C8.75001 19.89 9.80001 20.91 11.66 20.67C13.77 20.37 15.09 18.13 15.55 12.38C15.0818 13.0695 14.4486 13.631 13.7081 14.0135C12.9676 14.3959 12.1433 14.5873 11.31 14.57C7.72001 14.57 4.75001 12.14 4.84001 8.38999C4.93001 4.63999 7.99001 2.23999 11.84 2.23999C12.791 2.20046 13.7401 2.3553 14.6292 2.69503C15.5183 3.03476 16.3288 3.55224 17.0111 4.21584C17.6934 4.87945 18.2332 5.67524 18.5976 6.55456C18.9619 7.43388 19.1431 8.37827 19.13 9.32999C19.49 17.09 16 21.44 11.42 21.71ZM15.47 8.42999C15.47 5.26999 14 3.24999 12 3.24999C10 3.24999 8.65001 5.24999 8.65001 8.42999C8.65001 11.18 9.86001 13.43 12 13.43C14.14 13.43 15.47 11.18 15.47 8.42999Z" fill="#1D1D1B"/>
</svg>
