<svg width="40" height="40" viewBox="0 0 40 40" fill="none" xmlns="http://www.w3.org/2000/svg">
<path d="M19.15 34.26C15.31 34.49 11.9 32.75 10.83 30.77C10.523 30.2705 10.3314 29.7087 10.2691 29.1257C10.2068 28.5427 10.2755 27.9531 10.47 27.4C10.6434 27.0453 10.8964 26.7355 11.2093 26.4948C11.5223 26.2541 11.8867 26.0891 12.274 26.0126C12.6613 25.9361 13.0611 25.9502 13.442 26.0539C13.823 26.1575 14.1748 26.3478 14.47 26.61C15.15 27.2 15.47 28.27 15.35 30.1C15.27 31.64 16.81 33.1 19.55 32.79C22.64 32.36 24.55 29.06 25.25 20.62C24.5617 21.637 23.6283 22.4641 22.536 23.0252C21.4436 23.5862 20.2275 23.863 19 23.83C13.73 23.83 9.37 20.27 9.49 14.76C9.61 9.25001 14.13 5.76001 19.8 5.76001C25.7 5.76001 30.22 9.61001 30.5 16.19C31 27.48 25.81 33.86 19.15 34.26ZM25.15 14.76C25.15 10.12 23.05 7.15001 20.07 7.15001C17.09 7.15001 15.16 10.15 15.16 14.76C15.16 18.76 16.94 22.09 20.07 22.09C23.2 22.09 25.1 18.8 25.1 14.76H25.15Z" fill="#1D1D1B"/>
</svg>
