<svg id="Ebene_1" data-name="Ebene 1" xmlns="http://www.w3.org/2000/svg" viewBox="0 0 40 40"><defs><style>.cls-1{fill:#010101;}</style></defs><path class="cls-1" d="M31.87,25a6.32,6.32,0,0,1-2.47-5V16.91A9.09,9.09,0,0,0,21,8.12V5.3a1,1,0,0,0-2,0V8.12a9.09,9.09,0,0,0-8.4,8.79V20a6.35,6.35,0,0,1-2.49,5A2.91,2.91,0,0,0,7,27.27a3,3,0,0,0,3.1,3h4.65a5.42,5.42,0,0,0,10.5,0H29.9a3,3,0,0,0,3.1-3A2.9,2.9,0,0,0,31.87,25ZM20,32.3a3.34,3.34,0,0,1-3.16-2.07h6.32A3.34,3.34,0,0,1,20,32.3Zm9.9-4.07H10.1a1,1,0,0,1-1.1-1,.91.91,0,0,1,.35-.7A8.31,8.31,0,0,0,12.6,20V16.91A7.15,7.15,0,0,1,20,10.07a7.15,7.15,0,0,1,7.4,6.84V20a8.31,8.31,0,0,0,3.23,6.53.9.9,0,0,1,.37.71A1,1,0,0,1,29.9,28.23Z"/></svg>