<svg id="Ebene_1" data-name="Ebene 1" xmlns="http://www.w3.org/2000/svg" viewBox="0 0 16 16"><defs><style>.cls-1{fill:#010101;}</style></defs><path class="cls-1" d="M13,10.47A2.7,2.7,0,0,1,12,8.4V7.06A3.9,3.9,0,0,0,8.5,3.25V2.08a.5.5,0,0,0-1,0V3.25A3.9,3.9,0,0,0,4,7.06V8.4a2.68,2.68,0,0,1-1,2.07,1.34,1.34,0,0,0-.49,1,1.36,1.36,0,0,0,1.38,1.34H5.75a2.32,2.32,0,0,0,4.5,0h1.88A1.36,1.36,0,0,0,13.5,11.5,1.32,1.32,0,0,0,13,10.47ZM8,13.58a1.32,1.32,0,0,1-1.2-.74H9.2A1.32,1.32,0,0,1,8,13.58Zm4.13-1.74H3.88a.36.36,0,0,1-.38-.34.33.33,0,0,1,.12-.25A3.65,3.65,0,0,0,5,8.4V7.06A2.94,2.94,0,0,1,8,4.2a2.94,2.94,0,0,1,3,2.86V8.4a3.66,3.66,0,0,0,1.37,2.84.32.32,0,0,1,.13.26A.36.36,0,0,1,12.13,11.84Z"/></svg>