<svg id="Ebene_1" data-name="Ebene 1" xmlns="http://www.w3.org/2000/svg" viewBox="0 0 24 24"><defs><style>.cls-1{fill:#010101;}</style></defs><path class="cls-1" d="M20,16.05a4.6,4.6,0,0,1-1.64-3.52V10.3A6.37,6.37,0,0,0,12.75,4V2a.75.75,0,0,0-1.5,0V4a6.37,6.37,0,0,0-5.6,6.31v2.23A4.6,4.6,0,0,1,4,16.06a2.15,2.15,0,0,0,1.4,3.78h3a3.66,3.66,0,0,0,7.16,0h3a2.15,2.15,0,0,0,2.15-2.15A2.18,2.18,0,0,0,20,16.05Zm-8,5.2a2.15,2.15,0,0,1-2-1.41h4A2.15,2.15,0,0,1,12,21.25Zm6.6-2.91H5.4A.65.65,0,0,1,5,17.2a6.07,6.07,0,0,0,2.18-4.67V10.3a4.85,4.85,0,0,1,9.7,0v2.23A6.11,6.11,0,0,0,19,17.2a.64.64,0,0,1,.23.49A.65.65,0,0,1,18.6,18.34Z"/></svg>