<svg width="24" height="24" viewBox="0 0 24 24" fill="none" xmlns="http://www.w3.org/2000/svg">
<g id="icons/Year of construction/24">
<path id="Vector" d="M21.8184 7.08511L19.3259 4.10334C19.2604 4.02284 19.1801 3.95747 19.0898 3.91131C18.9996 3.86514 18.9013 3.83916 18.8012 3.83498H12.2419H7.87533V3.74553C7.87533 3.54782 7.80128 3.35822 7.66949 3.21842C7.53769 3.07862 7.35894 3.00008 7.17255 3.00008H2.70289C2.61025 2.99875 2.5183 3.01711 2.43247 3.0541C2.34663 3.09109 2.26866 3.14595 2.20314 3.21544C2.13763 3.28493 2.08591 3.36764 2.05104 3.45868C2.01617 3.54973 1.99885 3.64726 2.00011 3.74553V8.48654C2.00011 8.68424 2.07416 8.87385 2.20595 9.01364C2.33775 9.15344 2.5165 9.23198 2.70289 9.23198H7.17255C7.35818 9.22941 7.53553 9.15004 7.6668 9.0108C7.79808 8.87155 7.8729 8.68344 7.87533 8.48654V8.31757H8.25014V19.5091H6.37607C6.18968 19.5091 6.01093 19.5877 5.87913 19.7275C5.74733 19.8673 5.67329 20.0569 5.67329 20.2546C5.67329 20.4523 5.74733 20.6419 5.87913 20.7817C6.01093 20.9215 6.18968 21 6.37607 21H18.923C19.1094 21 19.2881 20.9215 19.4199 20.7817C19.5517 20.6419 19.6257 20.4523 19.6257 20.2546C19.6257 20.0569 19.5517 19.8673 19.4199 19.7275C19.2881 19.5877 19.1094 19.5091 18.923 19.5091H12.4949L12.3825 19.36V8.31757H16.824V10.5638C16.824 10.7615 16.8981 10.9511 17.0299 11.0909C17.1616 11.2307 17.3404 11.3093 17.5268 11.3093C17.834 11.3112 18.1338 11.4097 18.3884 11.5922C18.643 11.7746 18.8409 12.033 18.9572 12.3347C19.0735 12.6363 19.1029 12.9677 19.0419 13.2871C18.9808 13.6065 18.8319 13.8996 18.614 14.1293C18.3961 14.3591 18.1189 14.5152 17.8174 14.5781C17.516 14.6409 17.2037 14.6077 16.92 14.4825C16.6363 14.3574 16.394 14.1459 16.2234 13.8748C16.0529 13.6037 15.9619 13.2851 15.9619 12.9592C15.9619 12.7615 15.8879 12.5719 15.7561 12.4321C15.6243 12.2923 15.4456 12.2137 15.2592 12.2137C15.0728 12.2137 14.894 12.2923 14.7622 12.4321C14.6304 12.5719 14.5564 12.7615 14.5564 12.9592C14.5546 13.5508 14.7099 14.1309 15.0045 14.6332C15.299 15.1355 15.721 15.5398 16.222 15.7996C16.723 16.0595 17.2829 16.1645 17.8375 16.1026C18.3922 16.0407 18.9192 15.8144 19.3583 15.4497C19.7973 15.0849 20.1307 14.5964 20.3203 14.0401C20.5099 13.4838 20.548 12.882 20.4302 12.3038C20.3124 11.7256 20.0436 11.1942 19.6544 10.7705C19.2652 10.3468 18.7714 10.0478 18.2296 9.90785V8.31757H21.2937C21.4298 8.31893 21.5634 8.27832 21.6781 8.20069C21.7929 8.12305 21.884 8.01173 21.9402 7.88025C21.995 7.74951 22.0127 7.60465 21.9911 7.46341C21.9694 7.32218 21.9094 7.19071 21.8184 7.08511ZM6.46977 7.7411H3.40567V4.49097H6.46977V7.7411ZM9.6838 8.31757H11.0613V19.5091H9.6838V8.31757ZM8.98103 6.81675H7.87533V5.34574H18.4826L19.7288 6.81675H8.98103Z" fill="black"/>
</g>
</svg>
