<svg id="Ebene_1" data-name="Ebene 1" xmlns="http://www.w3.org/2000/svg" viewBox="0 0 40 40"><defs><style>.cls-1{fill:#1d1d1c;}</style></defs><path class="cls-1" d="M34,33H31.18V6a1,1,0,0,0-1-1H9.82a1,1,0,0,0-1,1V33H6a1,1,0,0,0,0,2H34a1,1,0,0,0,0-2ZM18.14,33V29H22v4ZM24,33V28a1,1,0,0,0-1-1H17.14a1,1,0,0,0-1,1v5H10.82V7H29.18V33ZM26.84,9.17h-5a1,1,0,0,0-1,1v5a1,1,0,0,0,1,1h5a1,1,0,0,0,1-1v-5A1,1,0,0,0,26.84,9.17Zm-1,5h-3v-3h3Zm-7.52-5h-5a1,1,0,0,0-1,1v5a1,1,0,0,0,1,1h5a1,1,0,0,0,1-1v-5A1,1,0,0,0,18.32,9.17Zm-1,5h-3v-3h3Zm9.52,3.13h-5a1,1,0,0,0-1,1v5a1,1,0,0,0,1,1h5a1,1,0,0,0,1-1v-5A1,1,0,0,0,26.84,17.3Zm-1,5h-3v-3h3Zm-7.52-5h-5a1,1,0,0,0-1,1v5a1,1,0,0,0,1,1h5a1,1,0,0,0,1-1v-5A1,1,0,0,0,18.32,17.3Zm-1,5h-3v-3h3Z"/></svg>