<svg width="40" height="40" viewBox="0 0 40 40" fill="none" xmlns="http://www.w3.org/2000/svg">
<g id="icons/Year of construction/40">
<path id="Vector" d="M36.364 11.8085L32.2098 6.8389C32.1008 6.70473 31.9668 6.59579 31.8164 6.51885C31.6659 6.4419 31.5022 6.3986 31.3353 6.39163H20.4032H13.1256V6.24254C13.1256 5.91304 13.0022 5.59703 12.7825 5.36403C12.5628 5.13104 12.2649 5.00014 11.9543 5.00014H4.50483C4.35043 4.99791 4.19718 5.02852 4.05412 5.09017C3.91106 5.15182 3.7811 5.24325 3.67192 5.35907C3.56273 5.47488 3.47653 5.61273 3.41841 5.76447C3.36029 5.91621 3.33143 6.07877 3.33353 6.24254V14.1442C3.33353 14.4737 3.45694 14.7897 3.6766 15.0227C3.89626 15.2557 4.19418 15.3866 4.50483 15.3866H11.9543C12.2636 15.3823 12.5592 15.2501 12.778 15.018C12.9968 14.7859 13.1215 14.4724 13.1256 14.1442V13.8626H13.7502V32.5152H10.6268C10.3161 32.5152 10.0182 32.6461 9.79856 32.8791C9.5789 33.1121 9.4555 33.4281 9.4555 33.7576C9.4555 34.0871 9.5789 34.4031 9.79856 34.6361C10.0182 34.8691 10.3161 35 10.6268 35H31.5383C31.8489 35 32.1469 34.8691 32.3665 34.6361C32.5862 34.4031 32.7096 34.0871 32.7096 33.7576C32.7096 33.4281 32.5862 33.1121 32.3665 32.8791C32.1469 32.6461 31.8489 32.5152 31.5383 32.5152H20.8249L20.6375 32.2667V13.8626H28.04V17.6064C28.04 17.9359 28.1634 18.2519 28.3831 18.4849C28.6028 18.7179 28.9007 18.8488 29.2113 18.8488C29.7234 18.8521 30.2231 19.0161 30.6473 19.3203C31.0716 19.6244 31.4015 20.055 31.5953 20.5578C31.7891 21.0605 31.8382 21.6129 31.7364 22.1452C31.6347 22.6775 31.3865 23.166 31.0233 23.5489C30.6602 23.9318 30.1982 24.192 29.6958 24.2968C29.1933 24.4016 28.6728 24.3462 28.2 24.1376C27.7272 23.929 27.3233 23.5765 27.0391 23.1247C26.7549 22.6728 26.6033 22.1418 26.6032 21.5987C26.6032 21.2691 26.4798 20.9531 26.2602 20.7201C26.0405 20.4871 25.7426 20.3562 25.432 20.3562C25.1213 20.3562 24.8234 20.4871 24.6037 20.7201C24.3841 20.9531 24.2607 21.2691 24.2607 21.5987C24.2577 22.5846 24.5165 23.5515 25.0075 24.3887C25.4984 25.2259 26.2016 25.8996 27.0366 26.3327C27.8717 26.7658 28.8048 26.9408 29.7292 26.8376C30.6536 26.7345 31.532 26.3574 32.2638 25.7495C32.9956 25.1415 33.5513 24.3274 33.8672 23.4002C34.1832 22.4729 34.2466 21.4701 34.0503 20.5063C33.8541 19.5426 33.406 18.657 32.7573 17.9508C32.1087 17.2446 31.2857 16.7463 30.3826 16.5131V13.8626H35.4895C35.7163 13.8649 35.9389 13.7972 36.1302 13.6678C36.3215 13.5384 36.4733 13.3529 36.5671 13.1337C36.6584 12.9158 36.6879 12.6744 36.6518 12.439C36.6157 12.2036 36.5157 11.9845 36.364 11.8085ZM10.783 12.9018H5.67612V7.48495H10.783V12.9018ZM16.1397 13.8626H18.4354V32.5152H16.1397V13.8626ZM14.9684 11.3612H13.1256V8.90957H30.8043L32.8814 11.3612H14.9684Z" fill="black"/>
</g>
</svg>
