<svg id="Ebene_1" data-name="Ebene 1" xmlns="http://www.w3.org/2000/svg" viewBox="0 0 16 16"><defs><style>.cls-1{fill:#1d1d1c;}</style></defs><path class="cls-1" d="M13.81,13.5h-.9V2a.5.5,0,0,0-.5-.5H3.59a.5.5,0,0,0-.5.5V13.5h-.9a.5.5,0,0,0,0,1H13.81a.5.5,0,1,0,0-1Zm-6.25,0V12.07h.93V13.5Zm1.93,0V11.57a.5.5,0,0,0-.5-.5H7.06a.51.51,0,0,0-.5.5V13.5H4.09V2.5h7.82v11Zm1.13-7.95H8.81a.5.5,0,0,0-.5.5V7.91a.5.5,0,0,0,.5.5h1.81a.5.5,0,0,0,.5-.5V6.05A.5.5,0,0,0,10.62,5.55Zm-.5,1.86H9.31V6.55h.81ZM7.19,5.55H5.38a.5.5,0,0,0-.5.5V7.91a.5.5,0,0,0,.5.5H7.19a.5.5,0,0,0,.5-.5V6.05A.5.5,0,0,0,7.19,5.55Zm-.5,1.86H5.88V6.55h.81Z"/></svg>