<svg width="16" height="16" viewBox="0 0 16 16" fill="none" xmlns="http://www.w3.org/2000/svg">
<g id="icons/Year of construction/16">
<path id="Vector" d="M14.5456 4.72341L12.8839 2.73556C12.8403 2.68189 12.7867 2.63832 12.7266 2.60754C12.6664 2.57676 12.6009 2.55944 12.5341 2.55665H8.16128H5.25023V2.49702C5.25023 2.36521 5.20087 2.23881 5.113 2.14561C5.02514 2.05241 4.90597 2.00006 4.78171 2.00006H1.80194C1.74018 1.99916 1.67888 2.01141 1.62165 2.03607C1.56443 2.06073 1.51245 2.0973 1.46877 2.14363C1.4251 2.18995 1.39062 2.24509 1.36737 2.30579C1.34412 2.36649 1.33258 2.43151 1.33342 2.49702V5.65769C1.33342 5.78949 1.38278 5.9159 1.47065 6.0091C1.55851 6.10229 1.67768 6.15465 1.80194 6.15465H4.78171C4.90547 6.15294 5.0237 6.10003 5.11121 6.0072C5.19873 5.91437 5.24861 5.78896 5.25023 5.65769V5.54505H5.5001V13.0061H4.25072C4.12646 13.0061 4.00729 13.0584 3.91943 13.1516C3.83157 13.2448 3.78221 13.3712 3.78221 13.503C3.78221 13.6349 3.83157 13.7613 3.91943 13.8545C4.00729 13.9477 4.12646 14 4.25072 14H12.6153C12.7396 14 12.8588 13.9477 12.9466 13.8545C13.0345 13.7613 13.0838 13.6349 13.0838 13.503C13.0838 13.3712 13.0345 13.2448 12.9466 13.1516C12.8588 13.0584 12.7396 13.0061 12.6153 13.0061H8.32995L8.25499 12.9067V5.54505H11.216V7.04256C11.216 7.17436 11.2654 7.30076 11.3532 7.39396C11.4411 7.48716 11.5603 7.53952 11.6845 7.53952C11.8894 7.54083 12.0892 7.60645 12.2589 7.7281C12.4287 7.84976 12.5606 8.022 12.6381 8.2231C12.7157 8.4242 12.7353 8.64515 12.6946 8.85808C12.6539 9.07101 12.5546 9.26638 12.4093 9.41955C12.2641 9.57271 12.0793 9.67682 11.8783 9.71873C11.6773 9.76063 11.4691 9.73847 11.28 9.65502C11.0909 9.57158 10.9293 9.4306 10.8156 9.24986C10.702 9.06912 10.6413 8.85672 10.6413 8.63946C10.6413 8.50766 10.5919 8.38125 10.5041 8.28806C10.4162 8.19486 10.297 8.1425 10.1728 8.1425C10.0485 8.1425 9.92936 8.19486 9.84149 8.28806C9.75363 8.38125 9.70427 8.50766 9.70427 8.63946C9.7031 9.03384 9.80662 9.42059 10.003 9.75548C10.1994 10.0904 10.4807 10.3598 10.8147 10.5331C11.1487 10.7063 11.5219 10.7763 11.8917 10.735C12.2615 10.6938 12.6128 10.5429 12.9055 10.2998C13.1982 10.0566 13.4205 9.73096 13.5469 9.36006C13.6733 8.98917 13.6987 8.58802 13.6201 8.20254C13.5416 7.81706 13.3624 7.4628 13.1029 7.18032C12.8435 6.89784 12.5143 6.69854 12.1531 6.60523V5.54505H14.1958C14.2865 5.54595 14.3756 5.51888 14.4521 5.46713C14.5286 5.41537 14.5893 5.34115 14.6268 5.2535C14.6634 5.16634 14.6751 5.06976 14.6607 4.97561C14.6463 4.88145 14.6063 4.79381 14.5456 4.72341ZM4.31319 5.16073H2.27046V2.99398H4.31319V5.16073ZM6.45588 5.54505H7.37418V13.0061H6.45588V5.54505ZM5.98736 4.5445H5.25023V3.56383H12.3217L13.1526 4.5445H5.98736Z" fill="black"/>
</g>
</svg>
