<svg id="Ebene_1" data-name="Ebene 1" xmlns="http://www.w3.org/2000/svg" viewBox="0 0 16 16"><defs><style>.cls-1{fill:#010101;}</style></defs><path class="cls-1" d="M13.76,11.26,12.24,9.73l.57-.57A.83.83,0,0,0,13,8.4a.78.78,0,0,0-.53-.57L7,6A.8.8,0,0,0,6,7L7.83,12.5a.79.79,0,0,0,1.32.31l.58-.57,1.52,1.52a.82.82,0,0,0,.57.24.76.76,0,0,0,.57-.24l1.37-1.37A.79.79,0,0,0,13.76,11.26ZM11.82,13l-2.09-2.1L8.65,12,7,7l5,1.66L10.88,9.73l2.1,2.1ZM6.21,5.07V2.48a.48.48,0,1,1,1,0V5.07a.48.48,0,1,1-1,0Zm-2.84-1a.48.48,0,0,1,.68-.68L5.88,5.2a.48.48,0,0,1,0,.68A.49.49,0,0,1,5.54,6a.51.51,0,0,1-.34-.14ZM5,7.16H2.48a.48.48,0,1,1,0-1H5a.48.48,0,1,1,0,1Zm.87.33a.48.48,0,0,1,0,.68L4.05,10a.49.49,0,0,1-.34.14A.51.51,0,0,1,3.37,10a.5.5,0,0,1,0-.68L5.2,7.49A.48.48,0,0,1,5.88,7.49ZM7.49,5.88a.48.48,0,0,1,0-.68L9.32,3.37a.48.48,0,0,1,.68.68L8.17,5.88A.51.51,0,0,1,7.83,6,.49.49,0,0,1,7.49,5.88Z"/></svg>