<svg id="Ebene_1" data-name="Ebene 1" xmlns="http://www.w3.org/2000/svg" viewBox="0 0 24 24"><defs><style>.cls-1{fill:#010101;}</style></defs><path class="cls-1" d="M20.65,16.86l-2.29-2.29.86-.85a1.23,1.23,0,0,0,.32-1.14,1.2,1.2,0,0,0-.79-.87L10.52,9a1.23,1.23,0,0,0-1.24.29A1.19,1.19,0,0,0,9,10.5l2.74,8.23a1.18,1.18,0,0,0,.87.79,1.2,1.2,0,0,0,1.14-.32l.85-.86,2.29,2.28a1.18,1.18,0,0,0,.85.36,1.24,1.24,0,0,0,.86-.35l2.06-2.06A1.21,1.21,0,0,0,20.65,16.86Zm-2.92,2.57-3.14-3.14L13,17.9l-2.46-7.4L17.92,13l-1.61,1.61,3.14,3.14ZM9.3,7.58V3.71A.73.73,0,0,1,10,3a.73.73,0,0,1,.72.73V7.58a.73.73,0,0,1-.72.73A.73.73,0,0,1,9.3,7.58ZM5.06,6.07a.72.72,0,0,1,1-1L8.83,7.78A.73.73,0,0,1,8.31,9a.73.73,0,0,1-.51-.21Zm2.46,4.66H3.72A.72.72,0,0,1,3,10a.73.73,0,0,1,.72-.73h3.8a.73.73,0,0,1,.73.73A.73.73,0,0,1,7.52,10.73Zm1.31.48a.74.74,0,0,1,0,1L6.08,15a.72.72,0,0,1-1,0,.72.72,0,0,1,0-1L7.8,11.21A.74.74,0,0,1,8.83,11.21Zm2.4-2.4a.74.74,0,0,1,0-1L14,5a.73.73,0,0,1,1,1L12.26,8.81a.75.75,0,0,1-.52.21A.73.73,0,0,1,11.23,8.81Z"/></svg>