<svg viewBox="0 0 40 40" xmlns="http://www.w3.org/2000/svg"><path d="m35.43 28.85-4.29-4.29 1.72-1.72a1.94 1.94 0 0 0 -.76-3.22l-14.85-5a1.94 1.94 0 0 0 -2.45 2.46l4.95 14.92a1.93 1.93 0 0 0 3.21.76l1.72-1.76 4.32 4.31a1.94 1.94 0 0 0 1.38.57 1.9 1.9 0 0 0 1.37-.57l3.71-3.71a1.94 1.94 0 0 0 -.03-2.75zm-5.08 4.82-5.67-5.67-3 3-4.74-14.18 14.19 4.73-3 3 5.67 5.66zm-13.91-20.67a1.07 1.07 0 0 0 1.07-1v-7a1.07 1.07 0 0 0 -2.14 0v7a1.07 1.07 0 0 0 1.07 1zm-7.29-5.48a1.07 1.07 0 1 0 -1.51 1.48l5 5a1.07 1.07 0 0 0 .76.31 1.07 1.07 0 0 0 .75-1.82zm3.85 8.8a1.06 1.06 0 0 0 -1.06-1.07h-6.87a1.07 1.07 0 0 0 0 2.14h6.85a1.06 1.06 0 0 0 1.08-1.07zm-.41 2.34-4.95 4.95a1.07 1.07 0 0 0 .76 1.82 1.05 1.05 0 0 0 .75-.31l4.95-4.95a1.07 1.07 0 1 0 -1.51-1.51zm6.95-4.37a1.05 1.05 0 0 0 .75-.31l4.95-5a1.06 1.06 0 0 0 0-1.51 1.08 1.08 0 0 0 -1.51 0l-4.95 5a1.07 1.07 0 0 0 .76 1.82z"/></svg>