<svg xmlns="http://www.w3.org/2000/svg" width="24" height="24" fill="none">
	<path fill="#000"
		  d="M15.125 20.65c-1.85 0-3.52-.53-5.012-1.588-1.492-1.058-2.555-2.495-3.188-4.312h-2.8a.74.74 0 0 1-.525-.213.706.706 0 0 1-.225-.537.71.71 0 0 1 .225-.538.741.741 0 0 1 .525-.212h2.45a2.696 2.696 0 0 1-.087-.613 16.561 16.561 0 0 1 0-1.25c.008-.208.037-.42.087-.637h-2.45a.74.74 0 0 1-.525-.213.706.706 0 0 1-.225-.537.71.71 0 0 1 .225-.538.741.741 0 0 1 .525-.212h2.8a8.636 8.636 0 0 1 3.137-4.263c1.492-1.091 3.18-1.637 5.063-1.637.883 0 1.708.112 2.475.337.767.225 1.5.563 2.2 1.013.233.15.358.358.375.625a.95.95 0 0 1-.275.725.97.97 0 0 1-.55.237.986.986 0 0 1-.625-.137 7.8 7.8 0 0 0-1.737-.738 6.722 6.722 0 0 0-1.863-.262c-1.433 0-2.704.387-3.813 1.162C10.204 7.087 9.4 8.067 8.9 9.25h5.225c.217 0 .396.07.538.212a.731.731 0 0 1 .212.538.728.728 0 0 1-.75.75h-5.7c-.05.217-.083.429-.1.637A7.697 7.697 0 0 0 8.3 12c0 .2.013.412.038.637.025.225.054.43.087.613h5.7a.73.73 0 0 1 .538.212.731.731 0 0 1 .212.538.728.728 0 0 1-.75.75H8.9c.55 1.3 1.392 2.308 2.525 3.025a6.791 6.791 0 0 0 3.7 1.075c.617 0 1.238-.088 1.863-.263a6.723 6.723 0 0 0 1.712-.737c.2-.117.412-.167.637-.15a.81.81 0 0 1 .563.275c.217.2.313.433.288.7a.82.82 0 0 1-.363.625c-.733.45-1.48.787-2.238 1.012a8.607 8.607 0 0 1-2.462.338Z"/>
</svg>
