<svg id="Ebene_1" data-name="Ebene 1" xmlns="http://www.w3.org/2000/svg" viewBox="0 0 24 24"><defs><style>.cls-1{fill:#010101;}</style></defs><path class="cls-1" d="M2.77,6.35H9.56a2.55,2.55,0,0,0,4.88,0h6.79a.77.77,0,0,0,0-1.54H14.44a2.55,2.55,0,0,0-4.88,0H2.77a.77.77,0,1,0,0,1.54ZM12,4.55a1,1,0,1,1-1,1A1,1,0,0,1,12,4.55Zm9.23,6.68H18.82a2.54,2.54,0,0,0-4.87,0H2.77a.77.77,0,0,0,0,1.54H14a2.54,2.54,0,0,0,4.87,0h2.41a.77.77,0,1,0,0-1.54ZM16.39,13a1,1,0,0,1,0-2.08,1,1,0,0,1,0,2.08Zm4.84,4.61H10.09a2.54,2.54,0,0,0-4.87,0H2.77a.77.77,0,0,0,0,1.54H5.22a2.54,2.54,0,0,0,4.87,0H21.23a.77.77,0,1,0,0-1.54ZM7.66,19.46a1,1,0,1,1,1-1A1,1,0,0,1,7.66,19.46Z"/></svg>