<svg id="Ebene_1" data-name="Ebene 1" xmlns="http://www.w3.org/2000/svg" viewBox="0 0 16 16"><defs><style>.cls-1{fill:#010101;}</style></defs><path class="cls-1" d="M2.55,3.68H6.46a1.65,1.65,0,0,0,3.08,0h3.91A.53.53,0,0,0,14,3.16a.54.54,0,0,0-.55-.53H9.54a1.65,1.65,0,0,0-3.08,0H2.55A.54.54,0,0,0,2,3.16.53.53,0,0,0,2.55,3.68ZM8,2.63a.54.54,0,0,1,.55.53.55.55,0,0,1-1.1,0A.54.54,0,0,1,8,2.63Zm5.45,4.92H12a1.63,1.63,0,0,0-1.54-1.06A1.65,1.65,0,0,0,8.93,7.55H2.55a.53.53,0,1,0,0,1.06H8.94a1.65,1.65,0,0,0,3.07,0h1.44a.53.53,0,1,0,0-1.06Zm-3,1a.54.54,0,0,1-.54-.53.53.53,0,0,1,.54-.52.54.54,0,0,1,.55.52A.54.54,0,0,1,10.47,8.6Zm3,3.88H7a1.65,1.65,0,0,0-3.08,0H2.55A.53.53,0,0,0,2,13a.54.54,0,0,0,.55.53H3.92a1.65,1.65,0,0,0,3.08,0h6.45A.54.54,0,0,0,14,13,.53.53,0,0,0,13.45,12.48Zm-8,1A.54.54,0,0,1,4.92,13a.53.53,0,0,1,.54-.52A.54.54,0,0,1,6,13,.54.54,0,0,1,5.46,13.53Z"/></svg>