<svg id="Ebene_1" data-name="Ebene 1" xmlns="http://www.w3.org/2000/svg" viewBox="0 0 40 40"><defs><style>.cls-1{fill:#010101;}</style></defs><path class="cls-1" d="M8,12.48h8.83a3.29,3.29,0,0,0,6.34,0H32a1,1,0,0,0,0-2.07H23.17a3.29,3.29,0,0,0-6.34,0H8a1,1,0,0,0,0,2.07Zm12-2.42a1.38,1.38,0,1,1-1.34,1.38A1.36,1.36,0,0,1,20,10.06ZM32,19H28.87a3.29,3.29,0,0,0-6.34,0H8A1,1,0,0,0,8,21H22.53a3.29,3.29,0,0,0,6.34,0H32A1,1,0,0,0,32,19Zm-6.3,2.41A1.38,1.38,0,1,1,27,20,1.36,1.36,0,0,1,25.7,21.38ZM32,27.53H17.52a3.29,3.29,0,0,0-6.34,0H8a1,1,0,0,0,0,2.06h3.18a3.29,3.29,0,0,0,6.34,0H32a1,1,0,0,0,0-2.06ZM14.35,29.94a1.38,1.38,0,1,1,1.34-1.38A1.36,1.36,0,0,1,14.35,29.94Z"/></svg>