<svg id="Ebene_1" data-name="Ebene 1" xmlns="http://www.w3.org/2000/svg" viewBox="0 0 16 16"><path d="M13.92,5.82,12,3.15a.36.36,0,0,0-.5-.09l-1.23.82H8.63a.22.22,0,0,0-.11,0l-1.24.37L6,3.91,4.75,3.06a.36.36,0,0,0-.5.09L2.08,6a.4.4,0,0,0,0,.53l1.11,1,1,1.35a1,1,0,0,0,.09,1.28,1,1,0,0,0,.45.27h0a1,1,0,0,0,.27.7,1,1,0,0,0,.55.28,1,1,0,0,0,.27.58.93.93,0,0,0,.68.3h0a1,1,0,0,0,.25.46.92.92,0,0,0,.68.29,1,1,0,0,0,.68-.29l0,0a1,1,0,0,0,1.29-.07A1,1,0,0,0,9.71,12a.86.86,0,0,0,.55-.28,1,1,0,0,0,.27-.58.91.91,0,0,0,.56-.28,1,1,0,0,0,.27-.58,1,1,0,0,0,.55-.28,1,1,0,0,0,.17-1.17l.7-1.54,1.09-1A.39.39,0,0,0,13.92,5.82ZM13.11,6l-.59.54L10.89,4.36l.69-.46ZM9.33,7.8a.39.39,0,0,0-.27.11.4.4,0,0,0,0,.54L10.55,10h0a.24.24,0,0,1,0,.31.19.19,0,0,1-.28,0l-1-1.06A.39.39,0,0,0,9,9.18H9a.39.39,0,0,0-.27.11.4.4,0,0,0,0,.54l1,1.06a.24.24,0,0,1,0,.32.21.21,0,0,1-.29,0l-.54-.57a.36.36,0,0,0-.27-.12h0a.39.39,0,0,0-.27.11.41.41,0,0,0-.11.25A1.08,1.08,0,0,0,8,10.76,1,1,0,0,0,7.75,10a.94.94,0,0,0-.57-.3,1,1,0,0,0-.25-.56.93.93,0,0,0-.68-.32H6.17a1,1,0,0,0-.29-.46.87.87,0,0,0-.61-.24.89.89,0,0,0-.53.15L4,7.24,6,4.7l.41.12-.8,1.47A1,1,0,0,0,5.52,7a1,1,0,0,0,.45.6l.07,0h0a.2.2,0,0,0,.08,0,1,1,0,0,0,.57,0,1,1,0,0,0,.58-.48l.53-1,.87.06,2.69,2.82a.22.22,0,0,1,0,.32h0a.19.19,0,0,1-.3,0L9.6,7.91a.39.39,0,0,0-.27-.11Zm-.68,3.69.25.26a.22.22,0,0,1,0,.32.19.19,0,0,1-.28,0h0a.14.14,0,0,1,0-.06,1,1,0,0,0,0-.43A.29.29,0,0,0,8.65,11.49ZM4.83,9.57a.24.24,0,0,1,0-.32l.3-.31a.2.2,0,0,1,.13,0A.17.17,0,0,1,5.4,9a.24.24,0,0,1,0,.32l-.27.28A.21.21,0,0,1,4.83,9.57Zm.72.66.54-.57a.22.22,0,0,1,.15-.06.11.11,0,0,1,.08,0,.23.23,0,0,1,.12.23.27.27,0,0,1-.07.14l-.53.56a.21.21,0,0,1-.29,0h0a.25.25,0,0,1-.06-.16A.23.23,0,0,1,5.55,10.23Zm.82.86.54-.57a.2.2,0,0,1,.15-.06.19.19,0,0,1,.1,0,.23.23,0,0,1,.1.23.27.27,0,0,1-.07.13l-.53.56a.21.21,0,0,1-.29,0,.24.24,0,0,1,0-.32Zm.93.76.3-.31.06,0h.07a.27.27,0,0,1,.16.08.26.26,0,0,1,0,.31l-.27.29a.22.22,0,0,1-.29,0A.24.24,0,0,1,7.3,11.85ZM9.1,5.69a.33.33,0,0,0-.22-.09L7.62,5.5h0a.37.37,0,0,0-.33.2L6.62,6.89A.19.19,0,0,1,6.5,7a.18.18,0,0,1-.16,0,.21.21,0,0,1-.09-.13.2.2,0,0,1,0-.17L7.1,5.13l1.58-.48h1.48L12,7.14l-.5,1.09ZM5.31,4.35,3.48,6.68l-.59-.53L4.63,3.9Z"/></svg>