<svg id="Ebene_1" data-name="Ebene 1" xmlns="http://www.w3.org/2000/svg" viewBox="0 0 24 24"><path d="M21.12,8.92l-3-3.74a.53.53,0,0,0-.69-.12L15.6,6.22H13.17a.39.39,0,0,0-.15,0l-1.87.53L9.22,6.25,7.3,5.06a.54.54,0,0,0-.69.11L3.34,9.12a.5.5,0,0,0,.07.71l1.68,1.41,1.46,1.9a1.35,1.35,0,0,0,.12,1.8,1.45,1.45,0,0,0,.68.36v0a1.32,1.32,0,0,0,.41,1,1.35,1.35,0,0,0,.83.39,1.33,1.33,0,0,0,.4.83,1.37,1.37,0,0,0,1,.4,1.25,1.25,0,0,0,.37.66,1.4,1.4,0,0,0,1,.4,1.38,1.38,0,0,0,1-.4l.07-.07a1.46,1.46,0,0,0,1.91-.06,1.33,1.33,0,0,0,.4-.82,1.46,1.46,0,0,0,.84-.39,1.4,1.4,0,0,0,.41-.82,1.43,1.43,0,0,0,.83-.39,1.4,1.4,0,0,0,.41-.82,1.44,1.44,0,0,0,.84-.4,1.34,1.34,0,0,0,.23-1.62L19.39,11,21,9.62A.5.5,0,0,0,21.12,8.92ZM20,9.16,19,10l-2.5-3.11,1.09-.67Zm-6.12,2.71a.51.51,0,0,0,0,.73l2.25,2.22a.33.33,0,0,1,0,.48.36.36,0,0,1-.49,0L14.1,13.82a.53.53,0,0,0-.74,0,.5.5,0,0,0,0,.72L14.86,16a.33.33,0,0,1,0,.48.32.32,0,0,1-.25.1.35.35,0,0,1-.25-.1l-.82-.81a.54.54,0,0,0-.37-.15h0a.51.51,0,0,0-.37.15.48.48,0,0,0-.15.36v0l-.05,0a1.4,1.4,0,0,0-.41-.19A1.35,1.35,0,0,0,11,14.4a1.37,1.37,0,0,0-.36-.8,1.45,1.45,0,0,0-1-.43H9.43A1.27,1.27,0,0,0,9,12.52a1.38,1.38,0,0,0-.89-.33,1.53,1.53,0,0,0-.81.23l-1.14-1.5,3-3.61.68.18L8.66,9.59a1.35,1.35,0,0,0,.53,1.86l.1.05.14.05a1.38,1.38,0,0,0,.83,0,1.4,1.4,0,0,0,.84-.64l.81-1.4,1.37.1,4.06,4a.34.34,0,0,1,0,.49.38.38,0,0,1-.52,0L14.6,11.88A.53.53,0,0,0,13.86,11.87ZM13.2,17a2.5,2.5,0,0,0-.07-.26l.45.44,0,0a.33.33,0,0,1,0,.48.35.35,0,0,1-.5,0h0l0-.1A1.36,1.36,0,0,0,13.2,17Zm-5.78-2.8a.34.34,0,0,1,0-.49l.44-.43a.44.44,0,0,1,.23-.08.33.33,0,0,1,.25.11.35.35,0,0,1,0,.49l-.41.4a.31.31,0,0,1-.24.1h0A.31.31,0,0,1,7.42,14.21Zm1.08.88.82-.79a.35.35,0,0,1,.25-.1l.15,0a.34.34,0,0,1,.19.35.33.33,0,0,1-.11.21l-.8.79a.37.37,0,0,1-.5,0h0a.33.33,0,0,1-.1-.24A.37.37,0,0,1,8.5,15.09Zm1.24,1.22.81-.8a.36.36,0,0,1,.43,0,.32.32,0,0,1,.16.34A.35.35,0,0,1,11,16l-.81.79a.38.38,0,0,1-.49,0,.36.36,0,0,1-.11-.25A.32.32,0,0,1,9.74,16.31Zm1.4,1.06.45-.43a.33.33,0,0,1,.16-.07h.07a.38.38,0,0,1,.27.13.35.35,0,0,1,0,.47l-.41.4a.37.37,0,0,1-.5,0A.36.36,0,0,1,11.14,17.37Zm2.74-8.59,0,0a.5.5,0,0,0-.29-.12L11.66,8.5h0a.53.53,0,0,0-.46.26l-1,1.67a.34.34,0,0,1-.21.16.32.32,0,0,1-.27,0,.36.36,0,0,1-.17-.21.35.35,0,0,1,0-.26l1.26-2.17,2.4-.68h2.27l2.84,3.52-.79,1.61ZM8.22,6.85,5.43,10.17l-.95-.8,2.65-3.2Z"/></svg>