<svg id="Ebene_1" data-name="Ebene 1" xmlns="http://www.w3.org/2000/svg" viewBox="0 0 40 40"><path d="M35.82,14.86,30.54,8.42a.89.89,0,0,0-1.14-.19l-3.34,2H21.68a.7.7,0,0,0-.23,0l-3.38.91-3.47-.89L11.16,8.23A.9.9,0,0,0,10,8.4L4.2,15.2a.79.79,0,0,0-.2.6.82.82,0,0,0,.31.56l3,2.43,2.61,3.32a2.22,2.22,0,0,0,.2,3,2.45,2.45,0,0,0,1.23.62.41.41,0,0,0,0,.11,2.22,2.22,0,0,0,.72,1.63,2.46,2.46,0,0,0,1.5.66,2.22,2.22,0,0,0,.7,1.44,2.48,2.48,0,0,0,1.85.66,2.24,2.24,0,0,0,.67,1.16,2.52,2.52,0,0,0,3.42,0l.18-.17a2.59,2.59,0,0,0,3.36-.06,2.21,2.21,0,0,0,.71-1.42A2.57,2.57,0,0,0,26,29.12a2.29,2.29,0,0,0,.7-1.43A2.42,2.42,0,0,0,28.19,27a2.23,2.23,0,0,0,.71-1.42A2.54,2.54,0,0,0,30.41,25a2.24,2.24,0,0,0,.4-2.77l1.91-3.77,3-2.41A.8.8,0,0,0,35.82,14.86Zm-1.88.4-1.79,1.45-4.56-5.45L29.66,10ZM23,20a.8.8,0,0,0-.26.59.83.83,0,0,0,.25.59l3.94,3.74v.05l.1,0a.6.6,0,0,1,.18.43.61.61,0,0,1-.2.45.76.76,0,0,1-1,0L23.29,23.3a.89.89,0,0,0-1.21,0,.81.81,0,0,0,0,1.18L24.7,27l.06.06a.65.65,0,0,1,.2.46.61.61,0,0,1-.2.45.74.74,0,0,1-1,0L22.3,26.55a.89.89,0,0,0-.61-.24.88.88,0,0,0-.61.23.83.83,0,0,0-.26.59.62.62,0,0,0,0,.23l-.23-.17a2.76,2.76,0,0,0-.77-.33A2.25,2.25,0,0,0,19.22,25a2.48,2.48,0,0,0-1.56-.71A2.18,2.18,0,0,0,17,22.92a2.48,2.48,0,0,0-1.72-.71H15a2.33,2.33,0,0,0-.76-1.15,2.41,2.41,0,0,0-1.55-.55h0a2.49,2.49,0,0,0-1.41.43L9.08,18.27,14.56,12l1.35.35L13.7,16a2.22,2.22,0,0,0-.23,1.76,2.31,2.31,0,0,0,1.15,1.38l.12.06a2.52,2.52,0,0,0,.29.12,2.57,2.57,0,0,0,1.43,0,2.4,2.4,0,0,0,1.46-1.08l1.47-2.44,2.52.17,7.29,6.85a.67.67,0,0,1,.2.46.65.65,0,0,1-.2.45.76.76,0,0,1-1.05,0l-4-3.77A.89.89,0,0,0,23,20Zm-.22,9.62a.61.61,0,0,1-.2.45.74.74,0,0,1-1,0l-.06,0v0a1.34,1.34,0,0,0,.07-.18,2.13,2.13,0,0,0,.09-1,2.09,2.09,0,0,0-.25-.74l1.07,1a.46.46,0,0,0,.07.07A.61.61,0,0,1,22.75,29.57Zm-11.4-6.5.75-.71.06,0a.67.67,0,0,1,.38-.15h.08a.67.67,0,0,1,.5.21.58.58,0,0,1,.18.43.66.66,0,0,1-.22.48l-.73.69a.75.75,0,0,1-1,0,.65.65,0,0,1-.2-.46A.61.61,0,0,1,11.35,23.07Zm1.94,2.36,1.46-1.38a.78.78,0,0,1,.51-.19.8.8,0,0,1,.3.06.63.63,0,0,1,.38.67.72.72,0,0,1-.21.39l-1.44,1.35a.76.76,0,0,1-1,0h0a.61.61,0,0,1,0-.9Zm2.21,2.09L17,26.15a.71.71,0,0,1,.5-.19.69.69,0,0,1,.35.08.62.62,0,0,1,.33.65.7.7,0,0,1-.2.39L16.5,28.43a.76.76,0,0,1-1,0h0a.62.62,0,0,1,0-.91ZM18,29.35l.75-.71.06,0a.68.68,0,0,1,.31-.14h.08V28.2h0l.06.25a.67.67,0,0,1,.5.2l.05.05a.64.64,0,0,1-.08.87l-.73.69a.74.74,0,0,1-1,0,.61.61,0,0,1,0-.9ZM22.9,14.62l-.06,0a1,1,0,0,0-.49-.19L19,14.16h-.06a.88.88,0,0,0-.75.41l-1.73,2.89a.65.65,0,0,1-.43.3.73.73,0,0,1-.54-.06.59.59,0,0,1-.32-.39.58.58,0,0,1,.06-.48l2.27-3.77,4.34-1.18H25.9L31,18l-1.46,2.88Zm-.18,14.32Zm2.21-2.08ZM13,11.25,7.87,17.07l-1.8-1.45L10.88,10Z"/></svg>