<svg id="Ebene_1" data-name="Ebene 1" xmlns="http://www.w3.org/2000/svg" viewBox="0 0 40 40"><defs><style>.cls-1{fill:#1d1d1c;}</style></defs><path class="cls-1" d="M33.08,34.92h-26a1,1,0,0,1-1-1V20l-1.4,1.23a1,1,0,1,1-1.32-1.49l3-2.64A.6.6,0,0,1,6.39,17L19.74,5.17a1.07,1.07,0,0,1,.66-.25h0a1,1,0,0,1,.68.27L36.68,19.76a1,1,0,0,1,0,1.41,1,1,0,0,1-1.41,0l-1.24-1.16V33.92A1,1,0,0,1,33.08,34.92Zm-8.34-2h7.34V18.2L20.39,7.28,8.06,18.22v14.7H15.4V24.79a1,1,0,0,1,1-1h7.34a1,1,0,0,1,1,1Zm-7.34,0h5.34V25.79H17.4Z"/></svg>