<svg id="Ebene_1" data-name="Ebene 1" xmlns="http://www.w3.org/2000/svg" viewBox="0 0 24 24"><defs><style>.cls-1{fill:#1d1d1c;}</style></defs><path class="cls-1" d="M20.17,21.75H3.91A.76.76,0,0,1,3.16,21V12.32l-.65.6a.75.75,0,0,1-1.06-.05.75.75,0,0,1,0-1.06l1.86-1.7,0,0,8.34-7.61a.78.78,0,0,1,.51-.2h0a.77.77,0,0,1,.52.21l9.74,9.36a.75.75,0,0,1-1,1.08l-.56-.53V21A.75.75,0,0,1,20.17,21.75Zm-5.08-1.5h4.33V10.93L12.24,4,4.66,11v9.3H9V15.13a.75.75,0,0,1,.75-.75h4.59a.76.76,0,0,1,.75.75Zm-4.59,0h3.09V15.88H10.5Z"/></svg>