<svg id="Ebene_1" data-name="Ebene 1" xmlns="http://www.w3.org/2000/svg" viewBox="0 0 16 16"><defs><style>.cls-1{fill:#010101;fill-rule:evenodd;}</style></defs><path class="cls-1" d="M12.25,2.05H3.75A1.75,1.75,0,0,0,2,3.8v8.51a1.52,1.52,0,0,0,.06.42h0A1.72,1.72,0,0,0,3.32,14h0a2,2,0,0,0,.42.05h8.51A1.75,1.75,0,0,0,14,12.31V3.8A1.76,1.76,0,0,0,12.25,2.05Zm0,5.85,1-1v.95h-1Zm1-2.11L11.08,7.9H9.89l3.3-3.3ZM2.81,3.8a.94.94,0,0,1,.94-.93h.67L2.81,4.48Zm0,1.82L5.57,2.87H6.76L2.81,6.81ZM2.81,8l5.1-5.09H9.09L2.81,9.15Zm0,2.34,7.43-7.43h1.19L2.81,11.49Zm.64,2.89a1,1,0,0,1-.59-.6l9.68-9.68a1,1,0,0,1,.6.59L8.74,7.9H7.85v.89Zm1.11.05L7.85,10v1.18L5.74,13.24Zm2.33,0,1-1v1h-1Zm6.3-2.78v1.85s0,.08,0,.11a1,1,0,0,1-.84.81H8.66V8.71h4.53v1.75Z"/></svg>