<svg id="Ebene_1" data-name="Ebene 1" xmlns="http://www.w3.org/2000/svg" viewBox="0 0 40 40"><defs><style>.cls-1{fill:#010101;fill-rule:evenodd;}</style></defs><path class="cls-1" d="M31.33,4H8.66A4.66,4.66,0,0,0,4,8.65V31.34a4,4,0,0,0,.16,1.14h0a4.61,4.61,0,0,0,3.35,3.36h0A4.28,4.28,0,0,0,8.65,36H31.33A4.67,4.67,0,0,0,36,31.34V8.65A4.67,4.67,0,0,0,31.33,4Zm0,15.58L33.83,17v2.55ZM33.83,14l-5.61,5.61H25l8.79-8.79ZM6.17,8.65A2.49,2.49,0,0,1,8.66,6.17h1.79L6.17,10.46Zm0,4.87,7.36-7.35h3.16L6.17,16.68Zm0,6.24L19.75,6.17h3.16L6.17,22.92Zm0,6.24L26,6.17h3.17l-23,23Zm1.7,7.69a2.53,2.53,0,0,1-1.58-1.58L32.1,6.29a2.55,2.55,0,0,1,1.6,1.57L22,19.58H19.59V22Zm3,.14,8.77-8.78V28.2L14,33.83Zm6.21,0,2.56-2.56v2.56H17Zm16.8-7.41v4.92a1.55,1.55,0,0,1,0,.31,2.53,2.53,0,0,1-2.22,2.17H21.76V21.76H33.83v4.66Z"/></svg>