<svg id="Ebene_1" data-name="Ebene 1" xmlns="http://www.w3.org/2000/svg" viewBox="0 0 24 24"><defs><style>.cls-1{fill:#010101;fill-rule:evenodd;}</style></defs><path class="cls-1" d="M18.37,3H5.62A2.62,2.62,0,0,0,3,5.62V18.38a2.3,2.3,0,0,0,.09.64h0A2.58,2.58,0,0,0,5,20.91H5a2.23,2.23,0,0,0,.63.09H18.37A2.62,2.62,0,0,0,21,18.38V5.62A2.62,2.62,0,0,0,18.37,3Zm0,8.77,1.44-1.44v1.44Zm1.44-3.16-3.16,3.16H14.84l4.94-4.95Zm-15.56-3a1.41,1.41,0,0,1,1.4-1.4h1L4.22,6.63Zm0,2.74L8.36,4.22h1.78L4.22,10.14Zm0,3.51,7.64-7.65h1.78L4.22,13.64Zm0,3.5L15.37,4.22h1.77L4.22,17.15Zm1,4.33a1.43,1.43,0,0,1-.89-.89L18.81,4.29a1.39,1.39,0,0,1,.89.88l-6.59,6.6H11.77V13.1Zm1.66.08,4.93-4.94v1.77L8.61,19.78Zm3.49,0,1.44-1.44v1.44H10.33Zm9.45-4.17v2.77c0,.06,0,.12,0,.17a1.42,1.42,0,0,1-1.26,1.22H13V13h6.79v2.62Z"/></svg>