<svg id="Ebene_1" data-name="Ebene 1" xmlns="http://www.w3.org/2000/svg" viewBox="0 0 16 16"><defs><style>.cls-1{fill:#010101;fill-rule:evenodd;}</style></defs><path class="cls-1" d="M12,2h-8a2,2,0,0,0-2,2V12a2,2,0,0,0,2,2h8a2,2,0,0,0,2-2V4A2,2,0,0,0,12,2Zm-.81,6.6h1.09L8.61,12.21v-1.1ZM8.61,10V8.6h1.44Zm4.55,2A1.21,1.21,0,0,1,12,13.24H10.84l2.32-2.3Zm0-2.17L9.75,13.24H8.65l4.51-4.47Zm0-4.34V7.84H7.84v5.4H3.91A1.22,1.22,0,0,1,2.69,12V4A1.22,1.22,0,0,1,3.91,2.76h8A1.21,1.21,0,0,1,13.16,4Z"/></svg>