<svg id="Ebene_1" data-name="Ebene 1" xmlns="http://www.w3.org/2000/svg" viewBox="0 0 40 40"><defs><style>.cls-1{fill:#010101;fill-rule:evenodd;}</style></defs><path class="cls-1" d="M30.72,4H9.29A5.27,5.27,0,0,0,4,9.24V30.76A5.27,5.27,0,0,0,9.29,36H30.72A5.27,5.27,0,0,0,36,30.76V9.24A5.27,5.27,0,0,0,30.72,4Zm-8.9,24.31,6.74-6.7h2.92l-9.66,9.61Zm0-2.88V21.61h3.84ZM34,30.76A3.22,3.22,0,0,1,30.72,34H27.77L34,27.83ZM24.88,34H22L34,22.05V25ZM34,16.25v3.32H19.77V34H9.29a3.22,3.22,0,0,1-3.24-3.2V9.24A3.22,3.22,0,0,1,9.29,6H30.72A3.21,3.21,0,0,1,34,9.24v7Z"/></svg>