<svg id="Ebene_1" data-name="Ebene 1" xmlns="http://www.w3.org/2000/svg" viewBox="0 0 24 24"><defs><style>.cls-1{fill:#010101;fill-rule:evenodd;}</style></defs><path class="cls-1" d="M18,3H6A3,3,0,0,0,3,6v12.1A3,3,0,0,0,6,21H18a3,3,0,0,0,3-2.95V6A3,3,0,0,0,18,3Zm-1.21,9.9h1.64L13,18.31V16.67ZM13,15.05V12.9h2.16Zm6.82,3A1.81,1.81,0,0,1,18,19.85H16.37l3.48-3.45Zm0-3.27-5.11,5.07H13.09l6.76-6.7Zm0-6.51v3.49h-8v8.09H6a1.82,1.82,0,0,1-1.82-1.8V6A1.81,1.81,0,0,1,6,4.15H18A1.8,1.8,0,0,1,19.85,6Z"/></svg>