<svg id="Ebene_1" data-name="Ebene 1" xmlns="http://www.w3.org/2000/svg" viewBox="0 0 16 16"><defs><style>.cls-1{fill:#010101;}</style></defs><path class="cls-1" d="M13.9,9.07a.46.46,0,0,1-.09.66L8.29,13.92A.45.45,0,0,1,8,14a.46.46,0,0,1-.29-.1L2.19,9.73a.46.46,0,0,1-.09-.66A.48.48,0,0,1,2.77,9l5.23,4,5.23-4A.48.48,0,0,1,13.9,9.07Zm-11.71-2a.47.47,0,0,1,0-.76L7.71,2.12a.48.48,0,0,1,.58,0L13.81,6.3a.47.47,0,0,1,0,.76L8.29,11.25a.5.5,0,0,1-.29.09.52.52,0,0,1-.29-.09Zm1.08-.38L8,10.27l4.73-3.59L8,3.1Z"/></svg>