<svg id="Ebene_1" data-name="Ebene 1" xmlns="http://www.w3.org/2000/svg" viewBox="0 0 24 24"><defs><style>.cls-1{fill:#010101;}</style></defs><path class="cls-1" d="M20.85,13.46a.72.72,0,0,1-.14,1l-8.27,6.28a.7.7,0,0,1-.44.14.72.72,0,0,1-.44-.14L3.29,14.47a.72.72,0,0,1-.14-1,.71.71,0,0,1,1-.13L12,19.27l7.84-5.94A.71.71,0,0,1,20.85,13.46Zm-17.56-3A.73.73,0,0,1,3,9.89a.72.72,0,0,1,.29-.57L11.56,3a.75.75,0,0,1,.88,0l8.27,6.28a.72.72,0,0,1,.29.57.73.73,0,0,1-.29.58l-8.27,6.27a.71.71,0,0,1-.44.15.73.73,0,0,1-.44-.15Zm1.63-.58L12,15.26l7.08-5.37L12,4.52Z"/></svg>