<svg id="Ebene_1" data-name="Ebene 1" xmlns="http://www.w3.org/2000/svg" viewBox="0 0 40 40"><defs><style>.cls-1{fill:#1d1d1b;}</style></defs><rect class="cls-1" x="4" y="9.94" width="4.76" height="3.69"/><rect class="cls-1" x="4" y="18.16" width="4.76" height="3.69"/><rect class="cls-1" x="4" y="26.37" width="4.76" height="3.69"/><path class="cls-1" d="M32.63,5H8.76V9.94h4.76v3.69H8.76v4.53h4.76v3.68H8.76v4.53h4.76v3.69H8.76V35H32.63A3.43,3.43,0,0,0,36,31.5V8.5A3.43,3.43,0,0,0,32.63,5ZM29.86,17.47s-2.22-2-3.1-1.91-1.89.64-3.56,3S21.32,22.09,21.52,23s2.68,2.49,2.68,2.49l-3.73,5.28-3.53-3c-3-2.56,3.31-11.45,3.31-11.45s6.27-8.95,9.53-6.73c2.19,1.48,3.8,2.59,3.8,2.59Z"/></svg>