<svg xmlns="http://www.w3.org/2000/svg" id="Ebene_1" data-name="Ebene 1" viewBox="0 0 40 40"><defs/><defs/><path d="M4 9.94H8.76V13.629999999999999H4zM4 18.16H8.76V21.85H4zM4 26.37H8.76V30.060000000000002H4zM32.63 5H8.76V9.94h4.76v3.69H8.76v4.53h4.76v3.68H8.76v4.53h4.76v3.69H8.76V35H32.63A3.43 3.43 0 0036 31.5V8.5A3.43 3.43 0 0032.63 5zM29.86 17.47s-2.22-2-3.1-1.91-1.89.64-3.56 3S21.32 22.09 21.52 23s2.68 2.49 2.68 2.49l-3.73 5.28-3.53-3c-3-2.56 3.31-11.45 3.31-11.45s6.27-8.95 9.53-6.73c2.19 1.48 3.8 2.59 3.8 2.59z" class="cls-1"/></svg>
