<svg xmlns="http://www.w3.org/2000/svg" id="Ebene_1" data-name="Ebene 1" viewBox="0 0 16 16"><defs/><defs/><path d="M2 3.98H3.7800000000000002V5.46H2zM2 7.26H3.7800000000000002V8.74H2zM2 10.55H3.7800000000000002V12.030000000000001H2zM12.74 2H3.79V4H5.57V5.45H3.79V7.26H5.57V8.74H3.79v1.81H5.57V12H3.79v2h9A1.34 1.34 0 0014 12.6V3.4A1.34 1.34 0 0012.74 2zm-1 5s-.83-.79-1.17-.76-.7.25-1.33 1.19-.71 1.42-.63 1.77 1 1 1 1L8.18 12.3 6.85 11.11c-1.13-1 1.24-4.58 1.24-4.58S10.44 3 11.67 3.84c.82.59 1.42 1 1.42 1z" class="cls-1"/></svg>
