<svg id="Ebene_1" data-name="Ebene 1" xmlns="http://www.w3.org/2000/svg" viewBox="0 0 16 16"><defs><style>.cls-1{fill:#1d1d1b;}</style></defs><rect class="cls-1" x="2" y="3.98" width="1.78" height="1.48"/><rect class="cls-1" x="2" y="7.26" width="1.78" height="1.48"/><rect class="cls-1" x="2" y="10.55" width="1.78" height="1.48"/><path class="cls-1" d="M12.74,2H3.79V4H5.57V5.45H3.79V7.26H5.57V8.74H3.79v1.81H5.57V12H3.79v2h9A1.34,1.34,0,0,0,14,12.6V3.4A1.34,1.34,0,0,0,12.74,2Zm-1,5s-.83-.79-1.17-.76-.7.25-1.33,1.19-.71,1.42-.63,1.77,1,1,1,1L8.18,12.3,6.85,11.11c-1.13-1,1.24-4.58,1.24-4.58S10.44,3,11.67,3.84c.82.59,1.42,1,1.42,1Z"/></svg>