<svg id="Ebene_1" data-name="Ebene 1" xmlns="http://www.w3.org/2000/svg" viewBox="0 0 16 16"><defs><style>.cls-1{fill:#1d1d1b;}</style></defs><path class="cls-1" d="M11,14.5a7.34,7.34,0,0,1-2.91-.68.5.5,0,0,1-.27-.66.51.51,0,0,1,.66-.26,6.35,6.35,0,0,0,2.52.6,3.14,3.14,0,0,0,2.28-.83.82.82,0,0,0,.22-.61.84.84,0,0,0-.27-.59,3.85,3.85,0,0,0-1.44-1,1,1,0,0,0-1.12.35l-.69.69a1.09,1.09,0,0,1-1.3.17A11.69,11.69,0,0,1,6.26,9.81,12.05,12.05,0,0,1,4.32,7.32,1.09,1.09,0,0,1,4.49,6l.69-.69a1,1,0,0,0,.35-1.12,3.85,3.85,0,0,0-1-1.44.82.82,0,0,0-.59-.27.83.83,0,0,0-.62.23A3.14,3.14,0,0,0,2.5,5a8.67,8.67,0,0,0,2.79,5.71,12.24,12.24,0,0,0,1.13,1,.5.5,0,0,1-.61.79,12.85,12.85,0,0,1-1.23-1.06A9.7,9.7,0,0,1,1.5,5,4.06,4.06,0,0,1,2.63,2,1.84,1.84,0,0,1,4,1.5a1.89,1.89,0,0,1,1.28.57A4.7,4.7,0,0,1,6.49,3.93,2.06,2.06,0,0,1,5.9,6l-.7.7A8.35,8.35,0,0,0,6.9,9a10.67,10.67,0,0,0,2.27,1.78l.8-.7a2,2,0,0,1,2.1-.6,4.7,4.7,0,0,1,1.86,1.23A1.88,1.88,0,0,1,14,13.36,4.14,4.14,0,0,1,11,14.5Z"/></svg>