<svg id="Ebene_1" data-name="Ebene 1" xmlns="http://www.w3.org/2000/svg" viewBox="0 0 24 24"><defs><style>.cls-1{fill:#1d1d1b;}</style></defs><path class="cls-1" d="M21.75,18A2.83,2.83,0,0,1,21,20a6.19,6.19,0,0,1-4.52,1.71,11.31,11.31,0,0,1-4.36-1,.75.75,0,1,1,.59-1.37,9.87,9.87,0,0,0,3.78.89A4.76,4.76,0,0,0,19.93,19a1.33,1.33,0,0,0,.32-.91,1.3,1.3,0,0,0-.4-.9,5.82,5.82,0,0,0-2.17-1.5,1.55,1.55,0,0,0-1.67.53l0,0-1,1a1.62,1.62,0,0,1-1.93.26,17.24,17.24,0,0,1-3.64-2.81l-.1-.09A17.58,17.58,0,0,1,6.48,11,1.6,1.6,0,0,1,6.74,9l1-1V8A1.54,1.54,0,0,0,8.3,6.32,5.82,5.82,0,0,0,6.8,4.15a1.29,1.29,0,0,0-.89-.4A1.24,1.24,0,0,0,5,4.09,4.67,4.67,0,0,0,3.75,7.5c0,2.76,1.58,6,4.19,8.56a17.49,17.49,0,0,0,1.68,1.47.74.74,0,0,1,.14,1,.75.75,0,0,1-1,.14,18.16,18.16,0,0,1-1.83-1.59C4,14.24,2.26,10.65,2.25,7.51A6.16,6.16,0,0,1,4,3a2.8,2.8,0,0,1,3.93.11A7,7,0,0,1,9.74,5.9,3.06,3.06,0,0,1,8.85,9l-1,1.05a.12.12,0,0,0,0,.14,15.18,15.18,0,0,0,2.56,3.32l.1.1a15.68,15.68,0,0,0,3.31,2.56.12.12,0,0,0,.15,0l1-1,0,0a3,3,0,0,1,3.11-.86,7,7,0,0,1,2.79,1.86A2.8,2.8,0,0,1,21.75,18Z"/></svg>