<svg id="Ebene_1" data-name="Ebene 1" xmlns="http://www.w3.org/2000/svg" viewBox="0 0 24 24"><defs><style>.cls-1{fill:none;stroke:#1d1d1b;stroke-linecap:round;stroke-linejoin:round;stroke-width:1.5px;fill-rule:evenodd;}</style></defs><path class="cls-1" d="M9.17,18.13a16.86,16.86,0,0,1-1.76-1.54C4.66,13.85,3,10.45,3,7.51a5.41,5.41,0,0,1,1.48-4,2.05,2.05,0,0,1,2.86.1A6.38,6.38,0,0,1,9,6.11a2.32,2.32,0,0,1-.71,2.41h0l-1,1a.88.88,0,0,0-.14,1,16.45,16.45,0,0,0,2.69,3.48l.1.1a16.45,16.45,0,0,0,3.48,2.69.88.88,0,0,0,1-.14l1-1h0A2.3,2.3,0,0,1,17.89,15a6.38,6.38,0,0,1,2.48,1.68A2,2,0,0,1,21,18.07a2.1,2.1,0,0,1-.54,1.47,5.48,5.48,0,0,1-4,1.46,10.52,10.52,0,0,1-4.06-1"/></svg>