<svg id="Ebene_1" data-name="Ebene 1" xmlns="http://www.w3.org/2000/svg" viewBox="0 0 24 24"><defs><style>.cls-1{fill:#1d1d1b;}</style></defs><rect class="cls-1" x="3" y="6.63" width="2.68" height="1.97"/><rect class="cls-1" x="3" y="11.02" width="2.68" height="1.97"/><rect class="cls-1" x="3" y="15.4" width="2.68" height="1.97"/><path class="cls-1" d="M19.1,4H5.68V6.63H8.35v2H5.68V11H8.35v2H5.68V15.4H8.35v2H5.68V20H19.1A1.88,1.88,0,0,0,21,18.14V5.86A1.88,1.88,0,0,0,19.1,4Zm-1.56,6.65s-1.24-1.05-1.74-1-1.06.34-2,1.6-1.06,1.89-1,2.36,1.51,1.33,1.51,1.33l-2.09,2.82-2-1.59C8.58,14.78,12.14,10,12.14,10s3.53-4.77,5.36-3.59l2.14,1.38Z"/></svg>