<svg id="Ebene_1" data-name="Ebene 1" xmlns="http://www.w3.org/2000/svg" viewBox="0 0 40 40"><defs><style>.cls-1{fill:#1d1d1b;}</style></defs><path class="cls-1" d="M27.49,36a18.56,18.56,0,0,1-7.18-1.67A1,1,0,0,1,19.79,33a1,1,0,0,1,1.31-.52A16.68,16.68,0,0,0,27.49,34a8.13,8.13,0,0,0,5.9-2.14A2.45,2.45,0,0,0,34,30.15a2.4,2.4,0,0,0-.75-1.67,9.72,9.72,0,0,0-3.71-2.55,2.85,2.85,0,0,0-3,.93l0,0-1.71,1.69a2.45,2.45,0,0,1-2.93.39,28.52,28.52,0,0,1-6-4.64l-.17-.16a28.61,28.61,0,0,1-4.64-6,2.45,2.45,0,0,1,.39-2.93l1.73-1.74a2.85,2.85,0,0,0,.93-3,9.72,9.72,0,0,0-2.55-3.71A2.44,2.44,0,0,0,9.85,6a2.35,2.35,0,0,0-1.72.63A8.08,8.08,0,0,0,6,12.51c0,4.65,2.66,10,7.05,14.44a29.09,29.09,0,0,0,2.84,2.47,1,1,0,0,1,.19,1.4,1,1,0,0,1-1.41.19,33.14,33.14,0,0,1-3-2.64C6.88,23.61,4,17.68,4,12.52A10,10,0,0,1,6.76,5.17a4.46,4.46,0,0,1,6.2.19A11.57,11.57,0,0,1,16,9.9a4.8,4.8,0,0,1-1.42,5l-1.74,1.75a.45.45,0,0,0-.07.54,26.06,26.06,0,0,0,4.31,5.58l.16.16a26.86,26.86,0,0,0,5.59,4.32.45.45,0,0,0,.54-.07l1.73-1.73.05,0a4.78,4.78,0,0,1,5-1.39,11.46,11.46,0,0,1,4.54,3,4.4,4.4,0,0,1,1.36,3,4.47,4.47,0,0,1-1.16,3.15A10,10,0,0,1,27.49,36Z"/></svg>