<svg id="Ebene_1" data-name="Ebene 1" xmlns="http://www.w3.org/2000/svg" viewBox="0 0 40 40"><defs><style>.cls-1{fill:#010101;}</style></defs><path class="cls-1" d="M30.67,3.88H9.22A5.27,5.27,0,0,0,3.94,9.15V30.61a5.27,5.27,0,0,0,5.28,5.27H30.67a5.27,5.27,0,0,0,5.27-5.27V9.15A5.27,5.27,0,0,0,30.67,3.88Zm1.27,2.46L6.4,31.88a3,3,0,0,1-.28-1.27V20.79L20.85,6.06h9.82A3,3,0,0,1,31.94,6.34ZM9.22,6.06h8.56L6.12,17.71V9.15A3.09,3.09,0,0,1,9.22,6.06ZM7.94,33.42,33.48,7.88a3,3,0,0,1,.29,1.27V19L19,33.7H9.22A3,3,0,0,1,7.94,33.42Zm22.73.28H22.11L33.77,22v8.57A3.1,3.1,0,0,1,30.67,33.7Z"/></svg>