<svg id="Ebene_1" data-name="Ebene 1" xmlns="http://www.w3.org/2000/svg" viewBox="0 0 16 16"><defs><style>.cls-1{fill:#010101;}</style></defs><path class="cls-1" d="M12.54,1.06H3.46A2.49,2.49,0,0,0,1,3.52V12.6a2.49,2.49,0,0,0,2.46,2.46h9.08A2.49,2.49,0,0,0,15,12.6V3.52A2.42,2.42,0,0,0,12.54,1.06Zm.54,1.17L2.28,13a.86.86,0,0,1-.1-.54V9.07L9.12,2.13h3.42A4.91,4.91,0,0,1,13.08,2.23Zm-9.52-.1H7.73L2.28,7.58V3.41A1.24,1.24,0,0,1,3.56,2.13ZM3,13.78,13.82,3a.79.79,0,0,1,.11.54V6.94L7,13.88H3.56A.84.84,0,0,1,3,13.78Zm9.51.1H8.37l5.45-5.45V12.6A1.17,1.17,0,0,1,12.54,13.88Z"/></svg>