<svg id="Ebene_1" data-name="Ebene 1" xmlns="http://www.w3.org/2000/svg" viewBox="0 0 24 24"><defs><style>.cls-1{fill:#010101;}</style></defs><path class="cls-1" d="M21,12.17h0V7.85A4.77,4.77,0,0,0,20.05,5l.1-.1L19.09,3.84l-.1.1A4.81,4.81,0,0,0,16.15,3H7.85A4.85,4.85,0,0,0,3,7.85v8.3A4.77,4.77,0,0,0,4,19l-.14.14L4.87,20.2,5,20.06A4.81,4.81,0,0,0,7.85,21h8.3A4.85,4.85,0,0,0,21,16.15v-4ZM7.85,4.5h2.46l-5.8,5.81V7.85A3.35,3.35,0,0,1,7.85,4.5ZM4.51,16.15V12.43L12.43,4.5h3.72A3.28,3.28,0,0,1,17.92,5L5,17.92A3.33,3.33,0,0,1,4.51,16.15ZM6.08,19,19,6.08a3.33,3.33,0,0,1,.51,1.77v3.72L11.57,19.5H7.85A3.28,3.28,0,0,1,6.08,19Zm13.41-2.83a3.35,3.35,0,0,1-3.34,3.35H13.69l5.8-5.81Z"/></svg>