<svg id="Ebene_1" data-name="Ebene 1" xmlns="http://www.w3.org/2000/svg" viewBox="0 0 24 24"><defs><style>.cls-1{fill:#010101;fill-rule:evenodd;}</style></defs><path class="cls-1" d="M8.82,10.42a.59.59,0,0,1,.57.6v2.51a.59.59,0,0,1-.57.6.58.58,0,0,1-.57-.6V11A.58.58,0,0,1,8.82,10.42Zm7.43-6.23H7.75a.7.7,0,0,0-.69.71V19.81h9.88V4.9A.7.7,0,0,0,16.25,4.19Zm0-1.19a1.87,1.87,0,0,1,1.84,1.9V19.81h2.34a.59.59,0,0,1,.57.6.58.58,0,0,1-.57.59H3.57A.58.58,0,0,1,3,20.41a.59.59,0,0,1,.57-.6H5.91V4.9A1.87,1.87,0,0,1,7.75,3Z"/></svg>