<svg id="Ebene_1" data-name="Ebene 1" xmlns="http://www.w3.org/2000/svg" viewBox="0 0 16 16"><defs><style>.cls-1{fill:#010101;fill-rule:evenodd;}</style></defs><path class="cls-1" d="M5.88,7a.39.39,0,0,1,.38.4V9.08a.38.38,0,1,1-.76,0V7.4A.39.39,0,0,1,5.88,7Zm5-4.16H5.16a.48.48,0,0,0-.46.48v9.94h6.6V3.32A.48.48,0,0,0,10.84,2.84Zm0-.79a1.25,1.25,0,0,1,1.22,1.27v9.94h1.56a.39.39,0,0,1,.38.4.38.38,0,0,1-.38.39H2.38A.38.38,0,0,1,2,13.66a.39.39,0,0,1,.38-.4H3.94V3.32A1.25,1.25,0,0,1,5.16,2.05Z"/></svg>