<svg width="40" height="40" version="1.1" viewBox="0 0 40 40" xmlns="http://www.w3.org/2000/svg">
 <path d="m9.9071 39.481a1.8331 1.815 0 0 1-2.4217 0 1.9004 1.8816 0 0 1-0.82406-2.2813l3.8176-12.422-9.586-6.7939a1.9172 1.8983 0 0 1-0.75679-2.3146 1.8331 1.815 0 0 1 1.9004-1.3821h12.125l3.8176-12.788a1.9508 1.9316 0 0 1 0.79042-1.099 2.0686 2.0481 0 0 1 2.4554 0 1.9508 1.9316 0 0 1 0.79042 1.099l3.8176 12.788h12.125a1.8331 1.815 0 0 1 1.9004 1.3821 1.9172 1.8983 0 0 1-0.75679 2.3146l-9.6533 6.8605 3.8176 12.422a1.9004 1.8816 0 0 1-0.82406 2.2813 1.8331 1.815 0 0 1-2.4217 0l-10.091-7.5598z" stroke-width="1.6734"/>
</svg>
