<svg width="16" height="16" viewBox="0 0 16 16" fill="none" xmlns="http://www.w3.org/2000/svg">
<g id="icons/star/16">
<path id="Vector" d="M5.63831 12.55C5.46053 12.6944 5.27442 12.7 5.07997 12.5666C4.88553 12.4333 4.82164 12.2555 4.88831 12.0333L5.77164 9.13331L3.53831 7.53331C3.34942 7.38887 3.29109 7.20831 3.36331 6.99165C3.43553 6.77498 3.58275 6.66665 3.80497 6.66665H6.60497L7.48831 3.68331C7.52164 3.5722 7.58275 3.48609 7.67164 3.42498C7.76053 3.36387 7.85497 3.33331 7.95497 3.33331C8.05497 3.33331 8.14942 3.36387 8.23831 3.42498C8.3272 3.48609 8.38831 3.5722 8.42164 3.68331L9.30497 6.66665H12.105C12.3272 6.66665 12.4744 6.77498 12.5466 6.99165C12.6189 7.20831 12.5605 7.38887 12.3716 7.53331L10.1383 9.13331L11.0216 12.0333C11.0883 12.2555 11.0244 12.4333 10.83 12.5666C10.6355 12.7 10.4494 12.6944 10.2716 12.55L7.95497 10.7833L5.63831 12.55Z" fill="black"/>
</g>
</svg>
