<svg width="40" height="40" viewBox="0 0 40 40" fill="none" xmlns="http://www.w3.org/2000/svg">
<g id="icons/star/40">
<path id="Vector" d="M14.0958 31.375C13.6513 31.7361 13.186 31.75 12.6999 31.4166C12.2138 31.0833 12.0541 30.6389 12.2208 30.0833L14.4291 22.8333L8.84575 18.8333C8.37353 18.4722 8.2277 18.0208 8.40825 17.4791C8.58881 16.9375 8.95687 16.6666 9.51242 16.6666H16.5124L18.7208 9.20831C18.8041 8.93054 18.9569 8.71526 19.1791 8.56248C19.4013 8.4097 19.6374 8.33331 19.8874 8.33331C20.1374 8.33331 20.3735 8.4097 20.5958 8.56248C20.818 8.71526 20.9708 8.93054 21.0541 9.20831L23.2624 16.6666H30.2624C30.818 16.6666 31.186 16.9375 31.3666 17.4791C31.5471 18.0208 31.4013 18.4722 30.9291 18.8333L25.3458 22.8333L27.5541 30.0833C27.7208 30.6389 27.561 31.0833 27.0749 31.4166C26.5888 31.75 26.1235 31.7361 25.6791 31.375L19.8874 26.9583L14.0958 31.375Z" fill="black"/>
</g>
</svg>
