<svg width="24" height="24" viewBox="0 0 24 24" fill="none" xmlns="http://www.w3.org/2000/svg">
<g id="icons/star/24">
<path id="Vector" d="M8.45745 18.825C8.19078 19.0417 7.91161 19.05 7.61995 18.85C7.32828 18.65 7.23245 18.3833 7.33245 18.05L8.65745 13.7L5.30745 11.3C5.02411 11.0833 4.93661 10.8125 5.04495 10.4875C5.15328 10.1625 5.37411 10 5.70745 10H9.90745L11.2324 5.525C11.2824 5.35833 11.3741 5.22917 11.5074 5.1375C11.6408 5.04583 11.7824 5 11.9324 5C12.0824 5 12.2241 5.04583 12.3574 5.1375C12.4908 5.22917 12.5824 5.35833 12.6324 5.525L13.9574 10H18.1574C18.4908 10 18.7116 10.1625 18.8199 10.4875C18.9283 10.8125 18.8408 11.0833 18.5574 11.3L15.2074 13.7L16.5324 18.05C16.6324 18.3833 16.5366 18.65 16.2449 18.85C15.9533 19.05 15.6741 19.0417 15.4074 18.825L11.9324 16.175L8.45745 18.825Z" fill="black"/>
</g>
</svg>
