<svg width="14" height="14" viewBox="0 0 14 14" fill="none" xmlns="http://www.w3.org/2000/svg">
<path id="star/24" d="M3.45745 13.825C3.19078 14.0417 2.91161 14.05 2.61995 13.85C2.32828 13.65 2.23245 13.3833 2.33245 13.05L3.65745 8.7L0.307447 6.3C0.0241133 6.08333 -0.0633865 5.8125 0.0449468 5.4875C0.15328 5.1625 0.374113 5 0.707447 5H4.90745L6.23245 0.525C6.28245 0.358333 6.37411 0.229166 6.50745 0.1375C6.64078 0.0458331 6.78245 0 6.93245 0C7.08245 0 7.22411 0.0458331 7.35745 0.1375C7.49078 0.229166 7.58245 0.358333 7.63245 0.525L8.95745 5H13.1574C13.4908 5 13.7116 5.1625 13.8199 5.4875C13.9283 5.8125 13.8408 6.08333 13.5574 6.3L10.2074 8.7L11.5324 13.05C11.6324 13.3833 11.5366 13.65 11.2449 13.85C10.9533 14.05 10.6741 14.0417 10.4074 13.825L6.93245 11.175L3.45745 13.825Z" fill="black"/>
</svg>
