<svg width="16" height="16" version="1.1" viewBox="0 0 16 16" xmlns="http://www.w3.org/2000/svg">
 <path d="m3.9762 15.795a0.75497 0.75138 0 0 1-0.9638 0 0.77104 0.76737 0 0 1-0.33733-0.91125l1.6063-4.9719-3.9194-2.7178a0.75497 0.75138 0 0 1-0.3052-0.92724 0.73891 0.7354 0 0 1 0.75497-0.55954h4.819l1.526-5.0998a0.7871 0.78336 0 0 1 0.32127-0.44763 0.80316 0.79934 0 0 1 0.9638 0 0.7871 0.78336 0 0 1 0.32127 0.44763l1.6063 5.0998h4.819a0.73891 0.7354 0 0 1 0.75497 0.55954 0.75497 0.75138 0 0 1-0.3052 0.92724l-3.9194 2.7497 1.526 4.9719a0.77104 0.76737 0 0 1-0.33733 0.91125 0.75497 0.75138 0 0 1-0.9638 0l-3.9837-3.0375z" stroke-width="1.6025"/>
</svg>
