<svg fill="black" width="16" height="16" viewBox="0 0 20 19" xmlns="http://www.w3.org/2000/svg">
	<path d="M9.10928.745361C9.48042.0181102 10.5196.0181091 10.8907.74536l2.1755 4.26293c.1453.28472.418.48282.7337.53303l4.7265.75172c.8064.12824 1.1275 1.11653.5505 1.69424l-3.382 3.38632c-.2259.2262-.33.5467-.2802.8625l.7456 4.7275c.1273.8065-.7134 1.4173-1.4412 1.0471l-4.2657-2.17c-.2849-.145-.62191-.145-.90682 0l-4.26572 2.17c-.72772.3702-1.56841-.2406-1.4412-1.0471l.74565-4.7275c.04981-.3158-.05434-.6363-.28022-.8625L.92307 7.98728c-.576969-.57771-.255855-1.566.55049-1.69424l4.72656-.75172c.31569-.05021.58835-.24831.73365-.53303L9.10928.745361Z" />
</svg>
