<svg width="10" height="10" viewBox="0 0 10 10" fill="none" xmlns="http://www.w3.org/2000/svg">
<path id="star/16" d="M2.30496 9.21667C2.12719 9.36111 1.94108 9.36667 1.74663 9.23333C1.55219 9.1 1.4883 8.92222 1.55496 8.7L2.4383 5.8L0.204964 4.2C0.0160756 4.05556 -0.0422577 3.875 0.0299646 3.65833C0.102187 3.44167 0.249409 3.33333 0.471631 3.33333H3.27163L4.15496 0.35C4.1883 0.238889 4.24941 0.152778 4.3383 0.0916665C4.42719 0.0305554 4.52163 0 4.62163 0C4.72163 0 4.81608 0.0305554 4.90496 0.0916665C4.99385 0.152778 5.05496 0.238889 5.0883 0.35L5.97163 3.33333H8.77163C8.99385 3.33333 9.14108 3.44167 9.2133 3.65833C9.28552 3.875 9.22719 4.05556 9.0383 4.2L6.80496 5.8L7.6883 8.7C7.75496 8.92222 7.69108 9.1 7.49663 9.23333C7.30219 9.36667 7.11608 9.36111 6.9383 9.21667L4.62163 7.45L2.30496 9.21667Z" fill="black"/>
</svg>
