<svg width="24" height="24" viewBox="0 0 24 24" fill="none" xmlns="http://www.w3.org/2000/svg">
<path id="star/40" d="M5.76241 23.0417C5.31797 23.4028 4.85269 23.4167 4.36658 23.0833C3.88047 22.75 3.72074 22.3056 3.88741 21.75L6.09575 14.5L0.512411 10.5C0.0401889 10.1389 -0.105644 9.6875 0.0749114 9.14583C0.255467 8.60417 0.623522 8.33333 1.17908 8.33333H8.17908L10.3874 0.875C10.4707 0.597222 10.6235 0.381944 10.8457 0.229166C11.068 0.0763886 11.3041 0 11.5541 0C11.8041 0 12.0402 0.0763886 12.2624 0.229166C12.4846 0.381944 12.6374 0.597222 12.7207 0.875L14.9291 8.33333H21.9291C22.4846 8.33333 22.8527 8.60417 23.0332 9.14583C23.2138 9.6875 23.068 10.1389 22.5957 10.5L17.0124 14.5L19.2207 21.75C19.3874 22.3056 19.2277 22.75 18.7416 23.0833C18.2555 23.4167 17.7902 23.4028 17.3457 23.0417L11.5541 18.625L5.76241 23.0417Z" fill="black"/>
</svg>
