<svg width="24" height="24" version="1.1" viewBox="0 0 24 24" xmlns="http://www.w3.org/2000/svg">
 <path d="m6.0033 23.702a1.1268 1.114 0 0 1-1.4561 0 1.1441 1.1311 0 0 1-0.50271-1.371l2.3055-7.4208-5.8072-4.1131a1.1441 1.1311 0 0 1-0.46804-1.3882 1.1441 1.1311 0 0 1 1.1614-0.83977h7.3153l2.2535-7.6607a1.1441 1.1311 0 0 1 0.48538-0.66838 1.2654 1.2511 0 0 1 0.72806-0.23993 1.3521 1.3368 0 0 1 0.7454 0.23993 1.1961 1.1825 0 0 1 0.46804 0.66838l2.2535 7.6607h7.2633a1.1441 1.1311 0 0 1 1.1614 0.83977 1.1441 1.1311 0 0 1-0.46804 1.3882l-5.7552 4.1131 2.3055 7.4551a1.1441 1.1311 0 0 1-0.50271 1.371 1.1268 1.114 0 0 1-1.4561 0l-6.0152-4.5759z" stroke-width="1.7236"/>
</svg>
