<svg fill="black" stroke="black" stroke-width="1.5" width="24" height="24" viewBox="0 0 20 19" xmlns="http://www.w3.org/2000/svg">
	<path d="M14.6738 12.3529L15.4009 12.2383L14.6738 12.3529L15.4195 17.0805C15.4513 17.2821 15.2411 17.4348 15.0592 17.3422L10.7935 15.1722C10.2949 14.9186 9.7051 14.9186 9.20652 15.1722L4.9408 17.3422C4.75886 17.4348 4.5487 17.2821 4.5805 17.0805L5.32616 12.3529C5.41331 11.8004 5.23105 11.2395 4.83576 10.8436L1.45374 7.45729C1.3095 7.31286 1.38978 7.06579 1.59136 7.03373L6.31792 6.28201C6.87037 6.19415 7.34753 5.84747 7.60181 5.34921L9.77732 1.08628C9.87011 0.904468 10.1299 0.90447 10.2227 1.08628L12.3982 5.34921C12.6525 5.84747 13.1296 6.19415 13.6821 6.28201L18.4086 7.03373C18.6102 7.06579 18.6905 7.31286 18.5463 7.45729L15.1642 10.8436L15.6949 11.3736L15.1642 10.8436C14.7689 11.2395 14.5867 11.8004 14.6738 12.3529Z" />
</svg>
