<svg width="16" height="16" viewBox="0 0 16 16" fill="none" xmlns="http://www.w3.org/2000/svg">
<g id="icons/Tip">
<path id="Vector" d="M6 14C6 14.3666 6.3 14.6666 6.66667 14.6666H9.33333C9.7 14.6666 10 14.3666 10 14V13.6666H6V14ZM8 1.33331C5.42667 1.33331 3.33333 3.42665 3.33333 5.99998C3.33333 7.58665 4.12667 8.97998 5.33333 9.82665V11.3333C5.33333 11.7 5.63333 12 6 12H10C10.3667 12 10.6667 11.7 10.6667 11.3333V9.82665C11.8733 8.97998 12.6667 7.58665 12.6667 5.99998C12.6667 3.42665 10.5733 1.33331 8 1.33331ZM9.66667 9.33331V11H6.33333V9.33331C5 8.66665 4.33333 7.33331 4.33333 5.99998C4.33333 4.04974 5.66667 2.33331 8 2.33331C10.3333 2.33331 11.6667 4.15998 11.6667 5.99998C11.6667 7.33331 11 8.66665 9.66667 9.33331Z" fill="black"/>
</g>
</svg>
