<svg width="24" height="24" viewBox="0 0 24 24" fill="none" xmlns="http://www.w3.org/2000/svg">
<g id="icons/Tip">
<path id="Vector" d="M9 21C9 21.55 9.45 22 10 22H14C14.55 22 15 21.55 15 21V20.5H9V21ZM12 2C8.14 2 5 5.14 5 9C5 11.38 6.19 13.47 8 14.74V17C8 17.55 8.45 18 9 18H15C15.55 18 16 17.55 16 17V14.74C17.81 13.47 19 11.38 19 9C19 5.14 15.86 2 12 2ZM14.5 14V16.5H9.5V14C7.5 13 6.5 11 6.5 9C6.5 6.07464 8.5 3.5 12 3.5C15.5 3.5 17.5 6.24 17.5 9C17.5 11 16.5 13 14.5 14Z" fill="black"/>
</g>
</svg>
