<svg width="40" height="40" viewBox="0 0 40 40" fill="none" xmlns="http://www.w3.org/2000/svg">
<g id="icons/Tip">
<path id="Vector" d="M15 35C15 35.9166 15.75 36.6666 16.6667 36.6666H23.3333C24.25 36.6666 25 35.9166 25 35V34.1666H15V35ZM20 3.33331C13.5667 3.33331 8.33334 8.56665 8.33334 15C8.33334 18.9666 10.3167 22.45 13.3333 24.5666V28.3333C13.3333 29.25 14.0833 30 15 30H25C25.9167 30 26.6667 29.25 26.6667 28.3333V24.5666C29.6833 22.45 31.6667 18.9666 31.6667 15C31.6667 8.56665 26.4333 3.33331 20 3.33331ZM24.1667 23.3333V27.5H15.8333V23.3333C12.5 21.6666 10.8333 18.3333 10.8333 15C10.8333 10.1244 14.1667 5.83331 20 5.83331C25.8333 5.83331 29.1667 10.4 29.1667 15C29.1667 18.3333 27.5 21.6666 24.1667 23.3333Z" fill="black"/>
</g>
</svg>
