<svg id="Ebene_1" data-name="Ebene 1" xmlns="http://www.w3.org/2000/svg" viewBox="0 0 40 40"><defs><style>.cls-1{fill:#010101;}</style></defs><path class="cls-1" d="M35.7,10.13a13,13,0,0,1-3.7,1,6.51,6.51,0,0,0,2.84-3.57,12.66,12.66,0,0,1-4.09,1.56,6.46,6.46,0,0,0-11,5.88A18.26,18.26,0,0,1,6.48,8.28a6.46,6.46,0,0,0,2,8.61,6.44,6.44,0,0,1-2.93-.8v.08a6.46,6.46,0,0,0,5.18,6.32,6.83,6.83,0,0,1-1.7.22,6.06,6.06,0,0,1-1.21-.12,6.44,6.44,0,0,0,6,4.48A12.77,12.77,0,0,1,4.3,29.74a18,18,0,0,0,9.87,2.92c11.86,0,18.34-9.83,18.34-18.36,0-.28,0-.56,0-.83A13.07,13.07,0,0,0,35.7,10.13Z"/></svg>