<svg id="Ebene_1" data-name="Ebene 1" xmlns="http://www.w3.org/2000/svg" viewBox="0 0 16 16"><defs><style>.cls-1{fill:#010101;}</style></defs><path class="cls-1" d="M13.58,4.54a4.77,4.77,0,0,1-1.32.36,2.25,2.25,0,0,0,1-1.27,4.56,4.56,0,0,1-1.45.56,2.29,2.29,0,0,0-4,1.56,2.18,2.18,0,0,0,.06.52A6.45,6.45,0,0,1,3.2,3.88,2.25,2.25,0,0,0,2.89,5a2.28,2.28,0,0,0,1,1.91,2.16,2.16,0,0,1-1-.29v0A2.3,2.3,0,0,0,4.71,8.93,2.49,2.49,0,0,1,4.1,9a2.1,2.1,0,0,1-.43,0,2.3,2.3,0,0,0,2.14,1.6,4.61,4.61,0,0,1-2.84,1,4.91,4.91,0,0,1-.55,0,6.4,6.4,0,0,0,3.51,1A6.47,6.47,0,0,0,12.44,6v-.3A4.74,4.74,0,0,0,13.58,4.54Z"/></svg>