<svg id="Ebene_1" data-name="Ebene 1" xmlns="http://www.w3.org/2000/svg" viewBox="0 0 24 24"><defs><style>.cls-1{fill:#010101;}</style></defs><path class="cls-1" d="M20.16,6.93a6.51,6.51,0,0,1-1.92.53,3.35,3.35,0,0,0,1.47-1.85,6.68,6.68,0,0,1-2.13.81,3.35,3.35,0,0,0-5.79,2.29,3.16,3.16,0,0,0,.09.76A9.46,9.46,0,0,1,5,6a3.44,3.44,0,0,0-.45,1.69A3.36,3.36,0,0,0,6,10.45,3.38,3.38,0,0,1,4.49,10v0a3.36,3.36,0,0,0,2.69,3.29,3.66,3.66,0,0,1-.88.11,3.21,3.21,0,0,1-.63-.06A3.35,3.35,0,0,0,8.8,15.74a6.71,6.71,0,0,1-4.16,1.43,7,7,0,0,1-.8,0,9.52,9.52,0,0,0,14.66-8c0-.14,0-.29,0-.43A6.91,6.91,0,0,0,20.16,6.93Z"/></svg>