<svg id="Ebene_1" data-name="Ebene 1" xmlns="http://www.w3.org/2000/svg" viewBox="0 0 16 16"><path d="M14.25,3.77a.5.5,0,0,0-.5,0l-2.4,1.39A2.18,2.18,0,0,0,9.19,3.22H3.68A2.19,2.19,0,0,0,1.5,5.4V10a2.19,2.19,0,0,0,2.18,2.19H9.19a2.19,2.19,0,0,0,2.16-2l2.41,1.35a.5.5,0,0,0,.24.06.43.43,0,0,0,.25-.07.48.48,0,0,0,.25-.43v-7A.5.5,0,0,0,14.25,3.77ZM10.37,10a1.18,1.18,0,0,1-1.18,1.19H3.68A1.18,1.18,0,0,1,2.5,10V5.4A1.18,1.18,0,0,1,3.68,4.22H9.19A1.18,1.18,0,0,1,10.37,5.4Zm3.13.3L11.37,9.14V6.3L13.5,5.07Z"/></svg>