<svg id="Ebene_1" data-name="Ebene 1" xmlns="http://www.w3.org/2000/svg" viewBox="0 0 24 24"><path d="M20.38,7a.75.75,0,0,0-.74,0L16.57,8.62a2.44,2.44,0,0,0-2.43-2.37H5.68A2.43,2.43,0,0,0,3.25,8.69v6.63a2.43,2.43,0,0,0,2.43,2.43h8.46a2.43,2.43,0,0,0,2.43-2.37L19.65,17a.85.85,0,0,0,.35.08.79.79,0,0,0,.39-.11.75.75,0,0,0,.36-.64V7.61A.76.76,0,0,0,20.38,7Zm-5.3,8.36a.94.94,0,0,1-.94.93H5.68a.93.93,0,0,1-.93-.93V8.69a.94.94,0,0,1,.93-.94h8.46a.94.94,0,0,1,.94.94Zm4.17-.23-2.67-1.4V10.32l2.67-1.45Z"/></svg>