<svg id="Ebene_1" data-name="Ebene 1" xmlns="http://www.w3.org/2000/svg" viewBox="0 0 24 24"><defs><style>.cls-1{fill:#1d1d1c;}</style></defs><path class="cls-1" d="M12,20.75h-.23l-.32,0a8.75,8.75,0,0,1,0-17.46,2.68,2.68,0,0,1,.4,0A8.75,8.75,0,1,1,12,20.75ZM8.77,15.46c.54,2,1.51,3.33,2.48,3.69V15.46Zm4,0v3.45a6.25,6.25,0,0,0,2-3.45Zm3.57,0a10.27,10.27,0,0,1-1.26,3.11,7.28,7.28,0,0,0,3.31-3.11Zm-10.69,0a7.38,7.38,0,0,0,2.63,2.75,10.71,10.71,0,0,1-1-2.75Zm11-1.5H19A7.25,7.25,0,0,0,19,10H16.59a17.68,17.68,0,0,1,.11,2A15.51,15.51,0,0,1,16.58,14Zm-3.83,0h2.32a13.53,13.53,0,0,0,.13-2,13.53,13.53,0,0,0-.13-2H12.75ZM8.47,14h2.78V10H8.47a13.79,13.79,0,0,0,0,3.92ZM5,14H7A16.07,16.07,0,0,1,7,10H5A7.25,7.25,0,0,0,5,14Zm11.3-5.42h2.05a7.23,7.23,0,0,0-3.31-3.11A10.16,10.16,0,0,1,16.32,8.54Zm-3.57,0h2a6.21,6.21,0,0,0-2-3.45Zm-4,0h2.48V4.85C10.28,5.21,9.31,6.56,8.77,8.54Zm-3.14,0H7.22a10.71,10.71,0,0,1,1-2.75A7.38,7.38,0,0,0,5.63,8.54Z"/></svg>