<svg id="Ebene_1" data-name="Ebene 1" xmlns="http://www.w3.org/2000/svg" viewBox="0 0 40 40"><defs><style>.cls-1{fill:#1d1d1b;}</style></defs><path class="cls-1" d="M19.74,4.92c-.23,0-.45,0-.68,0a15,15,0,0,0,0,29.94l.54,0H20a15,15,0,1,0-.26-30ZM14.32,8.23a16.29,16.29,0,0,0-2.05,4.46H9.21A13,13,0,0,1,14.32,8.23ZM8.1,14.69h3.67a26.68,26.68,0,0,0-.48,4.23H7A12.78,12.78,0,0,1,8.1,14.69Zm0,10.54A12.67,12.67,0,0,1,7,20.92h4.25a25.33,25.33,0,0,0,.5,4.31Zm1.12,2h3a16.06,16.06,0,0,0,2,4.39A13.19,13.19,0,0,1,9.25,27.23ZM19,32.86c-1.88-.38-3.56-2.54-4.6-5.63H19Zm0-7.63H13.84a24.16,24.16,0,0,1-.55-4.31H19Zm0-6.31H13.29a23.27,23.27,0,0,1,.54-4.23H19Zm0-6.23H14.38C15.42,9.56,17.1,7.37,19,7Zm14,6.23H27.9a26.68,26.68,0,0,0-.48-4.23H31.9A12.78,12.78,0,0,1,33,18.92Zm-2.17-6.23H26.92a15.3,15.3,0,0,0-2.42-5A13,13,0,0,1,30.79,12.69ZM21,7.26c1.56.76,2.92,2.75,3.81,5.43H21Zm0,7.43h4.36a23.27,23.27,0,0,1,.54,4.23H21Zm0,6.23h4.9a24.16,24.16,0,0,1-.55,4.31H21Zm0,11.66V27.23h3.79C23.9,29.87,22.55,31.83,21,32.58Zm3.5-.46a15.29,15.29,0,0,0,2.4-4.89h3.85A13.05,13.05,0,0,1,24.5,32.12Zm7.37-6.89H27.4a25.33,25.33,0,0,0,.5-4.31H33A12.67,12.67,0,0,1,31.87,25.23Z"/></svg>