<svg data-name="Ebene 1" xmlns="http://www.w3.org/2000/svg" viewBox="0 0 16 16"><path d="M8 11.22c-3.41 0-7-1-7-2.74 0-.48.28-1.24 1.74-1.86a.38.38 0 01.51.2.38.38 0 01-.25.51c-.81.35-1.29.78-1.29 1.15 0 .82 2.38 2 6.25 2s6.25-1.14 6.25-2c0-.31-.34-.66-.92-1a.39.39 0 11.36-.69C14.8 7.4 15 8 15 8.48c0 1.78-3.59 2.74-7 2.74zm-2.08-4.8a.79.79 0 00.41-.69.81.81 0 00-.25-.59 1 1 0 00-.79-.32 1.24 1.24 0 00-.52.11.85.85 0 00-.37.3 1.54 1.54 0 00-.19.5l.69.12a.49.49 0 01.1-.3.33.33 0 01.25-.1.28.28 0 01.23.08.32.32 0 01.09.24.35.35 0 01-.12.28.49.49 0 01-.34.1h-.05L5 6.79h.07c.26-.07.43-.06.56.08a.48.48 0 01.12.35.49.49 0 01-.13.37.34.34 0 01-.29.14A.42.42 0 015 7.6a.63.63 0 01-.14-.34l-.72.09a1.13 1.13 0 00.36.72 1.18 1.18 0 00.79.27A1.17 1.17 0 006.15 8a1.05 1.05 0 00.33-.78.85.85 0 00-.18-.55.79.79 0 00-.38-.25zm2.9-.09a1.15 1.15 0 01.3.82 1.16 1.16 0 01-.31.85 1.09 1.09 0 01-.81.34 1.1 1.1 0 01-.88-.41 2.13 2.13 0 01-.33-1.33 2.15 2.15 0 01.35-1.36 1.13 1.13 0 01.92-.42 1 1 0 01.66.23 1 1 0 01.34.64v.06l-.72.08a.45.45 0 00-.1-.26.32.32 0 00-.24-.12.35.35 0 00-.3.16 1.25 1.25 0 00-.16.6A.8.8 0 018.1 6a1 1 0 01.72.33zm-.54.38a.37.37 0 00-.56 0 .57.57 0 00-.12.39.7.7 0 00.14.46.36.36 0 00.26.15.34.34 0 00.26-.12.69.69 0 00.11-.43.71.71 0 00-.09-.45zm3-1.52a2.22 2.22 0 01.34 1.39 2.27 2.27 0 01-.3 1.42 1 1 0 01-.79.36A1 1 0 019.7 8a2.26 2.26 0 01-.31-1.38 2.24 2.24 0 01.34-1.39 1 1 0 01.8-.36.94.94 0 01.79.32zm-.43 1.39a3.54 3.54 0 00-.06-.8.56.56 0 00-.13-.27.27.27 0 00-.17-.06.28.28 0 00-.18.06.54.54 0 00-.13.24 4 4 0 00-.06.83 3.48 3.48 0 00.06.8.52.52 0 00.13.27.29.29 0 00.35 0 .54.54 0 00.13-.24 3.93 3.93 0 00.1-.83zm2.66-1a.75.75 0 01-.23.55.77.77 0 01-1.1 0 .75.75 0 01-.18-.58.76.76 0 01.22-.55.8.8 0 011.1 0 .78.78 0 01.23.55zM13 5.34a.3.3 0 00-.51.21.29.29 0 00.09.22.29.29 0 00.42 0 .29.29 0 00.09-.22.29.29 0 00-.09-.21z" fill="#010101"/></svg>