<svg data-name="Ebene 1" xmlns="http://www.w3.org/2000/svg" viewBox="0 0 40 40"><path d="M37.34 16.44L21.1 6.3a1 1 0 00-1.1 0L3.8 16.44l-.13.12a1.07 1.07 0 00-.19.28v.08a1.27 1.27 0 00-.06.28v6a1 1 0 002 0v-4.35L10.14 21v10c0 3.12 8.69 3.28 10.43 3.28S31 34.19 31 31.07v-9.42l6.29-3.48a1 1 0 000-1.73zM20.57 32.35c-4.57 0-7.4-.76-8.25-1.28.85-.52 3.68-1.28 8.25-1.28s7.41.76 8.26 1.28c-.83.52-3.69 1.28-8.26 1.28zM29 29c-2.68-1.09-7.23-1.17-8.44-1.17s-5.76.08-8.43 1.17v-9.16c.52-.51 3.44-1.42 8.43-1.42s7.91.91 8.44 1.42zm2-9.6c-.55-2.83-8.69-3-10.38-3s-8.92.14-10.22 2.52l-3.96-1.76 14.13-8.84 14.27 8.92z" fill="#010101"/></svg>