<svg data-name="Ebene 1" xmlns="http://www.w3.org/2000/svg" viewBox="0 0 16 16"><path d="M14.24 6.58l-6-3.77a.36.36 0 00-.4 0l-6 3.77h-.05a.41.41 0 00-.07.11.3.3 0 000 .1v2.32a.37.37 0 00.28.38.38.38 0 00.37-.38V7.48l1.79.81V12c0 1.16 3.23 1.22 3.88 1.22s3.88-.06 3.88-1.22V8.52l2.34-1.29a.38.38 0 000-.65zM8 12.5a7.32 7.32 0 01-3.07-.5A7.08 7.08 0 018 11.55a7.12 7.12 0 013.07.48A7.32 7.32 0 018 12.5zm3.14-1.26A10 10 0 008 10.8a10 10 0 00-3.14.44V7.85A6.36 6.36 0 018 7.32a6.36 6.36 0 013.14.53zm.72-3.56c-.21-1-3.23-1.1-3.86-1.1s-3.32 0-3.8.93l-1.46-.66L8 3.56l5.31 3.32z" fill="#010101"/></svg>