<svg id="Ebene_1" data-name="Ebene 1" xmlns="http://www.w3.org/2000/svg" viewBox="0 0 16 16"><defs><style>.cls-1{fill:#1d1d1b;}</style></defs><path class="cls-1" d="M8.34,13.07a.5.5,0,0,1-.5.5h-4a1.94,1.94,0,0,1-1.95-1.94V4.37a1.94,1.94,0,0,1,2-1.94h4a.5.5,0,0,1,.5.5.5.5,0,0,1-.5.5h-4a.94.94,0,0,0-1,.94v7.26a.94.94,0,0,0,1,.94h4A.5.5,0,0,1,8.34,13.07Zm3-5.42L9.24,5.51a.5.5,0,0,0-.71.71L9.81,7.5H5.72a.5.5,0,1,0,0,1H9.81L8.53,9.78a.51.51,0,0,0,0,.71.5.5,0,0,0,.36.14.47.47,0,0,0,.35-.14l2.14-2.14A.5.5,0,0,0,11.38,7.65Z"/></svg>