<svg id="Ebene_1" data-name="Ebene 1" xmlns="http://www.w3.org/2000/svg" viewBox="0 0 40 40"><defs><style>.cls-1{fill:#1d1d1b;}</style></defs><path class="cls-1" d="M23.89,32.68a1,1,0,0,1-1,1H12.75A4.64,4.64,0,0,1,8.11,29V10.81a4.64,4.64,0,0,1,4.64-4.64H22.89a1,1,0,0,1,0,2H12.75a2.64,2.64,0,0,0-2.64,2.64V29a2.64,2.64,0,0,0,2.64,2.64H22.89A1,1,0,0,1,23.89,32.68ZM31.6,19.22l-5.37-5.37a1,1,0,1,0-1.41,1.41l3.66,3.66H17.56a1,1,0,0,0,0,2H28.48l-3.66,3.66A1,1,0,0,0,26.23,26l5.37-5.37a1,1,0,0,0,.29-.71A1,1,0,0,0,31.6,19.22Z"/></svg>