<svg data-name="Ebene 1" xmlns="http://www.w3.org/2000/svg" viewBox="0 0 16 16"><path d="M13.5 3.15h-3.18L9.6 1.77a.5.5 0 00-.45-.27h-2.3a.5.5 0 00-.45.27l-.72 1.38H2.5a.5.5 0 00-.5.5.5.5 0 00.5.5h.66L4 14a.5.5 0 00.5.46h6.79a.51.51 0 00.5-.46l.82-9.89h.91a.5.5 0 00.5-.5.5.5 0 00-.52-.46zM7.15 2.5h1.7l.34.65H6.81zm3.66 11H4.94l-.78-9.35h7.43zm-2.27-1.83l.37-5.59a.49.49 0 01.53-.46.5.5 0 01.47.53l-.37 5.58a.5.5 0 01-.5.47H9a.5.5 0 01-.46-.53zm-2.24-6a.5.5 0 01.54.46l.37 5.59a.5.5 0 01-.47.53.5.5 0 01-.5-.47l-.4-5.63a.49.49 0 01.46-.53z" fill="#010101"/></svg>