<svg data-name="Ebene 1" xmlns="http://www.w3.org/2000/svg" viewBox="0 0 24 24"><path d="M20 5.24h-4.62l-1-1.95a.77.77 0 00-.66-.4h-3.4a.77.77 0 00-.66.4l-1 2H4a.75.75 0 000 1.5h.94l1.19 14a.75.75 0 00.75.68h9.87a.74.74 0 00.75-.68l1.19-14H20a.75.75 0 000-1.5zm-9.23-.85h2.46l.45.85h-3.36zm5.29 15.5H7.57L6.44 6.74h10.75zm-3.3-2.55l.55-7.91a.76.76 0 01.79-.7.75.75 0 01.7.8l-.54 7.91a.76.76 0 01-.75.7.75.75 0 01-.75-.8zM9.53 8.73a.78.78 0 01.8.7l.54 7.91a.74.74 0 01-.7.79h-.05a.76.76 0 01-.75-.7l-.54-7.9a.76.76 0 01.7-.8z" fill="#010101"/></svg>