<svg data-name="Ebene 1" xmlns="http://www.w3.org/2000/svg" viewBox="0 0 24 24"><path d="M12 2a10 10 0 1010 10A10 10 0 0012 2zm0 18.75A8.75 8.75 0 1120.75 12 8.77 8.77 0 0112 20.75zm1.05-10.39a1.69 1.69 0 01.1.64v6.36l-.51.08a3.82 3.82 0 01-.68.06 3.76 3.76 0 01-.61-.05 1 1 0 01-.46-.19.86.86 0 01-.29-.38 1.6 1.6 0 01-.1-.63V9.89l.5-.09a3.89 3.89 0 01.68-.05 3.87 3.87 0 01.62 0 1.07 1.07 0 01.46.19.86.86 0 01.29.42zm-.17-3.69a1.39 1.39 0 01.4 1 1.41 1.41 0 01-.4 1 1.42 1.42 0 01-1.06.4 1.42 1.42 0 01-1.05-.4 1.36 1.36 0 01-.4-1 1.35 1.35 0 01.4-1 1.56 1.56 0 012.11 0z" fill="#1d1d1b"/></svg>