<svg data-name="Ebene 1" xmlns="http://www.w3.org/2000/svg" viewBox="0 0 40 40"><path d="M29.56 35.76a1.06 1.06 0 01-.51-.14l-8.57-5.13a1 1 0 00-1 0L11 35.62a1 1 0 01-1.1 0 1 1 0 01-.39-1l2.21-9.76a.93.93 0 00-.29-.92l-7.57-6.67a1 1 0 01.57-1.75l9.94-.9a.93.93 0 00.78-.56l3.93-9.2a1 1 0 01.92-.61 1 1 0 01.92.61l3.92 9.19a1 1 0 00.79.57l9.94.91a1 1 0 01.86.68 1 1 0 01-.29 1.07l-7.52 6.59a.94.94 0 00-.3.91l2.22 9.76a1 1 0 01-.39 1 1 1 0 01-.59.22zM20 28.36a2.89 2.89 0 011.51.42l6.56 3.92-1.7-7.48a2.94 2.94 0 01.93-2.86l5.77-5.05-7.62-.69A3 3 0 0123 14.84l-3-7-3 7a2.93 2.93 0 01-2.43 1.77l-7.63.7 5.76 5.05a2.91 2.91 0 01.93 2.87l-1.7 7.47 6.56-3.92a2.89 2.89 0 011.51-.42z" fill="#010101"/></svg>