<svg data-name="Ebene 1" xmlns="http://www.w3.org/2000/svg" viewBox="0 0 16 16"><path d="M13.84 7.76a1.5 1.5 0 00-1.17-.4 4 4 0 00-2-3.23l.36-1.65a.4.4 0 00-.46-.48 1.79 1.79 0 01-1.14 0 1.54 1.54 0 00-1.16-.32 1.28 1.28 0 00-.84.55.42.42 0 000 .39l.71 1.54a5.58 5.58 0 00-.87.63.41.41 0 000 .57.43.43 0 00.3.13.47.47 0 00.27-.1 4.4 4.4 0 01.85-.6 2.33 2.33 0 00.88.18 1.88 1.88 0 00.71-.13 3.17 3.17 0 011.65 2.83v.1a2.7 2.7 0 00-.55.67l-1 .58a1.08 1.08 0 00-.74-.3H8.49a1.39 1.39 0 00-1-.58h-.92a3.16 3.16 0 00-2.44 1.28.86.86 0 00-1.07.11l-.77.77a.86.86 0 000 1.22l2.62 2.62a.82.82 0 00.61.25.85.85 0 00.61-.25l.76-.77A.86.86 0 007 12.24h3.3a.35.35 0 00.26-.1c.57-.48 1.92-1.63 2.09-1.86s1.08-1.73 1.26-2a.4.4 0 00-.07-.52zM9.9 4.06a1.32 1.32 0 01-1-.07l-.66-1.51.16-.06a.76.76 0 01.6.17 1.86 1.86 0 001.2.28zm-3.57 8.75l-.77.76a.06.06 0 01-.09 0L2.85 11a.07.07 0 010-.09l.77-.77a.08.08 0 01.09 0l2.62 2.62a.07.07 0 010 .05zm5.69-3c-.12.13-1 .93-1.87 1.65H6.62a.5.5 0 00-.21.05l-.11.07L4.71 10a2.5 2.5 0 011.86-1.11h.91c.14 0 .36.23.46.39a.4.4 0 00.34.2h1.33a.3.3 0 010 .59H7.25a.4.4 0 000 .8h2.36a1.1 1.1 0 001.1-1.1V9.7l1.11-.7a.38.38 0 00.18-.12c.25-.44.52-.69.79-.73a.53.53 0 01.26 0c-.44.69-.94 1.52-1.05 1.64zM5.74 4.62V2a.4.4 0 11.8 0v2.6a.4.4 0 01-.8 0zm-3.3 1.81v-4a.39.39 0 01.4-.4.4.4 0 01.4.4v4a.4.4 0 01-.4.4.39.39 0 01-.4-.4zm1.76 1v-4a.4.4 0 01.8 0v4a.4.4 0 01-.8 0z"/></svg>