<svg data-name="Ebene 1" xmlns="http://www.w3.org/2000/svg" viewBox="0 0 24 24"><path d="M19.44 14.07V10a2 2 0 10-1.93-3.45L14 4.41a1.82 1.82 0 00.08-.52 2 2 0 00-4.07 0 2.09 2.09 0 00.07.51L6.5 6.57A2 2 0 005.14 6a2 2 0 00-.58 4v4.06a2 2 0 102 3.43l3.56 2.12a2 2 0 00-.07.49 2 2 0 004.07 0 2.08 2.08 0 00-.07-.5l3.5-2.1a2 2 0 101.94-3.44zM18.1 7.66a.86.86 0 01.71-.37.87.87 0 11-.87.86.84.84 0 01.16-.49zM12 3a.87.87 0 01.87.87.85.85 0 01-.11.42A.87.87 0 1112 3zM4.27 8.07a.87.87 0 11.87.87.87.87 0 01-.87-.87zm1.62 8.36A.86.86 0 116 16a.89.89 0 01-.11.43zM12 21a.87.87 0 11.87-.87.87.87 0 01-.87.87zm4.8-5a1.68 1.68 0 00.07.5l-3.5 2.1a2 2 0 00-2.74 0l-3.52-2.1a2 2 0 00.06-.5 2 2 0 00-1.45-1.94V10a2 2 0 001.45-1.93 2.08 2.08 0 00-.07-.5l3.58-2.17a2 2 0 002.7 0l3.52 2.16a2.09 2.09 0 00-.07.51A2 2 0 0018.28 10v4.06A2 2 0 0016.83 16zm2 .86a.84.84 0 01-.7-.36V16.38A.8.8 0 0118 16a.87.87 0 11.87.86zm-3.36-6.3A2.51 2.51 0 0013 8.05a2.48 2.48 0 00-2 1 1.58 1.58 0 00-.38 0 2.21 2.21 0 00-2.11 1.55 2.3 2.3 0 001.19 4.27h4.67a2.3 2.3 0 001.13-4.3zm-1.07 3.14H9.7a1.13 1.13 0 01-1.14-1.13 1.15 1.15 0 01.69-1 .56.56 0 00.35-.47 1 1 0 011-.91 1.15 1.15 0 01.41.08.57.57 0 00.75-.27 1.34 1.34 0 012.54.6 1.24 1.24 0 010 .27.59.59 0 00.4.67 1.12 1.12 0 01-.33 2.2z" fill="#010101"/></svg>