<svg data-name="Ebene 1" xmlns="http://www.w3.org/2000/svg" viewBox="0 0 16 16"><path d="M13.11 9.42V6.63a1.39 1.39 0 00-.4-2.72 1.35 1.35 0 00-.93.36L9.37 2.79a1.49 1.49 0 00.05-.36 1.4 1.4 0 10-2.79 0 1.34 1.34 0 000 .35L4.22 4.27a1.39 1.39 0 10-1.33 2.36v2.79a1.39 1.39 0 00-1 1.33 1.4 1.4 0 001.4 1.4 1.39 1.39 0 00.94-.37l2.44 1.45a1.86 1.86 0 000 .34 1.4 1.4 0 102.79 0 1.27 1.27 0 00-.05-.34l2.41-1.45a1.34 1.34 0 00.93.37 1.4 1.4 0 001.4-1.4 1.39 1.39 0 00-1.04-1.33zm-1.8 1.33a1.41 1.41 0 000 .35L9 12.54a1.37 1.37 0 00-1-.37 1.43 1.43 0 00-.94.37l-2.42-1.45a1.27 1.27 0 000-.34 1.39 1.39 0 00-1-1.33V6.63a1.39 1.39 0 001-1.33 2.09 2.09 0 000-.35l2.45-1.49a1.36 1.36 0 00.91.37 1.4 1.4 0 001-.36L11.37 5a1.35 1.35 0 00-.06.35 1.4 1.4 0 001 1.33v2.74a1.4 1.4 0 00-1 1.33zm1.4-6a.59.59 0 01.6.59.6.6 0 01-.6.6.59.59 0 01-.59-.6.55.55 0 01.07-.34.59.59 0 01.52-.29zM8 1.83a.6.6 0 01.6.6.57.57 0 01-.08.29.6.6 0 11-.52-.89zM2.69 5.3a.59.59 0 01.6-.59.58.58 0 01.59.59.59.59 0 01-.59.6.6.6 0 01-.6-.6zm.6 6.05a.6.6 0 01-.6-.6.59.59 0 01.6-.59.58.58 0 01.59.59.55.55 0 01-.08.25.59.59 0 01-.51.35zM8 14.17A.6.6 0 018 13a.6.6 0 010 1.2zm4.69-2.82a.59.59 0 01-.48-.25.6.6 0 01-.06-.27.58.58 0 01.59-.59.59.59 0 01.6.59.6.6 0 01-.63.52zM10.4 7a1.73 1.73 0 00-1.72-1.72A1.71 1.71 0 007.32 6h-.26A1.51 1.51 0 005.6 7a1.57 1.57 0 00-.76 1.35A1.58 1.58 0 006.42 10h3.21a1.57 1.57 0 00.77-3zm-.77 2.17H6.42a.78.78 0 01-.31-1.49.38.38 0 00.24-.32.72.72 0 01.71-.63.67.67 0 01.28.06.41.41 0 00.52-.19.91.91 0 01.82-.51.92.92 0 01.92.91 1.1 1.1 0 010 .18.41.41 0 00.28.47.76.76 0 01.55.73.78.78 0 01-.8.79z" fill="#010101"/></svg>